G04 #@! TF.GenerationSoftware,KiCad,Pcbnew,9.0.8-9.0.8~ubuntu24.04.1*
G04 #@! TF.CreationDate,2026-04-07T15:29:51+01:00*
G04 #@! TF.ProjectId,DeltaBot,44656c74-6142-46f7-942e-6b696361645f,rev?*
G04 #@! TF.SameCoordinates,Original*
G04 #@! TF.FileFunction,Copper,L2,Bot*
G04 #@! TF.FilePolarity,Positive*
%FSLAX46Y46*%
G04 Gerber Fmt 4.6, Leading zero omitted, Abs format (unit mm)*
G04 Created by KiCad (PCBNEW 9.0.8-9.0.8~ubuntu24.04.1) date 2026-04-07 15:29:51*
%MOMM*%
%LPD*%
G01*
G04 APERTURE LIST*
%ADD10C,0.300000*%
G04 #@! TA.AperFunction,NonConductor*
%ADD11C,0.300000*%
G04 #@! TD*
G04 #@! TA.AperFunction,ComponentPad*
%ADD12C,2.000000*%
G04 #@! TD*
G04 #@! TA.AperFunction,ComponentPad*
%ADD13R,2.000000X2.000000*%
G04 #@! TD*
G04 #@! TA.AperFunction,ComponentPad*
%ADD14O,2.000000X2.000000*%
G04 #@! TD*
G04 #@! TA.AperFunction,ComponentPad*
%ADD15R,1.800000X1.800000*%
G04 #@! TD*
G04 #@! TA.AperFunction,ComponentPad*
%ADD16O,1.800000X1.800000*%
G04 #@! TD*
G04 #@! TA.AperFunction,ComponentPad*
%ADD17C,3.000000*%
G04 #@! TD*
G04 #@! TA.AperFunction,ComponentPad*
%ADD18C,2.250000*%
G04 #@! TD*
G04 #@! TA.AperFunction,ComponentPad*
%ADD19R,2.250000X2.250000*%
G04 #@! TD*
G04 #@! TA.AperFunction,ComponentPad*
%ADD20R,3.500000X3.500000*%
G04 #@! TD*
G04 #@! TA.AperFunction,ComponentPad*
%ADD21C,3.500000*%
G04 #@! TD*
G04 #@! TA.AperFunction,ComponentPad*
%ADD22R,2.400000X2.400000*%
G04 #@! TD*
G04 #@! TA.AperFunction,ComponentPad*
%ADD23C,2.400000*%
G04 #@! TD*
G04 #@! TA.AperFunction,ViaPad*
%ADD24C,2.500000*%
G04 #@! TD*
G04 #@! TA.AperFunction,ViaPad*
%ADD25C,3.000000*%
G04 #@! TD*
G04 #@! TA.AperFunction,Conductor*
%ADD26C,2.500000*%
G04 #@! TD*
G04 #@! TA.AperFunction,Conductor*
%ADD27C,1.000000*%
G04 #@! TD*
G04 #@! TA.AperFunction,Conductor*
%ADD28C,0.500000*%
G04 #@! TD*
G04 #@! TA.AperFunction,Conductor*
%ADD29C,2.000000*%
G04 #@! TD*
G04 #@! TA.AperFunction,Profile*
%ADD30C,0.300000*%
G04 #@! TD*
G04 APERTURE END LIST*
D10*
D11*
X264974400Y-89268796D02*
X265117257Y-89697368D01*
X265117257Y-89697368D02*
X265117257Y-90411653D01*
X265117257Y-90411653D02*
X264974400Y-90697368D01*
X264974400Y-90697368D02*
X264831542Y-90840225D01*
X264831542Y-90840225D02*
X264545828Y-90983082D01*
X264545828Y-90983082D02*
X264260114Y-90983082D01*
X264260114Y-90983082D02*
X263974400Y-90840225D01*
X263974400Y-90840225D02*
X263831542Y-90697368D01*
X263831542Y-90697368D02*
X263688685Y-90411653D01*
X263688685Y-90411653D02*
X263545828Y-89840225D01*
X263545828Y-89840225D02*
X263402971Y-89554510D01*
X263402971Y-89554510D02*
X263260114Y-89411653D01*
X263260114Y-89411653D02*
X262974400Y-89268796D01*
X262974400Y-89268796D02*
X262688685Y-89268796D01*
X262688685Y-89268796D02*
X262402971Y-89411653D01*
X262402971Y-89411653D02*
X262260114Y-89554510D01*
X262260114Y-89554510D02*
X262117257Y-89840225D01*
X262117257Y-89840225D02*
X262117257Y-90554510D01*
X262117257Y-90554510D02*
X262260114Y-90983082D01*
X264260114Y-92125939D02*
X264260114Y-93554511D01*
X265117257Y-91840225D02*
X262117257Y-92840225D01*
X262117257Y-92840225D02*
X265117257Y-93840225D01*
D12*
G04 #@! TO.P,C4,1*
G04 #@! TO.N,+5V*
X202750000Y-71750000D03*
G04 #@! TO.P,C4,2*
G04 #@! TO.N,GND*
X200250000Y-71750000D03*
G04 #@! TD*
D13*
G04 #@! TO.P,J3,1,Pin_1*
G04 #@! TO.N,PWM_L*
X202000000Y-114500000D03*
D14*
G04 #@! TO.P,J3,2,Pin_2*
G04 #@! TO.N,+5V*
X202000000Y-117040000D03*
G04 #@! TO.P,J3,3,Pin_3*
G04 #@! TO.N,GND*
X202000000Y-119580000D03*
G04 #@! TD*
D15*
G04 #@! TO.P,U1,1,3.3V*
G04 #@! TO.N,unconnected-(U1-3.3V-Pad1)*
X61800000Y-75500000D03*
D16*
G04 #@! TO.P,U1,2,5V1*
G04 #@! TO.N,+5V*
X61800000Y-72960000D03*
G04 #@! TO.P,U1,3,I2C7_SDA*
G04 #@! TO.N,unconnected-(U1-I2C7_SDA-Pad3)*
X64340000Y-75500000D03*
G04 #@! TO.P,U1,4,5V2*
G04 #@! TO.N,+5V*
X64340000Y-72960000D03*
G04 #@! TO.P,U1,5,I2C7_SCL*
G04 #@! TO.N,unconnected-(U1-I2C7_SCL-Pad5)*
X66880000Y-75500000D03*
G04 #@! TO.P,U1,6,GND1*
G04 #@! TO.N,GND*
X66880000Y-72960000D03*
G04 #@! TO.P,U1,7,GPIO2_B3*
G04 #@! TO.N,unconnected-(U1-GPIO2_B3-Pad7)*
X69420000Y-75500000D03*
G04 #@! TO.P,U1,8,GPIO4_C3*
G04 #@! TO.N,LIDAR_RX*
X69420000Y-72960000D03*
G04 #@! TO.P,U1,9,GND8*
G04 #@! TO.N,GND*
X71960000Y-75500000D03*
G04 #@! TO.P,U1,10,GPIO4_C4*
G04 #@! TO.N,LIDAR_TX*
X71960000Y-72960000D03*
G04 #@! TO.P,U1,11,GPIO4_C2*
G04 #@! TO.N,unconnected-(U1-GPIO4_C2-Pad11)*
X74500000Y-75500000D03*
G04 #@! TO.P,U1,12,GPIO4_A3*
G04 #@! TO.N,unconnected-(U1-GPIO4_A3-Pad12)*
X74500000Y-72960000D03*
G04 #@! TO.P,U1,13,GPIO4_C6*
G04 #@! TO.N,unconnected-(U1-GPIO4_C6-Pad13)*
X77040000Y-75500000D03*
G04 #@! TO.P,U1,14,GND2*
G04 #@! TO.N,GND*
X77040000Y-72960000D03*
G04 #@! TO.P,U1,15,GPIO4_D0*
G04 #@! TO.N,unconnected-(U1-GPIO4_D0-Pad15)*
X79580000Y-75500000D03*
G04 #@! TO.P,U1,16,GPIO4_D2*
G04 #@! TO.N,unconnected-(U1-GPIO4_D2-Pad16)*
X79580000Y-72960000D03*
G04 #@! TO.P,U1,17,3.3V1*
G04 #@! TO.N,unconnected-(U1-3.3V1-Pad17)*
X82120000Y-75500000D03*
G04 #@! TO.P,U1,18,GPIO4_D4*
G04 #@! TO.N,MOTO_CTRL*
X82120000Y-72960000D03*
G04 #@! TO.P,U1,19,GPIO1_B0*
G04 #@! TO.N,unconnected-(U1-GPIO1_B0-Pad19)*
X84660000Y-75500000D03*
G04 #@! TO.P,U1,20,GND3*
G04 #@! TO.N,GND*
X84660000Y-72960000D03*
G04 #@! TO.P,U1,21,GPIO1_A7*
G04 #@! TO.N,unconnected-(U1-GPIO1_A7-Pad21)*
X87200000Y-75500000D03*
G04 #@! TO.P,U1,22,GPIO4_D5*
G04 #@! TO.N,unconnected-(U1-GPIO4_D5-Pad22)*
X87200000Y-72960000D03*
G04 #@! TO.P,U1,23,GPIO1_B1*
G04 #@! TO.N,unconnected-(U1-GPIO1_B1-Pad23)*
X89740000Y-75500000D03*
G04 #@! TO.P,U1,24,GPIO1_B2*
G04 #@! TO.N,unconnected-(U1-GPIO1_B2-Pad24)*
X89740000Y-72960000D03*
G04 #@! TO.P,U1,25,GND7*
G04 #@! TO.N,GND*
X92280000Y-75500000D03*
G04 #@! TO.P,U1,26,ADC_IN0*
G04 #@! TO.N,unconnected-(U1-ADC_IN0-Pad26)*
X92280000Y-72960000D03*
G04 #@! TO.P,U1,27,GPIO2_A0*
G04 #@! TO.N,unconnected-(U1-GPIO2_A0-Pad27)*
X94820000Y-75500000D03*
G04 #@! TO.P,U1,28,GPIO2_A1*
G04 #@! TO.N,unconnected-(U1-GPIO2_A1-Pad28)*
X94820000Y-72960000D03*
G04 #@! TO.P,U1,29,GPIO2_B2*
G04 #@! TO.N,unconnected-(U1-GPIO2_B2-Pad29)*
X97360000Y-75500000D03*
G04 #@! TO.P,U1,30,GND4*
G04 #@! TO.N,GND*
X97360000Y-72960000D03*
G04 #@! TO.P,U1,31,GPIO2_B1*
G04 #@! TO.N,unconnected-(U1-GPIO2_B1-Pad31)*
X99900000Y-75500000D03*
G04 #@! TO.P,U1,32,GPIO3_C0*
G04 #@! TO.N,PWM_R*
X99900000Y-72960000D03*
G04 #@! TO.P,U1,33,GPIO2_B4*
G04 #@! TO.N,PWM_L*
X102440000Y-75500000D03*
G04 #@! TO.P,U1,34,GND5*
G04 #@! TO.N,GND*
X102440000Y-72960000D03*
G04 #@! TO.P,U1,35,GPIO4_A5*
G04 #@! TO.N,unconnected-(U1-GPIO4_A5-Pad35)*
X104980000Y-75500000D03*
G04 #@! TO.P,U1,36,GPIO4_A4*
G04 #@! TO.N,unconnected-(U1-GPIO4_A4-Pad36)*
X104980000Y-72960000D03*
G04 #@! TO.P,U1,37,GPIO4_D6*
G04 #@! TO.N,unconnected-(U1-GPIO4_D6-Pad37)*
X107520000Y-75500000D03*
G04 #@! TO.P,U1,38,GPIO4_A6*
G04 #@! TO.N,unconnected-(U1-GPIO4_A6-Pad38)*
X107520000Y-72960000D03*
G04 #@! TO.P,U1,39,GND6*
G04 #@! TO.N,GND*
X110060000Y-75500000D03*
G04 #@! TO.P,U1,40,GPIO4_A7*
G04 #@! TO.N,unconnected-(U1-GPIO4_A7-Pad40)*
X110060000Y-72960000D03*
G04 #@! TD*
D17*
G04 #@! TO.P,U2,1,IN+*
G04 #@! TO.N,+9V*
X111000000Y-107500000D03*
G04 #@! TO.P,U2,2,IN-*
G04 #@! TO.N,GND*
X111000000Y-93500000D03*
G04 #@! TO.P,U2,3,OUT+*
G04 #@! TO.N,+5V*
X54000000Y-107500000D03*
G04 #@! TO.P,U2,4,OUT-*
G04 #@! TO.N,GND*
X54000000Y-93500000D03*
G04 #@! TD*
D13*
G04 #@! TO.P,J2,1,Pin_1*
G04 #@! TO.N,+5V*
X79000000Y-53960000D03*
D12*
G04 #@! TO.P,J2,2,Pin_2*
G04 #@! TO.N,LIDAR_TX*
X79000000Y-56500000D03*
G04 #@! TO.P,J2,3,Pin_3*
G04 #@! TO.N,LIDAR_RX*
X79000000Y-59040000D03*
G04 #@! TO.P,J2,4,Pin_4*
G04 #@! TO.N,GND*
X79000000Y-61580000D03*
G04 #@! TO.P,J2,5,Pin_5*
G04 #@! TO.N,unconnected-(J2-Pin_5-Pad5)*
X79000000Y-64120000D03*
G04 #@! TD*
D18*
G04 #@! TO.P,J1,1,VCC*
G04 #@! TO.N,Net-(J1-VCC)*
X177000000Y-117500000D03*
D19*
X177000000Y-120500000D03*
D18*
G04 #@! TO.P,J1,2,GND*
G04 #@! TO.N,GND*
X159500000Y-117500000D03*
D19*
X159500000Y-120500000D03*
G04 #@! TD*
D12*
G04 #@! TO.P,C3,1*
G04 #@! TO.N,+5V*
X76750000Y-47000000D03*
G04 #@! TO.P,C3,2*
G04 #@! TO.N,GND*
X79250000Y-47000000D03*
G04 #@! TD*
D13*
G04 #@! TO.P,J4,1,Pin_1*
G04 #@! TO.N,PWM_R*
X201500000Y-66500000D03*
D14*
G04 #@! TO.P,J4,2,Pin_2*
G04 #@! TO.N,+5V*
X201500000Y-63960000D03*
G04 #@! TO.P,J4,3,Pin_3*
G04 #@! TO.N,GND*
X201500000Y-61420000D03*
G04 #@! TD*
D12*
G04 #@! TO.P,C5,1*
G04 #@! TO.N,+5V*
X199500000Y-124000000D03*
G04 #@! TO.P,C5,2*
G04 #@! TO.N,GND*
X202000000Y-124000000D03*
G04 #@! TD*
G04 #@! TO.P,C2,1*
G04 #@! TO.N,+5V*
X43250000Y-87000000D03*
G04 #@! TO.P,C2,2*
G04 #@! TO.N,GND*
X45750000Y-87000000D03*
G04 #@! TD*
D17*
G04 #@! TO.P,F1,1*
G04 #@! TO.N,Net-(SW1-B)*
X168500000Y-86250000D03*
G04 #@! TO.P,F1,2*
G04 #@! TO.N,Net-(J1-VCC)*
X168500000Y-108750000D03*
G04 #@! TD*
D20*
G04 #@! TO.P,SW1,1,A*
G04 #@! TO.N,+9V*
X190000000Y-138000000D03*
D21*
G04 #@! TO.P,SW1,2,B*
G04 #@! TO.N,Net-(SW1-B)*
X194699000Y-138000000D03*
G04 #@! TO.P,SW1,3,C*
G04 #@! TO.N,unconnected-(SW1-C-Pad3)*
X199398000Y-138000000D03*
G04 #@! TD*
D22*
G04 #@! TO.P,C1,1*
G04 #@! TO.N,+5V*
X40500000Y-99500000D03*
D23*
G04 #@! TO.P,C1,2*
G04 #@! TO.N,GND*
X45500000Y-99500000D03*
G04 #@! TD*
D12*
G04 #@! TO.P,C6,1*
G04 #@! TO.N,+5V*
X58500000Y-60000000D03*
G04 #@! TO.P,C6,2*
G04 #@! TO.N,GND*
X56000000Y-60000000D03*
G04 #@! TD*
D24*
G04 #@! TO.N,GND*
X110000000Y-78500000D03*
X72000000Y-78500000D03*
X205500000Y-120000000D03*
X217000000Y-135500000D03*
X206000000Y-112500000D03*
X196000000Y-71500000D03*
X156000000Y-114500000D03*
X82000000Y-47000000D03*
X240500000Y-58000000D03*
X202000000Y-129000000D03*
X84500000Y-69500000D03*
X194500000Y-60000000D03*
X77000000Y-69500000D03*
X197500000Y-60000000D03*
X156000000Y-119000000D03*
X92500000Y-78500000D03*
G04 #@! TO.N,LIDAR_TX*
X72000000Y-56500000D03*
G04 #@! TO.N,PWM_L*
X203500000Y-109000000D03*
D25*
G04 #@! TO.N,+5V*
X64000000Y-59500000D03*
D24*
G04 #@! TO.N,LIDAR_RX*
X69375000Y-59500000D03*
G04 #@! TO.N,PWM_R*
X191500000Y-66500000D03*
G04 #@! TD*
D26*
G04 #@! TO.N,Net-(J1-VCC)*
X177000000Y-117500000D02*
X177000000Y-120500000D01*
X168000000Y-108500000D02*
X177000000Y-117500000D01*
G04 #@! TO.N,unconnected-(SW1-C-Pad3)*
X199398000Y-138000000D02*
X199500000Y-137898000D01*
G04 #@! TO.N,Net-(SW1-B)*
X172250000Y-86000000D02*
X181250000Y-86000000D01*
X172250000Y-86000000D02*
X172000000Y-86250000D01*
X172000000Y-86250000D02*
X168500000Y-86250000D01*
X194500000Y-117500000D02*
X194500000Y-121000000D01*
X181500000Y-86250000D02*
X181500000Y-104500000D01*
X181500000Y-104500000D02*
X194500000Y-117500000D01*
X194699000Y-121199000D02*
X194699000Y-138000000D01*
X181250000Y-86000000D02*
X181500000Y-86250000D01*
X194500000Y-121000000D02*
X194699000Y-121199000D01*
D27*
G04 #@! TO.N,LIDAR_TX*
X72000000Y-56500000D02*
X79000000Y-56500000D01*
G04 #@! TO.N,PWM_L*
X203500000Y-109000000D02*
X203500000Y-113000000D01*
X203500000Y-113000000D02*
X202000000Y-114500000D01*
D28*
G04 #@! TO.N,+5V*
X77000000Y-47250000D02*
X76750000Y-47000000D01*
D29*
X205250000Y-63960000D02*
X201500000Y-63960000D01*
X209000000Y-62000000D02*
X209000000Y-56000000D01*
D26*
X186500000Y-40500000D02*
X201000000Y-55000000D01*
D29*
X209000000Y-62000000D02*
X209000000Y-114500000D01*
D26*
X208000000Y-55000000D02*
X209000000Y-56000000D01*
D27*
X58500000Y-60000000D02*
X63500000Y-60000000D01*
D29*
X207040000Y-63960000D02*
X205250000Y-63960000D01*
D27*
X76700000Y-51660000D02*
X78940000Y-53900000D01*
D26*
X77000000Y-40500000D02*
X186500000Y-40500000D01*
X70500000Y-47000000D02*
X77000000Y-40500000D01*
D27*
X205250000Y-69250000D02*
X205250000Y-63960000D01*
X70500000Y-47000000D02*
X76700000Y-47000000D01*
D26*
X64000000Y-55750000D02*
X64000000Y-53500000D01*
X64000000Y-59500000D02*
X64000000Y-55750000D01*
D27*
X76700000Y-47000000D02*
X76700000Y-51660000D01*
X58500000Y-60250000D02*
X58500000Y-60000000D01*
D29*
X209000000Y-114500000D02*
X206460000Y-117040000D01*
D26*
X201000000Y-55000000D02*
X208000000Y-55000000D01*
X64000000Y-53500000D02*
X70500000Y-47000000D01*
D27*
X63500000Y-60000000D02*
X64000000Y-59500000D01*
X202750000Y-71750000D02*
X205250000Y-69250000D01*
D29*
X206460000Y-117040000D02*
X202000000Y-117040000D01*
X209000000Y-62000000D02*
X207040000Y-63960000D01*
D27*
G04 #@! TO.N,LIDAR_RX*
X69375000Y-59500000D02*
X73660000Y-59500000D01*
X74080000Y-59080000D02*
X77000000Y-59080000D01*
X77040000Y-59040000D02*
X79000000Y-59040000D01*
X73660000Y-59500000D02*
X74080000Y-59080000D01*
X77000000Y-59080000D02*
X77040000Y-59040000D01*
G04 #@! TO.N,PWM_R*
X191500000Y-66500000D02*
X201500000Y-66500000D01*
D29*
G04 #@! TO.N,+9V*
X129500000Y-107500000D02*
X111000000Y-107500000D01*
X175000000Y-107000000D02*
X175000000Y-103500000D01*
X190000000Y-138000000D02*
X190000000Y-122000000D01*
X133500000Y-103500000D02*
X129500000Y-107500000D01*
X190000000Y-122000000D02*
X175000000Y-107000000D01*
X175000000Y-103500000D02*
X133500000Y-103500000D01*
G04 #@! TD*
G04 #@! TA.AperFunction,Conductor*
G04 #@! TO.N,GND*
G36*
X74848405Y-38560689D02*
G01*
X75011825Y-38620169D01*
X75157122Y-38715733D01*
X75276464Y-38842228D01*
X75363418Y-38992836D01*
X75413295Y-39159438D01*
X75423407Y-39333050D01*
X75393208Y-39504316D01*
X75324327Y-39664000D01*
X75220477Y-39803495D01*
X75205297Y-39819123D01*
X69181080Y-45843339D01*
X62681081Y-52343338D01*
X62681080Y-52343338D01*
X62611236Y-52434362D01*
X62611235Y-52434363D01*
X62541387Y-52525389D01*
X62541387Y-52525390D01*
X62426658Y-52724106D01*
X62426653Y-52724118D01*
X62338841Y-52936112D01*
X62279451Y-53157763D01*
X62249500Y-53385259D01*
X62249500Y-58250500D01*
X62229311Y-58423231D01*
X62169831Y-58586651D01*
X62074267Y-58731948D01*
X61947772Y-58851290D01*
X61797164Y-58938244D01*
X61630562Y-58988121D01*
X61500500Y-58999500D01*
X59919098Y-58999500D01*
X59746367Y-58979311D01*
X59582947Y-58919831D01*
X59478846Y-58856453D01*
X59286431Y-58716655D01*
X59075997Y-58609434D01*
X59075994Y-58609433D01*
X59075992Y-58609432D01*
X58851368Y-58536447D01*
X58618092Y-58499500D01*
X58381908Y-58499500D01*
X58226390Y-58524131D01*
X58148631Y-58536447D01*
X58040517Y-58571575D01*
X57924008Y-58609432D01*
X57924006Y-58609432D01*
X57924006Y-58609433D01*
X57924002Y-58609434D01*
X57713568Y-58716655D01*
X57522492Y-58855480D01*
X57355480Y-59022492D01*
X57216655Y-59213568D01*
X57109434Y-59424002D01*
X57109432Y-59424006D01*
X57109432Y-59424008D01*
X57036447Y-59648632D01*
X56999500Y-59881908D01*
X56999500Y-60118092D01*
X57036447Y-60351368D01*
X57109432Y-60575992D01*
X57109433Y-60575993D01*
X57109434Y-60575997D01*
X57216655Y-60786431D01*
X57355480Y-60977507D01*
X57522492Y-61144519D01*
X57713568Y-61283344D01*
X57900268Y-61378472D01*
X57924008Y-61390568D01*
X58148632Y-61463553D01*
X58381908Y-61500500D01*
X58381910Y-61500500D01*
X58618090Y-61500500D01*
X58618092Y-61500500D01*
X58851368Y-61463553D01*
X59075992Y-61390568D01*
X59286433Y-61283343D01*
X59374049Y-61219686D01*
X59478846Y-61143547D01*
X59630456Y-61058351D01*
X59797626Y-61010416D01*
X59919098Y-61000500D01*
X62415058Y-61000500D01*
X62587789Y-61020689D01*
X62751209Y-61080169D01*
X62871020Y-61155278D01*
X62886198Y-61166925D01*
X62977584Y-61219686D01*
X63113303Y-61298043D01*
X63113305Y-61298044D01*
X63113309Y-61298046D01*
X63113312Y-61298047D01*
X63355578Y-61398397D01*
X63355579Y-61398397D01*
X63355581Y-61398398D01*
X63608884Y-61466270D01*
X63868880Y-61500500D01*
X64131119Y-61500500D01*
X64131120Y-61500500D01*
X64391116Y-61466270D01*
X64644419Y-61398398D01*
X64886697Y-61298043D01*
X65113803Y-61166924D01*
X65321851Y-61007282D01*
X65507282Y-60821851D01*
X65666924Y-60613803D01*
X65798043Y-60386697D01*
X65898398Y-60144419D01*
X65966270Y-59891116D01*
X66000500Y-59631120D01*
X66000500Y-59368880D01*
X65966270Y-59108884D01*
X65898398Y-58855581D01*
X65807513Y-58636167D01*
X65760065Y-58468859D01*
X65750500Y-58349538D01*
X65750500Y-54535325D01*
X65770689Y-54362594D01*
X65830169Y-54199174D01*
X65925733Y-54053877D01*
X65969866Y-54005713D01*
X71656656Y-48318923D01*
X71656661Y-48318920D01*
X71755710Y-48219871D01*
X71861835Y-48135960D01*
X71892120Y-48112014D01*
X71892121Y-48112013D01*
X71892127Y-48112009D01*
X71971054Y-48075205D01*
X72049733Y-48038517D01*
X72049739Y-48038515D01*
X72049741Y-48038515D01*
X72098885Y-48028367D01*
X72220047Y-48003350D01*
X72220052Y-48003349D01*
X72220064Y-48003349D01*
X72285327Y-48000500D01*
X74950500Y-48000500D01*
X75123231Y-48020689D01*
X75286651Y-48080169D01*
X75431948Y-48175733D01*
X75551290Y-48302228D01*
X75638244Y-48452836D01*
X75688121Y-48619438D01*
X75699500Y-48749500D01*
X75699500Y-51758540D01*
X75732936Y-51926637D01*
X75737948Y-51951831D01*
X75737952Y-51951844D01*
X75813365Y-52133908D01*
X75813369Y-52133915D01*
X75922859Y-52297779D01*
X75922863Y-52297784D01*
X76104909Y-52479830D01*
X76104915Y-52479835D01*
X77280123Y-53655044D01*
X77327343Y-53714763D01*
X77376280Y-53773084D01*
X77381194Y-53782869D01*
X77387987Y-53791460D01*
X77420168Y-53860473D01*
X77454329Y-53928493D01*
X77456853Y-53939145D01*
X77461483Y-53949073D01*
X77476881Y-54023649D01*
X77494435Y-54097712D01*
X77495323Y-54112963D01*
X77496650Y-54119388D01*
X77499500Y-54184666D01*
X77499501Y-54750499D01*
X77479312Y-54923230D01*
X77419832Y-55086649D01*
X77324269Y-55231947D01*
X77197774Y-55351289D01*
X77047166Y-55438243D01*
X76880565Y-55488121D01*
X76750501Y-55499500D01*
X73785326Y-55499500D01*
X73612595Y-55479311D01*
X73449175Y-55419831D01*
X73303878Y-55324267D01*
X73255703Y-55280123D01*
X73156663Y-55181083D01*
X73156656Y-55181077D01*
X73109358Y-55144784D01*
X72974612Y-55041389D01*
X72775888Y-54926656D01*
X72767617Y-54923230D01*
X72563887Y-54838841D01*
X72342236Y-54779451D01*
X72114740Y-54749500D01*
X72114734Y-54749500D01*
X71885266Y-54749500D01*
X71885259Y-54749500D01*
X71657763Y-54779451D01*
X71436112Y-54838841D01*
X71224118Y-54926653D01*
X71224113Y-54926655D01*
X71025385Y-55041391D01*
X70843343Y-55181077D01*
X70843336Y-55181083D01*
X70681083Y-55343336D01*
X70681077Y-55343343D01*
X70541391Y-55525385D01*
X70426655Y-55724113D01*
X70426653Y-55724118D01*
X70338841Y-55936112D01*
X70279451Y-56157763D01*
X70249500Y-56385259D01*
X70249500Y-56614740D01*
X70279450Y-56842233D01*
X70282302Y-56856566D01*
X70296199Y-57029917D01*
X70269744Y-57201800D01*
X70204364Y-57362949D01*
X70103582Y-57504677D01*
X69972832Y-57619342D01*
X69819163Y-57700764D01*
X69650858Y-57744552D01*
X69498724Y-57750088D01*
X69489750Y-57749500D01*
X69489734Y-57749500D01*
X69260266Y-57749500D01*
X69260259Y-57749500D01*
X69032763Y-57779451D01*
X68811112Y-57838841D01*
X68599118Y-57926653D01*
X68599113Y-57926655D01*
X68400385Y-58041391D01*
X68218343Y-58181077D01*
X68218336Y-58181083D01*
X68056083Y-58343336D01*
X68056077Y-58343343D01*
X67916391Y-58525385D01*
X67801655Y-58724113D01*
X67801653Y-58724118D01*
X67713841Y-58936112D01*
X67654451Y-59157763D01*
X67624500Y-59385259D01*
X67624500Y-59614740D01*
X67654451Y-59842236D01*
X67713841Y-60063887D01*
X67766914Y-60192014D01*
X67801656Y-60275888D01*
X67916389Y-60474612D01*
X68056081Y-60656661D01*
X68218339Y-60818919D01*
X68400388Y-60958611D01*
X68599112Y-61073344D01*
X68713490Y-61120721D01*
X68811112Y-61161158D01*
X68921937Y-61190853D01*
X69032762Y-61220548D01*
X69260266Y-61250500D01*
X69260267Y-61250500D01*
X69489733Y-61250500D01*
X69489734Y-61250500D01*
X69717238Y-61220548D01*
X69938887Y-61161158D01*
X70150888Y-61073344D01*
X70349612Y-60958611D01*
X70531661Y-60818919D01*
X70630703Y-60719877D01*
X70767119Y-60612014D01*
X70924732Y-60538517D01*
X71095046Y-60503350D01*
X71160326Y-60500500D01*
X73758539Y-60500500D01*
X73758540Y-60500500D01*
X73758541Y-60500500D01*
X73855188Y-60481275D01*
X73951836Y-60462051D01*
X74027842Y-60430568D01*
X74133914Y-60386632D01*
X74297782Y-60277139D01*
X74297790Y-60277130D01*
X74326225Y-60253796D01*
X74329018Y-60257199D01*
X74411460Y-60192014D01*
X74569073Y-60118517D01*
X74739387Y-60083350D01*
X74804667Y-60080500D01*
X77098539Y-60080500D01*
X77098540Y-60080500D01*
X77098541Y-60080500D01*
X77195188Y-60061275D01*
X77227313Y-60054884D01*
X77227500Y-60054869D01*
X77373403Y-60040500D01*
X77580902Y-60040500D01*
X77753633Y-60060689D01*
X77917053Y-60120169D01*
X78021154Y-60183547D01*
X78213568Y-60323344D01*
X78337906Y-60386697D01*
X78424008Y-60430568D01*
X78648632Y-60503553D01*
X78881908Y-60540500D01*
X78881910Y-60540500D01*
X79118090Y-60540500D01*
X79118092Y-60540500D01*
X79351368Y-60503553D01*
X79575992Y-60430568D01*
X79786433Y-60323343D01*
X79977510Y-60184517D01*
X80144517Y-60017510D01*
X80283343Y-59826433D01*
X80390568Y-59615992D01*
X80463553Y-59391368D01*
X80500500Y-59158092D01*
X80500500Y-58921908D01*
X80463553Y-58688632D01*
X80390568Y-58464008D01*
X80332243Y-58349538D01*
X80283346Y-58253571D01*
X80251873Y-58210253D01*
X80166678Y-58058644D01*
X80118742Y-57891473D01*
X80110650Y-57717754D01*
X80142839Y-57546852D01*
X80213573Y-57387980D01*
X80251873Y-57329747D01*
X80283343Y-57286433D01*
X80390568Y-57075992D01*
X80463553Y-56851368D01*
X80500500Y-56618092D01*
X80500500Y-56381908D01*
X80463553Y-56148632D01*
X80390568Y-55924008D01*
X80390564Y-55924001D01*
X80380302Y-55899224D01*
X80332855Y-55731915D01*
X80325270Y-55558173D01*
X80357958Y-55387365D01*
X80419539Y-55250128D01*
X80418120Y-55249354D01*
X80428035Y-55231195D01*
X80429155Y-55228700D01*
X80430465Y-55226744D01*
X80443793Y-55202336D01*
X80443793Y-55202334D01*
X80443796Y-55202331D01*
X80494091Y-55067483D01*
X80496897Y-55041391D01*
X80500499Y-55007883D01*
X80500499Y-55007882D01*
X80500500Y-55007873D01*
X80500499Y-52912128D01*
X80494091Y-52852517D01*
X80443796Y-52717669D01*
X80357546Y-52602454D01*
X80242331Y-52516204D01*
X80144821Y-52479835D01*
X80107482Y-52465908D01*
X80107477Y-52465907D01*
X80047883Y-52459500D01*
X80047873Y-52459500D01*
X79224667Y-52459500D01*
X79149039Y-52450660D01*
X79073206Y-52444026D01*
X79062813Y-52440582D01*
X79051936Y-52439311D01*
X78980391Y-52413270D01*
X78908126Y-52389325D01*
X78898805Y-52383576D01*
X78888516Y-52379831D01*
X78824901Y-52337990D01*
X78760111Y-52298027D01*
X78748698Y-52287871D01*
X78743219Y-52284267D01*
X78695044Y-52240123D01*
X77919877Y-51464956D01*
X77812014Y-51328540D01*
X77738517Y-51170927D01*
X77703350Y-51000613D01*
X77700500Y-50935333D01*
X77700500Y-48480995D01*
X77720689Y-48308264D01*
X77780169Y-48144844D01*
X77875733Y-47999547D01*
X77879962Y-47994551D01*
X77894510Y-47977516D01*
X77894517Y-47977510D01*
X78033343Y-47786433D01*
X78140568Y-47575992D01*
X78213553Y-47351368D01*
X78250500Y-47118092D01*
X78250500Y-46881908D01*
X78213553Y-46648632D01*
X78140568Y-46424008D01*
X78033343Y-46213567D01*
X77894519Y-46022492D01*
X77727507Y-45855480D01*
X77536431Y-45716655D01*
X77325997Y-45609434D01*
X77325994Y-45609433D01*
X77325992Y-45609432D01*
X77101368Y-45536447D01*
X76868092Y-45499500D01*
X76631908Y-45499500D01*
X76398632Y-45536447D01*
X76398630Y-45536447D01*
X76369565Y-45541051D01*
X76369319Y-45539501D01*
X76229751Y-45556221D01*
X76056963Y-45536528D01*
X75893373Y-45477517D01*
X75747802Y-45382371D01*
X75628097Y-45256219D01*
X75540712Y-45105861D01*
X75490356Y-44939404D01*
X75479746Y-44765820D01*
X75509453Y-44594469D01*
X75577875Y-44434588D01*
X75681325Y-44294795D01*
X75697930Y-44277649D01*
X77505703Y-42469876D01*
X77642119Y-42362014D01*
X77799732Y-42288517D01*
X77970047Y-42253350D01*
X78035326Y-42250500D01*
X185464673Y-42250500D01*
X185637404Y-42270689D01*
X185800824Y-42330169D01*
X185946121Y-42425733D01*
X185994296Y-42469877D01*
X199843339Y-56318920D01*
X199934363Y-56388765D01*
X200025388Y-56458611D01*
X200124750Y-56515977D01*
X200191665Y-56554611D01*
X200224102Y-56573340D01*
X200224107Y-56573342D01*
X200224112Y-56573345D01*
X200374019Y-56635438D01*
X200436113Y-56661158D01*
X200474781Y-56671519D01*
X200657761Y-56720549D01*
X200861537Y-56747375D01*
X200861544Y-56747377D01*
X200861545Y-56747377D01*
X200885265Y-56750500D01*
X200885266Y-56750500D01*
X200885267Y-56750500D01*
X201114734Y-56750500D01*
X206750500Y-56750500D01*
X206923231Y-56770689D01*
X207086651Y-56830169D01*
X207231948Y-56925733D01*
X207351290Y-57052228D01*
X207438244Y-57202836D01*
X207488121Y-57369438D01*
X207499500Y-57499500D01*
X207499500Y-61068226D01*
X207490660Y-61143856D01*
X207484026Y-61219686D01*
X207480582Y-61230077D01*
X207479311Y-61240957D01*
X207453269Y-61312506D01*
X207429325Y-61384767D01*
X207423576Y-61394087D01*
X207419831Y-61404377D01*
X207378000Y-61467977D01*
X207338028Y-61532782D01*
X207327868Y-61544197D01*
X207324267Y-61549674D01*
X207280123Y-61597849D01*
X206637850Y-62240123D01*
X206501435Y-62347986D01*
X206343822Y-62421483D01*
X206173507Y-62456650D01*
X206108227Y-62459500D01*
X205368092Y-62459500D01*
X201381908Y-62459500D01*
X201226390Y-62484131D01*
X201148631Y-62496447D01*
X201040517Y-62531575D01*
X200924008Y-62569432D01*
X200924006Y-62569432D01*
X200924006Y-62569433D01*
X200924002Y-62569434D01*
X200713568Y-62676655D01*
X200522492Y-62815480D01*
X200355480Y-62982492D01*
X200216655Y-63173568D01*
X200109434Y-63384002D01*
X200109433Y-63384006D01*
X200057447Y-63544002D01*
X200036447Y-63608632D01*
X199999500Y-63841908D01*
X199999500Y-64078092D01*
X200036447Y-64311368D01*
X200088434Y-64471368D01*
X200103926Y-64519045D01*
X200138102Y-64689561D01*
X200132033Y-64863362D01*
X200086046Y-65031079D01*
X200002621Y-65183670D01*
X199886255Y-65312908D01*
X199743220Y-65411827D01*
X199581230Y-65475094D01*
X199409015Y-65499297D01*
X199391585Y-65499500D01*
X193285326Y-65499500D01*
X193112595Y-65479311D01*
X192949175Y-65419831D01*
X192803878Y-65324267D01*
X192755703Y-65280123D01*
X192656663Y-65181083D01*
X192656656Y-65181077D01*
X192493919Y-65056204D01*
X192474612Y-65041389D01*
X192275888Y-64926656D01*
X192227061Y-64906431D01*
X192063887Y-64838841D01*
X191842236Y-64779451D01*
X191614740Y-64749500D01*
X191614734Y-64749500D01*
X191385266Y-64749500D01*
X191385259Y-64749500D01*
X191157763Y-64779451D01*
X190936112Y-64838841D01*
X190724118Y-64926653D01*
X190724113Y-64926655D01*
X190705312Y-64937510D01*
X190543246Y-65031079D01*
X190525385Y-65041391D01*
X190343343Y-65181077D01*
X190343336Y-65181083D01*
X190181083Y-65343336D01*
X190181077Y-65343343D01*
X190041391Y-65525385D01*
X189926655Y-65724113D01*
X189926653Y-65724118D01*
X189838841Y-65936112D01*
X189779451Y-66157763D01*
X189749500Y-66385259D01*
X189749500Y-66614740D01*
X189779451Y-66842236D01*
X189838841Y-67063887D01*
X189926653Y-67275881D01*
X189926656Y-67275888D01*
X190041389Y-67474612D01*
X190181081Y-67656661D01*
X190343339Y-67818919D01*
X190525388Y-67958611D01*
X190724112Y-68073344D01*
X190837686Y-68120388D01*
X190936112Y-68161158D01*
X190999525Y-68178149D01*
X191157762Y-68220548D01*
X191385266Y-68250500D01*
X191385267Y-68250500D01*
X191614733Y-68250500D01*
X191614734Y-68250500D01*
X191842238Y-68220548D01*
X192063887Y-68161158D01*
X192275888Y-68073344D01*
X192474612Y-67958611D01*
X192656661Y-67818919D01*
X192755703Y-67719877D01*
X192892119Y-67612014D01*
X193049732Y-67538517D01*
X193220046Y-67503350D01*
X193285326Y-67500500D01*
X199500249Y-67500500D01*
X199672980Y-67520689D01*
X199836400Y-67580169D01*
X199981697Y-67675733D01*
X200099850Y-67800636D01*
X200142450Y-67857542D01*
X200142451Y-67857543D01*
X200142452Y-67857544D01*
X200142454Y-67857546D01*
X200257669Y-67943796D01*
X200388828Y-67992715D01*
X200392517Y-67994091D01*
X200392522Y-67994092D01*
X200426241Y-67997716D01*
X200452127Y-68000500D01*
X202547872Y-68000499D01*
X202607483Y-67994091D01*
X202742331Y-67943796D01*
X202857546Y-67857546D01*
X202900899Y-67799633D01*
X203020572Y-67673459D01*
X203166122Y-67578280D01*
X203329698Y-67519233D01*
X203502482Y-67499501D01*
X203675159Y-67520147D01*
X203838421Y-67580059D01*
X203983465Y-67676007D01*
X204102472Y-67802818D01*
X204189027Y-67953655D01*
X204238463Y-68120388D01*
X204249500Y-68248498D01*
X204249500Y-68525334D01*
X204229311Y-68698065D01*
X204169831Y-68861485D01*
X204074267Y-69006782D01*
X204030123Y-69054957D01*
X203045993Y-70039086D01*
X202909577Y-70146950D01*
X202751964Y-70220446D01*
X202633539Y-70249242D01*
X202631910Y-70249500D01*
X202631908Y-70249500D01*
X202514939Y-70268025D01*
X202398630Y-70286447D01*
X202252660Y-70333876D01*
X202174008Y-70359432D01*
X202174006Y-70359432D01*
X202174006Y-70359433D01*
X202174002Y-70359434D01*
X201963568Y-70466655D01*
X201772492Y-70605480D01*
X201605480Y-70772492D01*
X201466655Y-70963568D01*
X201359434Y-71174002D01*
X201359432Y-71174006D01*
X201359432Y-71174008D01*
X201286447Y-71398632D01*
X201249500Y-71631908D01*
X201249500Y-71868092D01*
X201286447Y-72101368D01*
X201359432Y-72325992D01*
X201359433Y-72325993D01*
X201359434Y-72325997D01*
X201466655Y-72536431D01*
X201605480Y-72727507D01*
X201772492Y-72894519D01*
X201963568Y-73033344D01*
X202133963Y-73120164D01*
X202174008Y-73140568D01*
X202398632Y-73213553D01*
X202631908Y-73250500D01*
X202631910Y-73250500D01*
X202868090Y-73250500D01*
X202868092Y-73250500D01*
X203101368Y-73213553D01*
X203325992Y-73140568D01*
X203536433Y-73033343D01*
X203727510Y-72894517D01*
X203894517Y-72727510D01*
X204033343Y-72536433D01*
X204140568Y-72325992D01*
X204213553Y-72101368D01*
X204250500Y-71868092D01*
X204250500Y-71868085D01*
X204250757Y-71866463D01*
X204297718Y-71699016D01*
X204382029Y-71546913D01*
X204460902Y-71454017D01*
X205887778Y-70027141D01*
X205887782Y-70027139D01*
X206027139Y-69887782D01*
X206136632Y-69723914D01*
X206140218Y-69715254D01*
X206177666Y-69670802D01*
X206210905Y-69639563D01*
X206240480Y-69604834D01*
X206274054Y-69580215D01*
X206304392Y-69551705D01*
X206343938Y-69528974D01*
X206380726Y-69502001D01*
X206419072Y-69485789D01*
X206455168Y-69465043D01*
X206498892Y-69452045D01*
X206540907Y-69434283D01*
X206581959Y-69427351D01*
X206621865Y-69415489D01*
X206667404Y-69412924D01*
X206712388Y-69405330D01*
X206753934Y-69408053D01*
X206795498Y-69405713D01*
X206840401Y-69413720D01*
X206885923Y-69416704D01*
X206925721Y-69428934D01*
X206966704Y-69436243D01*
X207008550Y-69454389D01*
X207052157Y-69467791D01*
X207088061Y-69488870D01*
X207126255Y-69505433D01*
X207162791Y-69532743D01*
X207202129Y-69555838D01*
X207232201Y-69584626D01*
X207265549Y-69609553D01*
X207294803Y-69644554D01*
X207327753Y-69676097D01*
X207350376Y-69711044D01*
X207377076Y-69742990D01*
X207397469Y-69783793D01*
X207422257Y-69822085D01*
X207436211Y-69861309D01*
X207454824Y-69898550D01*
X207465257Y-69942955D01*
X207480547Y-69985933D01*
X207485373Y-70028570D01*
X207494602Y-70067847D01*
X207494521Y-70109383D01*
X207499500Y-70153360D01*
X207499500Y-113568227D01*
X207479311Y-113740958D01*
X207419831Y-113904378D01*
X207324267Y-114049675D01*
X207280123Y-114097850D01*
X206057850Y-115320123D01*
X205921434Y-115427986D01*
X205763821Y-115501483D01*
X205593507Y-115536650D01*
X205528227Y-115539500D01*
X204249499Y-115539500D01*
X204227779Y-115536961D01*
X204205949Y-115538233D01*
X204141636Y-115526892D01*
X204076768Y-115519311D01*
X204056216Y-115511831D01*
X204034683Y-115508034D01*
X203974721Y-115482169D01*
X203913348Y-115459831D01*
X203895076Y-115447813D01*
X203874999Y-115439153D01*
X203822614Y-115400154D01*
X203768051Y-115364267D01*
X203753045Y-115348362D01*
X203735504Y-115335303D01*
X203693525Y-115285274D01*
X203648709Y-115237772D01*
X203637774Y-115218832D01*
X203623719Y-115202082D01*
X203594411Y-115143726D01*
X203561755Y-115087164D01*
X203555483Y-115066214D01*
X203545669Y-115046673D01*
X203530606Y-114983120D01*
X203511878Y-114920562D01*
X203509594Y-114894465D01*
X203505563Y-114877454D01*
X203500499Y-114790500D01*
X203500499Y-114724666D01*
X203520688Y-114551935D01*
X203580168Y-114388515D01*
X203675732Y-114243218D01*
X203719862Y-114195057D01*
X204277139Y-113637782D01*
X204277144Y-113637775D01*
X204346663Y-113533733D01*
X204370794Y-113497615D01*
X204386632Y-113473914D01*
X204462051Y-113291835D01*
X204500500Y-113098541D01*
X204500500Y-110785326D01*
X204520689Y-110612595D01*
X204580169Y-110449175D01*
X204675733Y-110303878D01*
X204719877Y-110255703D01*
X204818919Y-110156661D01*
X204958611Y-109974612D01*
X205073344Y-109775888D01*
X205161158Y-109563887D01*
X205220548Y-109342238D01*
X205250500Y-109114734D01*
X205250500Y-108885266D01*
X205220548Y-108657762D01*
X205161158Y-108436113D01*
X205140738Y-108386816D01*
X205073346Y-108224118D01*
X205073344Y-108224113D01*
X205073344Y-108224112D01*
X204958611Y-108025388D01*
X204818919Y-107843339D01*
X204656661Y-107681081D01*
X204474612Y-107541389D01*
X204275888Y-107426656D01*
X204275881Y-107426653D01*
X204063887Y-107338841D01*
X203842236Y-107279451D01*
X203614740Y-107249500D01*
X203614734Y-107249500D01*
X203385266Y-107249500D01*
X203385259Y-107249500D01*
X203157763Y-107279451D01*
X202936112Y-107338841D01*
X202724118Y-107426653D01*
X202724113Y-107426655D01*
X202602491Y-107496873D01*
X202553093Y-107525394D01*
X202525385Y-107541391D01*
X202343343Y-107681077D01*
X202343336Y-107681083D01*
X202181083Y-107843336D01*
X202181077Y-107843343D01*
X202041391Y-108025385D01*
X201926655Y-108224113D01*
X201926653Y-108224118D01*
X201838841Y-108436112D01*
X201779451Y-108657763D01*
X201749500Y-108885259D01*
X201749500Y-109114740D01*
X201779451Y-109342236D01*
X201838841Y-109563887D01*
X201926653Y-109775881D01*
X201926656Y-109775888D01*
X202041389Y-109974612D01*
X202041391Y-109974614D01*
X202181077Y-110156656D01*
X202181083Y-110156663D01*
X202280123Y-110255703D01*
X202327342Y-110315421D01*
X202376280Y-110373744D01*
X202381194Y-110383530D01*
X202387986Y-110392119D01*
X202420159Y-110461114D01*
X202454330Y-110529153D01*
X202456855Y-110539807D01*
X202461483Y-110549732D01*
X202476877Y-110624286D01*
X202494436Y-110698372D01*
X202495324Y-110713625D01*
X202496650Y-110720046D01*
X202499500Y-110785326D01*
X202499500Y-112250500D01*
X202479311Y-112423231D01*
X202419831Y-112586651D01*
X202324267Y-112731948D01*
X202197772Y-112851290D01*
X202047164Y-112938244D01*
X201880562Y-112988121D01*
X201750501Y-112999500D01*
X200952128Y-112999500D01*
X200892519Y-113005908D01*
X200757668Y-113056204D01*
X200701115Y-113098540D01*
X200642454Y-113142454D01*
X200556204Y-113257669D01*
X200543462Y-113291832D01*
X200505908Y-113392517D01*
X200505907Y-113392522D01*
X200499500Y-113452116D01*
X200499500Y-115547871D01*
X200505908Y-115607480D01*
X200556205Y-115742334D01*
X200581880Y-115789354D01*
X200578209Y-115791358D01*
X200614675Y-115854138D01*
X200664987Y-116020609D01*
X200675553Y-116194195D01*
X200645802Y-116365538D01*
X200619702Y-116439213D01*
X200609432Y-116464006D01*
X200536447Y-116688631D01*
X200530827Y-116724115D01*
X200499500Y-116921908D01*
X200499500Y-117158092D01*
X200536447Y-117391368D01*
X200609432Y-117615992D01*
X200609433Y-117615993D01*
X200609434Y-117615997D01*
X200716655Y-117826431D01*
X200855480Y-118017507D01*
X201022492Y-118184519D01*
X201213568Y-118323344D01*
X201424002Y-118430565D01*
X201424008Y-118430568D01*
X201648632Y-118503553D01*
X201881908Y-118540500D01*
X201881910Y-118540500D01*
X206578090Y-118540500D01*
X206578092Y-118540500D01*
X206811368Y-118503553D01*
X207035992Y-118430568D01*
X207246434Y-118323343D01*
X207437507Y-118184519D01*
X207437508Y-118184519D01*
X210144519Y-115477508D01*
X210144519Y-115477507D01*
X210283343Y-115286434D01*
X210390568Y-115075993D01*
X210423735Y-114973914D01*
X210463553Y-114851368D01*
X210500500Y-114618092D01*
X210500500Y-112368880D01*
X214499500Y-112368880D01*
X214499500Y-112631120D01*
X214533730Y-112891116D01*
X214533731Y-112891121D01*
X214533732Y-112891125D01*
X214601602Y-113144421D01*
X214701952Y-113386687D01*
X214701953Y-113386690D01*
X214833075Y-113613802D01*
X214992715Y-113821848D01*
X215178151Y-114007284D01*
X215386197Y-114166924D01*
X215613303Y-114298043D01*
X215613305Y-114298044D01*
X215613309Y-114298046D01*
X215613312Y-114298047D01*
X215855578Y-114398397D01*
X215855579Y-114398397D01*
X215855581Y-114398398D01*
X216108884Y-114466270D01*
X216368880Y-114500500D01*
X216631119Y-114500500D01*
X216631120Y-114500500D01*
X216891116Y-114466270D01*
X217144419Y-114398398D01*
X217386697Y-114298043D01*
X217613803Y-114166924D01*
X217821851Y-114007282D01*
X218007282Y-113821851D01*
X218166924Y-113613803D01*
X218298043Y-113386697D01*
X218398398Y-113144419D01*
X218466270Y-112891116D01*
X218500500Y-112631120D01*
X218500500Y-112368880D01*
X257499500Y-112368880D01*
X257499500Y-112631120D01*
X257533730Y-112891116D01*
X257533731Y-112891121D01*
X257533732Y-112891125D01*
X257601602Y-113144421D01*
X257701952Y-113386687D01*
X257701953Y-113386690D01*
X257833075Y-113613802D01*
X257992715Y-113821848D01*
X258178151Y-114007284D01*
X258386197Y-114166924D01*
X258613303Y-114298043D01*
X258613305Y-114298044D01*
X258613309Y-114298046D01*
X258613312Y-114298047D01*
X258855578Y-114398397D01*
X258855579Y-114398397D01*
X258855581Y-114398398D01*
X259108884Y-114466270D01*
X259368880Y-114500500D01*
X259631119Y-114500500D01*
X259631120Y-114500500D01*
X259891116Y-114466270D01*
X260144419Y-114398398D01*
X260386697Y-114298043D01*
X260613803Y-114166924D01*
X260821851Y-114007282D01*
X261007282Y-113821851D01*
X261166924Y-113613803D01*
X261298043Y-113386697D01*
X261398398Y-113144419D01*
X261466270Y-112891116D01*
X261500500Y-112631120D01*
X261500500Y-112368880D01*
X261466270Y-112108884D01*
X261398398Y-111855581D01*
X261298047Y-111613312D01*
X261298046Y-111613309D01*
X261166924Y-111386197D01*
X261007284Y-111178151D01*
X260821848Y-110992715D01*
X260613802Y-110833075D01*
X260386690Y-110701953D01*
X260386687Y-110701952D01*
X260144421Y-110601602D01*
X259891125Y-110533732D01*
X259891121Y-110533731D01*
X259891116Y-110533730D01*
X259631120Y-110499500D01*
X259368880Y-110499500D01*
X259108884Y-110533730D01*
X259108878Y-110533731D01*
X259108874Y-110533732D01*
X258855578Y-110601602D01*
X258613312Y-110701952D01*
X258613309Y-110701953D01*
X258386197Y-110833075D01*
X258178151Y-110992715D01*
X257992715Y-111178151D01*
X257833075Y-111386197D01*
X257701953Y-111613309D01*
X257701952Y-111613312D01*
X257601602Y-111855578D01*
X257533732Y-112108874D01*
X257533731Y-112108878D01*
X257533730Y-112108884D01*
X257499500Y-112368880D01*
X218500500Y-112368880D01*
X218466270Y-112108884D01*
X218398398Y-111855581D01*
X218298047Y-111613312D01*
X218298046Y-111613309D01*
X218166924Y-111386197D01*
X218007284Y-111178151D01*
X217821848Y-110992715D01*
X217613802Y-110833075D01*
X217386690Y-110701953D01*
X217386687Y-110701952D01*
X217144421Y-110601602D01*
X216891125Y-110533732D01*
X216891121Y-110533731D01*
X216891116Y-110533730D01*
X216631120Y-110499500D01*
X216368880Y-110499500D01*
X216108884Y-110533730D01*
X216108878Y-110533731D01*
X216108874Y-110533732D01*
X215855578Y-110601602D01*
X215613312Y-110701952D01*
X215613309Y-110701953D01*
X215386197Y-110833075D01*
X215178151Y-110992715D01*
X214992715Y-111178151D01*
X214833075Y-111386197D01*
X214701953Y-111613309D01*
X214701952Y-111613312D01*
X214601602Y-111855578D01*
X214533732Y-112108874D01*
X214533731Y-112108878D01*
X214533730Y-112108884D01*
X214499500Y-112368880D01*
X210500500Y-112368880D01*
X210500500Y-69368880D01*
X214499500Y-69368880D01*
X214499500Y-69631120D01*
X214533730Y-69891116D01*
X214533731Y-69891121D01*
X214533732Y-69891125D01*
X214601602Y-70144421D01*
X214701952Y-70386687D01*
X214701953Y-70386690D01*
X214833075Y-70613802D01*
X214992715Y-70821848D01*
X215178151Y-71007284D01*
X215386197Y-71166924D01*
X215613303Y-71298043D01*
X215613305Y-71298044D01*
X215613309Y-71298046D01*
X215613312Y-71298047D01*
X215855578Y-71398397D01*
X215855579Y-71398397D01*
X215855581Y-71398398D01*
X216108884Y-71466270D01*
X216368880Y-71500500D01*
X216631119Y-71500500D01*
X216631120Y-71500500D01*
X216891116Y-71466270D01*
X217144419Y-71398398D01*
X217386697Y-71298043D01*
X217613803Y-71166924D01*
X217821851Y-71007282D01*
X218007282Y-70821851D01*
X218166924Y-70613803D01*
X218298043Y-70386697D01*
X218398398Y-70144419D01*
X218466270Y-69891116D01*
X218500500Y-69631120D01*
X218500500Y-69368880D01*
X257499500Y-69368880D01*
X257499500Y-69631120D01*
X257533730Y-69891116D01*
X257533731Y-69891121D01*
X257533732Y-69891125D01*
X257601602Y-70144421D01*
X257701952Y-70386687D01*
X257701953Y-70386690D01*
X257833075Y-70613802D01*
X257992715Y-70821848D01*
X258178151Y-71007284D01*
X258386197Y-71166924D01*
X258613303Y-71298043D01*
X258613305Y-71298044D01*
X258613309Y-71298046D01*
X258613312Y-71298047D01*
X258855578Y-71398397D01*
X258855579Y-71398397D01*
X258855581Y-71398398D01*
X259108884Y-71466270D01*
X259368880Y-71500500D01*
X259631119Y-71500500D01*
X259631120Y-71500500D01*
X259891116Y-71466270D01*
X260144419Y-71398398D01*
X260386697Y-71298043D01*
X260613803Y-71166924D01*
X260821851Y-71007282D01*
X261007282Y-70821851D01*
X261166924Y-70613803D01*
X261298043Y-70386697D01*
X261398398Y-70144419D01*
X261466270Y-69891116D01*
X261500500Y-69631120D01*
X261500500Y-69368880D01*
X261466270Y-69108884D01*
X261398398Y-68855581D01*
X261398397Y-68855578D01*
X261298047Y-68613312D01*
X261298046Y-68613309D01*
X261166924Y-68386197D01*
X261007284Y-68178151D01*
X260821848Y-67992715D01*
X260613802Y-67833075D01*
X260386690Y-67701953D01*
X260386687Y-67701952D01*
X260144421Y-67601602D01*
X259891125Y-67533732D01*
X259891121Y-67533731D01*
X259891116Y-67533730D01*
X259631120Y-67499500D01*
X259368880Y-67499500D01*
X259108884Y-67533730D01*
X259108878Y-67533731D01*
X259108874Y-67533732D01*
X258855578Y-67601602D01*
X258613312Y-67701952D01*
X258613309Y-67701953D01*
X258386197Y-67833075D01*
X258178151Y-67992715D01*
X257992715Y-68178151D01*
X257833075Y-68386197D01*
X257701953Y-68613309D01*
X257701952Y-68613312D01*
X257601602Y-68855578D01*
X257533732Y-69108874D01*
X257533731Y-69108878D01*
X257533730Y-69108884D01*
X257499500Y-69368880D01*
X218500500Y-69368880D01*
X218466270Y-69108884D01*
X218398398Y-68855581D01*
X218398397Y-68855578D01*
X218298047Y-68613312D01*
X218298046Y-68613309D01*
X218166924Y-68386197D01*
X218007284Y-68178151D01*
X217821848Y-67992715D01*
X217613802Y-67833075D01*
X217386690Y-67701953D01*
X217386687Y-67701952D01*
X217144421Y-67601602D01*
X216891125Y-67533732D01*
X216891121Y-67533731D01*
X216891116Y-67533730D01*
X216631120Y-67499500D01*
X216368880Y-67499500D01*
X216108884Y-67533730D01*
X216108878Y-67533731D01*
X216108874Y-67533732D01*
X215855578Y-67601602D01*
X215613312Y-67701952D01*
X215613309Y-67701953D01*
X215386197Y-67833075D01*
X215178151Y-67992715D01*
X214992715Y-68178151D01*
X214833075Y-68386197D01*
X214701953Y-68613309D01*
X214701952Y-68613312D01*
X214601602Y-68855578D01*
X214533732Y-69108874D01*
X214533731Y-69108878D01*
X214533730Y-69108884D01*
X214499500Y-69368880D01*
X210500500Y-69368880D01*
X210500500Y-61881908D01*
X210500500Y-57098245D01*
X210520689Y-56925514D01*
X210566067Y-56799415D01*
X210563961Y-56798543D01*
X210585154Y-56747378D01*
X210661158Y-56563887D01*
X210720549Y-56342239D01*
X210750500Y-56114734D01*
X210750500Y-55885267D01*
X210748436Y-55869594D01*
X210720550Y-55657766D01*
X210661160Y-55436121D01*
X210661157Y-55436112D01*
X210654413Y-55419831D01*
X210573345Y-55224113D01*
X210458610Y-55025388D01*
X210318920Y-54843339D01*
X209156661Y-53681080D01*
X209061635Y-53608164D01*
X209061629Y-53608160D01*
X208974612Y-53541389D01*
X208775888Y-53426656D01*
X208775881Y-53426653D01*
X208563890Y-53338842D01*
X208501846Y-53322218D01*
X208342243Y-53279453D01*
X208342241Y-53279452D01*
X208333416Y-53278290D01*
X208315771Y-53275967D01*
X208315767Y-53275966D01*
X208114739Y-53249500D01*
X208114734Y-53249500D01*
X202035327Y-53249500D01*
X201862596Y-53229311D01*
X201699176Y-53169831D01*
X201553879Y-53074267D01*
X201505704Y-53030123D01*
X188294704Y-39819123D01*
X188186841Y-39682707D01*
X188113344Y-39525094D01*
X188078177Y-39354780D01*
X188083235Y-39180946D01*
X188128246Y-39012965D01*
X188210782Y-38859891D01*
X188326395Y-38729978D01*
X188468851Y-38630229D01*
X188630472Y-38566022D01*
X188802543Y-38540817D01*
X188824327Y-38540500D01*
X265210500Y-38540500D01*
X265383231Y-38560689D01*
X265546651Y-38620169D01*
X265691948Y-38715733D01*
X265811290Y-38842228D01*
X265898244Y-38992836D01*
X265948121Y-39159438D01*
X265959500Y-39289500D01*
X265959500Y-87862571D01*
X265939311Y-88035302D01*
X265879831Y-88198722D01*
X265784267Y-88344019D01*
X265657772Y-88463361D01*
X265507164Y-88550315D01*
X265340562Y-88600192D01*
X265210500Y-88611571D01*
X261460032Y-88611571D01*
X261460032Y-94497450D01*
X265210500Y-94497450D01*
X265383231Y-94517639D01*
X265546651Y-94577119D01*
X265691948Y-94672683D01*
X265811290Y-94799178D01*
X265898244Y-94949786D01*
X265948121Y-95116388D01*
X265959500Y-95246450D01*
X265959500Y-143210500D01*
X265939311Y-143383231D01*
X265879831Y-143546651D01*
X265784267Y-143691948D01*
X265657772Y-143811290D01*
X265507164Y-143898244D01*
X265340562Y-143948121D01*
X265210500Y-143959500D01*
X159289500Y-143959500D01*
X159116769Y-143939311D01*
X158953349Y-143879831D01*
X158808052Y-143784267D01*
X158688710Y-143657772D01*
X158601756Y-143507164D01*
X158551879Y-143340562D01*
X158540500Y-143210500D01*
X158540500Y-126357334D01*
X158540500Y-126357329D01*
X158508552Y-126073780D01*
X158445057Y-125795591D01*
X158350814Y-125526261D01*
X158233832Y-125283344D01*
X158227017Y-125269192D01*
X158227009Y-125269177D01*
X158227009Y-125269176D01*
X158075197Y-125027569D01*
X158075191Y-125027561D01*
X157897293Y-124804483D01*
X157695516Y-124602706D01*
X157472438Y-124424808D01*
X157472431Y-124424803D01*
X157230822Y-124272990D01*
X157230807Y-124272982D01*
X156973752Y-124149192D01*
X156973732Y-124149183D01*
X156704400Y-124054940D01*
X156704397Y-124054939D01*
X156426219Y-123991447D01*
X156265280Y-123973314D01*
X156142671Y-123959500D01*
X156142665Y-123959500D01*
X153159500Y-123959500D01*
X152986769Y-123939311D01*
X152823349Y-123879831D01*
X152678052Y-123784267D01*
X152558710Y-123657772D01*
X152471756Y-123507164D01*
X152421879Y-123340562D01*
X152410500Y-123210500D01*
X152410500Y-123069580D01*
X152410500Y-123069575D01*
X152379055Y-122790491D01*
X152362203Y-122716657D01*
X152316563Y-122516694D01*
X152316562Y-122516691D01*
X152316560Y-122516682D01*
X152261481Y-122359275D01*
X152223802Y-122251593D01*
X152101949Y-121998563D01*
X152101940Y-121998546D01*
X151952528Y-121760760D01*
X151952523Y-121760752D01*
X151777416Y-121541175D01*
X151578825Y-121342584D01*
X151359248Y-121167477D01*
X151359241Y-121167472D01*
X151359239Y-121167471D01*
X151121453Y-121018059D01*
X151121436Y-121018050D01*
X150868406Y-120896197D01*
X150653041Y-120820838D01*
X150603318Y-120803440D01*
X150603314Y-120803439D01*
X150603305Y-120803436D01*
X150329508Y-120740944D01*
X150171103Y-120723097D01*
X150050425Y-120709500D01*
X149769575Y-120709500D01*
X149657009Y-120722183D01*
X149490491Y-120740944D01*
X149216694Y-120803436D01*
X149216679Y-120803441D01*
X148951593Y-120896197D01*
X148698563Y-121018050D01*
X148698546Y-121018059D01*
X148460760Y-121167471D01*
X148460751Y-121167478D01*
X148241172Y-121342586D01*
X148042586Y-121541172D01*
X148017968Y-121572042D01*
X147890023Y-121732481D01*
X147867478Y-121760751D01*
X147867471Y-121760760D01*
X147718059Y-121998546D01*
X147718050Y-121998563D01*
X147596197Y-122251593D01*
X147503441Y-122516679D01*
X147503436Y-122516694D01*
X147440944Y-122790491D01*
X147425026Y-122931773D01*
X147409500Y-123069575D01*
X147409500Y-123069580D01*
X147409500Y-123210500D01*
X147389311Y-123383231D01*
X147329831Y-123546651D01*
X147234267Y-123691948D01*
X147107772Y-123811290D01*
X146957164Y-123898244D01*
X146790562Y-123948121D01*
X146660500Y-123959500D01*
X118159500Y-123959500D01*
X117986769Y-123939311D01*
X117823349Y-123879831D01*
X117678052Y-123784267D01*
X117558710Y-123657772D01*
X117471756Y-123507164D01*
X117421879Y-123340562D01*
X117410500Y-123210500D01*
X117410500Y-123069580D01*
X117410500Y-123069575D01*
X117379055Y-122790491D01*
X117362203Y-122716657D01*
X117316563Y-122516694D01*
X117316562Y-122516691D01*
X117316560Y-122516682D01*
X117261481Y-122359275D01*
X117223802Y-122251593D01*
X117101949Y-121998563D01*
X117101940Y-121998546D01*
X116952528Y-121760760D01*
X116952523Y-121760752D01*
X116777416Y-121541175D01*
X116578825Y-121342584D01*
X116359248Y-121167477D01*
X116359241Y-121167472D01*
X116359239Y-121167471D01*
X116121453Y-121018059D01*
X116121436Y-121018050D01*
X115868406Y-120896197D01*
X115653041Y-120820838D01*
X115603318Y-120803440D01*
X115603314Y-120803439D01*
X115603305Y-120803436D01*
X115329508Y-120740944D01*
X115171103Y-120723097D01*
X115050425Y-120709500D01*
X114769575Y-120709500D01*
X114657009Y-120722183D01*
X114490491Y-120740944D01*
X114216694Y-120803436D01*
X114216679Y-120803441D01*
X113951593Y-120896197D01*
X113698563Y-121018050D01*
X113698546Y-121018059D01*
X113460760Y-121167471D01*
X113460751Y-121167478D01*
X113241172Y-121342586D01*
X113042586Y-121541172D01*
X113017968Y-121572042D01*
X112890023Y-121732481D01*
X112867478Y-121760751D01*
X112867471Y-121760760D01*
X112718059Y-121998546D01*
X112718050Y-121998563D01*
X112596197Y-122251593D01*
X112503441Y-122516679D01*
X112503436Y-122516694D01*
X112440944Y-122790491D01*
X112425026Y-122931773D01*
X112409500Y-123069575D01*
X112409500Y-123069580D01*
X112409500Y-123210500D01*
X112389311Y-123383231D01*
X112329831Y-123546651D01*
X112234267Y-123691948D01*
X112107772Y-123811290D01*
X111957164Y-123898244D01*
X111790562Y-123948121D01*
X111660500Y-123959500D01*
X60159500Y-123959500D01*
X59986769Y-123939311D01*
X59823349Y-123879831D01*
X59678052Y-123784267D01*
X59558710Y-123657772D01*
X59471756Y-123507164D01*
X59421879Y-123340562D01*
X59410500Y-123210500D01*
X59410500Y-123069580D01*
X59410500Y-123069575D01*
X59379055Y-122790491D01*
X59362203Y-122716657D01*
X59316563Y-122516694D01*
X59316562Y-122516691D01*
X59316560Y-122516682D01*
X59261481Y-122359275D01*
X59223802Y-122251593D01*
X59101949Y-121998563D01*
X59101940Y-121998546D01*
X58952528Y-121760760D01*
X58952523Y-121760752D01*
X58777416Y-121541175D01*
X58578825Y-121342584D01*
X58359248Y-121167477D01*
X58359241Y-121167472D01*
X58359239Y-121167471D01*
X58121453Y-121018059D01*
X58121436Y-121018050D01*
X57868406Y-120896197D01*
X57653041Y-120820838D01*
X57603318Y-120803440D01*
X57603314Y-120803439D01*
X57603305Y-120803436D01*
X57329508Y-120740944D01*
X57171103Y-120723097D01*
X57050425Y-120709500D01*
X56769575Y-120709500D01*
X56657009Y-120722183D01*
X56490491Y-120740944D01*
X56216694Y-120803436D01*
X56216679Y-120803441D01*
X55951593Y-120896197D01*
X55698563Y-121018050D01*
X55698546Y-121018059D01*
X55460760Y-121167471D01*
X55460751Y-121167478D01*
X55241172Y-121342586D01*
X55042586Y-121541172D01*
X55017968Y-121572042D01*
X54890023Y-121732481D01*
X54867478Y-121760751D01*
X54867471Y-121760760D01*
X54718059Y-121998546D01*
X54718050Y-121998563D01*
X54596197Y-122251593D01*
X54503441Y-122516679D01*
X54503436Y-122516694D01*
X54440944Y-122790491D01*
X54425026Y-122931773D01*
X54409500Y-123069575D01*
X54409500Y-123069580D01*
X54409500Y-123210500D01*
X54389311Y-123383231D01*
X54329831Y-123546651D01*
X54234267Y-123691948D01*
X54107772Y-123811290D01*
X53957164Y-123898244D01*
X53790562Y-123948121D01*
X53660500Y-123959500D01*
X49642671Y-123959500D01*
X49357329Y-123959500D01*
X49242962Y-123972385D01*
X49073780Y-123991447D01*
X48795602Y-124054939D01*
X48795599Y-124054940D01*
X48526267Y-124149183D01*
X48526247Y-124149192D01*
X48269192Y-124272982D01*
X48269177Y-124272990D01*
X48027568Y-124424803D01*
X48027561Y-124424808D01*
X47804483Y-124602706D01*
X47602706Y-124804483D01*
X47424808Y-125027561D01*
X47424803Y-125027568D01*
X47272990Y-125269177D01*
X47272982Y-125269192D01*
X47149192Y-125526247D01*
X47149183Y-125526267D01*
X47054940Y-125795599D01*
X47054939Y-125795602D01*
X46991447Y-126073780D01*
X46971012Y-126255154D01*
X46959500Y-126357329D01*
X46959500Y-126357334D01*
X46959500Y-143210500D01*
X46939311Y-143383231D01*
X46879831Y-143546651D01*
X46784267Y-143691948D01*
X46657772Y-143811290D01*
X46507164Y-143898244D01*
X46340562Y-143948121D01*
X46210500Y-143959500D01*
X30289500Y-143959500D01*
X30116769Y-143939311D01*
X29953349Y-143879831D01*
X29808052Y-143784267D01*
X29688710Y-143657772D01*
X29601756Y-143507164D01*
X29551879Y-143340562D01*
X29540500Y-143210500D01*
X29540500Y-117868880D01*
X163999500Y-117868880D01*
X163999500Y-118131120D01*
X164033730Y-118391116D01*
X164033731Y-118391121D01*
X164033732Y-118391125D01*
X164101602Y-118644421D01*
X164201952Y-118886687D01*
X164201953Y-118886690D01*
X164333075Y-119113802D01*
X164492715Y-119321848D01*
X164678151Y-119507284D01*
X164886197Y-119666924D01*
X165113303Y-119798043D01*
X165113305Y-119798044D01*
X165113309Y-119798046D01*
X165113312Y-119798047D01*
X165355578Y-119898397D01*
X165355579Y-119898397D01*
X165355581Y-119898398D01*
X165608884Y-119966270D01*
X165868880Y-120000500D01*
X166131119Y-120000500D01*
X166131120Y-120000500D01*
X166391116Y-119966270D01*
X166644419Y-119898398D01*
X166886697Y-119798043D01*
X167113803Y-119666924D01*
X167321851Y-119507282D01*
X167507282Y-119321851D01*
X167655780Y-119128325D01*
X167776948Y-119003581D01*
X167923620Y-118910141D01*
X168087887Y-118853044D01*
X168260894Y-118835369D01*
X168433313Y-118858069D01*
X168595850Y-118919919D01*
X168739742Y-119017586D01*
X168844221Y-119128327D01*
X168992715Y-119321848D01*
X169178151Y-119507284D01*
X169386197Y-119666924D01*
X169613303Y-119798043D01*
X169613305Y-119798044D01*
X169613309Y-119798046D01*
X169613312Y-119798047D01*
X169855578Y-119898397D01*
X169855579Y-119898397D01*
X169855581Y-119898398D01*
X170108884Y-119966270D01*
X170368880Y-120000500D01*
X170631119Y-120000500D01*
X170631120Y-120000500D01*
X170891116Y-119966270D01*
X171144419Y-119898398D01*
X171386697Y-119798043D01*
X171613803Y-119666924D01*
X171821851Y-119507282D01*
X172007282Y-119321851D01*
X172166924Y-119113803D01*
X172298043Y-118886697D01*
X172398398Y-118644419D01*
X172466270Y-118391116D01*
X172500500Y-118131120D01*
X172500500Y-117868880D01*
X172466270Y-117608884D01*
X172398398Y-117355581D01*
X172398394Y-117355573D01*
X172396559Y-117348722D01*
X172371354Y-117176651D01*
X172386510Y-117003405D01*
X172441212Y-116838325D01*
X172532508Y-116690309D01*
X172655479Y-116567338D01*
X172803494Y-116476040D01*
X172968574Y-116421338D01*
X173141819Y-116406181D01*
X173313890Y-116431385D01*
X173475511Y-116495592D01*
X173617967Y-116595341D01*
X173649660Y-116625241D01*
X175030123Y-118005704D01*
X175137986Y-118142120D01*
X175211483Y-118299733D01*
X175246650Y-118470047D01*
X175249500Y-118535327D01*
X175249500Y-120614740D01*
X175274344Y-120803440D01*
X175279452Y-120842238D01*
X175327750Y-121022492D01*
X175345188Y-121087570D01*
X175342552Y-121088276D01*
X175371156Y-121221889D01*
X175374500Y-121292590D01*
X175374500Y-121672870D01*
X175380908Y-121732481D01*
X175431204Y-121867331D01*
X175517454Y-121982546D01*
X175632669Y-122068796D01*
X175767517Y-122119091D01*
X175767521Y-122119092D01*
X175804249Y-122123040D01*
X175827127Y-122125500D01*
X176207406Y-122125499D01*
X176380135Y-122145688D01*
X176412388Y-122154961D01*
X176412429Y-122154811D01*
X176436106Y-122161155D01*
X176436113Y-122161158D01*
X176657762Y-122220548D01*
X176657764Y-122220548D01*
X176657767Y-122220549D01*
X176842799Y-122244909D01*
X176885266Y-122250500D01*
X176885267Y-122250500D01*
X177114733Y-122250500D01*
X177114734Y-122250500D01*
X177228486Y-122235524D01*
X177342232Y-122220549D01*
X177342233Y-122220548D01*
X177342238Y-122220548D01*
X177563887Y-122161158D01*
X177563893Y-122161155D01*
X177587571Y-122154811D01*
X177588277Y-122157446D01*
X177721891Y-122128843D01*
X177792594Y-122125499D01*
X178172872Y-122125499D01*
X178232483Y-122119091D01*
X178367331Y-122068796D01*
X178482546Y-121982546D01*
X178568796Y-121867331D01*
X178619091Y-121732483D01*
X178620543Y-121718985D01*
X178625499Y-121672883D01*
X178625499Y-121672882D01*
X178625500Y-121672873D01*
X178625499Y-121292592D01*
X178645688Y-121119864D01*
X178654961Y-121087613D01*
X178654811Y-121087573D01*
X178661158Y-121063887D01*
X178720548Y-120842238D01*
X178750500Y-120614734D01*
X178750500Y-117385266D01*
X178721754Y-117166924D01*
X178720548Y-117157761D01*
X178661158Y-116936113D01*
X178573344Y-116724112D01*
X178458611Y-116525388D01*
X178342830Y-116374500D01*
X178318920Y-116343339D01*
X170656426Y-108680845D01*
X170548563Y-108544429D01*
X170475066Y-108386816D01*
X170462571Y-108345078D01*
X170412380Y-108157764D01*
X170398398Y-108105581D01*
X170328202Y-107936113D01*
X170298047Y-107863312D01*
X170298046Y-107863309D01*
X170286516Y-107843339D01*
X170166924Y-107636197D01*
X170094175Y-107541389D01*
X170007284Y-107428151D01*
X169821848Y-107242715D01*
X169613802Y-107083075D01*
X169386690Y-106951953D01*
X169386687Y-106951952D01*
X169144421Y-106851602D01*
X168891125Y-106783732D01*
X168891121Y-106783731D01*
X168891116Y-106783730D01*
X168631120Y-106749500D01*
X168368880Y-106749500D01*
X168368868Y-106749500D01*
X168339560Y-106753359D01*
X168165671Y-106755887D01*
X168144045Y-106753359D01*
X168114746Y-106749502D01*
X168114737Y-106749501D01*
X168114734Y-106749501D01*
X167885266Y-106749501D01*
X167885262Y-106749501D01*
X167885253Y-106749502D01*
X167657764Y-106779451D01*
X167657757Y-106779452D01*
X167436109Y-106838843D01*
X167224118Y-106926653D01*
X167224103Y-106926660D01*
X167025394Y-107041385D01*
X166843334Y-107181084D01*
X166681084Y-107343334D01*
X166541385Y-107525394D01*
X166426660Y-107724103D01*
X166426653Y-107724118D01*
X166338843Y-107936109D01*
X166279452Y-108157757D01*
X166279451Y-108157764D01*
X166249502Y-108385253D01*
X166249501Y-108385269D01*
X166249501Y-108614730D01*
X166249502Y-108614746D01*
X166279451Y-108842235D01*
X166279452Y-108842242D01*
X166338843Y-109063890D01*
X166426653Y-109275881D01*
X166426660Y-109275896D01*
X166541385Y-109474605D01*
X166541388Y-109474610D01*
X166541390Y-109474612D01*
X166681080Y-109656661D01*
X166757746Y-109733327D01*
X166833076Y-109863803D01*
X166992718Y-110071851D01*
X167178149Y-110257282D01*
X167386197Y-110416924D01*
X167516672Y-110492253D01*
X171874758Y-114850339D01*
X171982621Y-114986755D01*
X172056118Y-115144368D01*
X172091285Y-115314682D01*
X172086227Y-115488516D01*
X172041216Y-115656497D01*
X171958680Y-115809571D01*
X171843067Y-115939484D01*
X171700611Y-116039233D01*
X171538990Y-116103440D01*
X171366919Y-116128645D01*
X171193674Y-116113488D01*
X171151279Y-116103440D01*
X170891126Y-116033732D01*
X170891121Y-116033731D01*
X170891116Y-116033730D01*
X170631120Y-115999500D01*
X170368880Y-115999500D01*
X170108884Y-116033730D01*
X170108878Y-116033731D01*
X170108874Y-116033732D01*
X169855578Y-116101602D01*
X169613312Y-116201952D01*
X169613309Y-116201953D01*
X169386197Y-116333075D01*
X169178151Y-116492715D01*
X168992714Y-116678152D01*
X168844220Y-116871673D01*
X168723050Y-116996419D01*
X168576378Y-117089859D01*
X168412111Y-117146955D01*
X168239104Y-117164630D01*
X168066685Y-117141930D01*
X167904148Y-117080079D01*
X167760257Y-116982412D01*
X167655780Y-116871673D01*
X167507285Y-116678152D01*
X167321848Y-116492715D01*
X167113802Y-116333075D01*
X166886690Y-116201953D01*
X166886687Y-116201952D01*
X166644421Y-116101602D01*
X166391125Y-116033732D01*
X166391121Y-116033731D01*
X166391116Y-116033730D01*
X166131120Y-115999500D01*
X165868880Y-115999500D01*
X165608884Y-116033730D01*
X165608878Y-116033731D01*
X165608874Y-116033732D01*
X165355578Y-116101602D01*
X165113312Y-116201952D01*
X165113309Y-116201953D01*
X164886197Y-116333075D01*
X164678151Y-116492715D01*
X164492715Y-116678151D01*
X164333075Y-116886197D01*
X164201953Y-117113309D01*
X164201952Y-117113312D01*
X164101602Y-117355578D01*
X164033732Y-117608874D01*
X164033731Y-117608878D01*
X164033730Y-117608884D01*
X163999500Y-117868880D01*
X29540500Y-117868880D01*
X29540500Y-115368880D01*
X53999500Y-115368880D01*
X53999500Y-115631120D01*
X54033730Y-115891116D01*
X54033731Y-115891121D01*
X54033732Y-115891125D01*
X54101602Y-116144421D01*
X54201952Y-116386687D01*
X54201953Y-116386690D01*
X54333075Y-116613802D01*
X54492715Y-116821848D01*
X54678151Y-117007284D01*
X54816317Y-117113303D01*
X54886197Y-117166924D01*
X55113303Y-117298043D01*
X55113305Y-117298044D01*
X55113309Y-117298046D01*
X55113312Y-117298047D01*
X55355578Y-117398397D01*
X55355579Y-117398397D01*
X55355581Y-117398398D01*
X55608884Y-117466270D01*
X55868880Y-117500500D01*
X56131119Y-117500500D01*
X56131120Y-117500500D01*
X56391116Y-117466270D01*
X56644419Y-117398398D01*
X56886697Y-117298043D01*
X57113803Y-117166924D01*
X57321851Y-117007282D01*
X57507282Y-116821851D01*
X57666924Y-116613803D01*
X57798043Y-116386697D01*
X57898398Y-116144419D01*
X57966270Y-115891116D01*
X58000500Y-115631120D01*
X58000500Y-115368880D01*
X106999500Y-115368880D01*
X106999500Y-115631120D01*
X107033730Y-115891116D01*
X107033731Y-115891121D01*
X107033732Y-115891125D01*
X107101602Y-116144421D01*
X107201952Y-116386687D01*
X107201953Y-116386690D01*
X107333075Y-116613802D01*
X107492715Y-116821848D01*
X107678151Y-117007284D01*
X107816317Y-117113303D01*
X107886197Y-117166924D01*
X108113303Y-117298043D01*
X108113305Y-117298044D01*
X108113309Y-117298046D01*
X108113312Y-117298047D01*
X108355578Y-117398397D01*
X108355579Y-117398397D01*
X108355581Y-117398398D01*
X108608884Y-117466270D01*
X108868880Y-117500500D01*
X109131119Y-117500500D01*
X109131120Y-117500500D01*
X109391116Y-117466270D01*
X109644419Y-117398398D01*
X109886697Y-117298043D01*
X110113803Y-117166924D01*
X110321851Y-117007282D01*
X110507282Y-116821851D01*
X110666924Y-116613803D01*
X110798043Y-116386697D01*
X110898398Y-116144419D01*
X110966270Y-115891116D01*
X111000500Y-115631120D01*
X111000500Y-115368880D01*
X110966270Y-115108884D01*
X110898398Y-114855581D01*
X110800027Y-114618092D01*
X110798047Y-114613312D01*
X110798046Y-114613309D01*
X110732916Y-114500500D01*
X110666924Y-114386197D01*
X110507282Y-114178149D01*
X110321851Y-113992718D01*
X110321848Y-113992715D01*
X110113802Y-113833075D01*
X109886690Y-113701953D01*
X109886687Y-113701952D01*
X109644421Y-113601602D01*
X109391125Y-113533732D01*
X109391121Y-113533731D01*
X109391116Y-113533730D01*
X109131120Y-113499500D01*
X108868880Y-113499500D01*
X108608884Y-113533730D01*
X108608878Y-113533731D01*
X108608874Y-113533732D01*
X108355578Y-113601602D01*
X108113312Y-113701952D01*
X108113309Y-113701953D01*
X107886197Y-113833075D01*
X107678151Y-113992715D01*
X107492715Y-114178151D01*
X107333075Y-114386197D01*
X107201953Y-114613309D01*
X107201952Y-114613312D01*
X107101602Y-114855578D01*
X107033732Y-115108874D01*
X107033731Y-115108878D01*
X107033730Y-115108884D01*
X106999500Y-115368880D01*
X58000500Y-115368880D01*
X57966270Y-115108884D01*
X57898398Y-114855581D01*
X57800027Y-114618092D01*
X57798047Y-114613312D01*
X57798046Y-114613309D01*
X57732916Y-114500500D01*
X57666924Y-114386197D01*
X57507282Y-114178149D01*
X57321851Y-113992718D01*
X57321848Y-113992715D01*
X57113802Y-113833075D01*
X56886690Y-113701953D01*
X56886687Y-113701952D01*
X56644421Y-113601602D01*
X56391125Y-113533732D01*
X56391121Y-113533731D01*
X56391116Y-113533730D01*
X56131120Y-113499500D01*
X55868880Y-113499500D01*
X55608884Y-113533730D01*
X55608878Y-113533731D01*
X55608874Y-113533732D01*
X55355578Y-113601602D01*
X55113312Y-113701952D01*
X55113309Y-113701953D01*
X54886197Y-113833075D01*
X54678151Y-113992715D01*
X54492715Y-114178151D01*
X54333075Y-114386197D01*
X54201953Y-114613309D01*
X54201952Y-114613312D01*
X54101602Y-114855578D01*
X54033732Y-115108874D01*
X54033731Y-115108878D01*
X54033730Y-115108884D01*
X53999500Y-115368880D01*
X29540500Y-115368880D01*
X29540500Y-107368880D01*
X51999500Y-107368880D01*
X51999500Y-107631120D01*
X52033730Y-107891116D01*
X52033731Y-107891121D01*
X52033732Y-107891125D01*
X52101602Y-108144421D01*
X52201952Y-108386687D01*
X52201953Y-108386690D01*
X52333075Y-108613802D01*
X52492715Y-108821848D01*
X52678151Y-109007284D01*
X52818182Y-109114734D01*
X52886197Y-109166924D01*
X53113303Y-109298043D01*
X53113305Y-109298044D01*
X53113309Y-109298046D01*
X53113312Y-109298047D01*
X53355578Y-109398397D01*
X53355579Y-109398397D01*
X53355581Y-109398398D01*
X53608884Y-109466270D01*
X53868880Y-109500500D01*
X54131119Y-109500500D01*
X54131120Y-109500500D01*
X54391116Y-109466270D01*
X54644419Y-109398398D01*
X54886697Y-109298043D01*
X55113803Y-109166924D01*
X55321851Y-109007282D01*
X55507282Y-108821851D01*
X55666924Y-108613803D01*
X55798043Y-108386697D01*
X55898398Y-108144419D01*
X55966270Y-107891116D01*
X56000500Y-107631120D01*
X56000500Y-107368880D01*
X108999500Y-107368880D01*
X108999500Y-107631120D01*
X109033730Y-107891116D01*
X109033731Y-107891121D01*
X109033732Y-107891125D01*
X109101602Y-108144421D01*
X109201952Y-108386687D01*
X109201953Y-108386690D01*
X109333075Y-108613802D01*
X109492715Y-108821848D01*
X109678151Y-109007284D01*
X109818182Y-109114734D01*
X109886197Y-109166924D01*
X110113303Y-109298043D01*
X110113305Y-109298044D01*
X110113309Y-109298046D01*
X110113312Y-109298047D01*
X110355578Y-109398397D01*
X110355579Y-109398397D01*
X110355581Y-109398398D01*
X110608884Y-109466270D01*
X110868880Y-109500500D01*
X111131119Y-109500500D01*
X111131120Y-109500500D01*
X111391116Y-109466270D01*
X111644419Y-109398398D01*
X111886697Y-109298043D01*
X112113803Y-109166924D01*
X112128981Y-109155277D01*
X112278307Y-109066144D01*
X112444165Y-109013849D01*
X112584942Y-109000500D01*
X129618090Y-109000500D01*
X129618092Y-109000500D01*
X129851368Y-108963553D01*
X130075992Y-108890568D01*
X130286434Y-108783343D01*
X130477507Y-108644519D01*
X130477508Y-108644519D01*
X133902150Y-105219877D01*
X134038566Y-105112014D01*
X134196179Y-105038517D01*
X134366493Y-105003350D01*
X134431773Y-105000500D01*
X172750500Y-105000500D01*
X172923231Y-105020689D01*
X173086651Y-105080169D01*
X173231948Y-105175733D01*
X173351290Y-105302228D01*
X173438244Y-105452836D01*
X173488121Y-105619438D01*
X173499500Y-105749500D01*
X173499500Y-106881908D01*
X173499500Y-107118092D01*
X173536447Y-107351368D01*
X173609432Y-107575992D01*
X173716657Y-107786434D01*
X173716659Y-107786437D01*
X173716661Y-107786440D01*
X173855480Y-107977507D01*
X188280123Y-122402150D01*
X188387986Y-122538566D01*
X188461483Y-122696179D01*
X188496650Y-122866493D01*
X188499500Y-122931773D01*
X188499500Y-135102721D01*
X188479311Y-135275452D01*
X188419831Y-135438872D01*
X188324267Y-135584169D01*
X188197772Y-135703511D01*
X188047164Y-135790465D01*
X188012263Y-135804490D01*
X188009665Y-135805459D01*
X188007668Y-135806204D01*
X187929985Y-135864358D01*
X187892454Y-135892454D01*
X187806204Y-136007669D01*
X187786821Y-136059636D01*
X187755908Y-136142517D01*
X187755907Y-136142522D01*
X187749500Y-136202116D01*
X187749500Y-139797871D01*
X187755908Y-139857480D01*
X187755908Y-139857482D01*
X187755909Y-139857483D01*
X187806204Y-139992331D01*
X187892454Y-140107546D01*
X188007669Y-140193796D01*
X188142517Y-140244091D01*
X188142522Y-140244092D01*
X188176241Y-140247716D01*
X188202127Y-140250500D01*
X191797872Y-140250499D01*
X191857483Y-140244091D01*
X191992331Y-140193796D01*
X192107546Y-140107546D01*
X192193796Y-139992331D01*
X192193797Y-139992327D01*
X192218330Y-139959556D01*
X192289811Y-139858605D01*
X192420331Y-139743677D01*
X192573836Y-139661947D01*
X192742052Y-139617821D01*
X192915910Y-139613677D01*
X193086037Y-139649739D01*
X193243261Y-139724063D01*
X193302660Y-139765244D01*
X193446006Y-139875238D01*
X193592050Y-139959556D01*
X193701493Y-140022743D01*
X193701504Y-140022748D01*
X193974045Y-140135638D01*
X193974054Y-140135641D01*
X194104586Y-140170616D01*
X194259007Y-140211993D01*
X194475485Y-140240493D01*
X194551485Y-140250499D01*
X194551490Y-140250499D01*
X194551494Y-140250500D01*
X194551495Y-140250500D01*
X194846505Y-140250500D01*
X194846506Y-140250500D01*
X195138993Y-140211993D01*
X195423952Y-140135639D01*
X195696507Y-140022743D01*
X195951994Y-139875238D01*
X196186042Y-139695646D01*
X196394646Y-139487042D01*
X196454283Y-139409321D01*
X196575446Y-139284581D01*
X196722118Y-139191141D01*
X196886385Y-139134044D01*
X197059391Y-139116368D01*
X197231811Y-139139067D01*
X197394348Y-139200917D01*
X197538240Y-139298583D01*
X197642716Y-139409320D01*
X197702354Y-139487042D01*
X197910958Y-139695646D01*
X198145006Y-139875238D01*
X198291050Y-139959556D01*
X198400493Y-140022743D01*
X198400504Y-140022748D01*
X198673045Y-140135638D01*
X198673054Y-140135641D01*
X198803586Y-140170616D01*
X198958007Y-140211993D01*
X199174485Y-140240493D01*
X199250485Y-140250499D01*
X199250490Y-140250499D01*
X199250494Y-140250500D01*
X199250495Y-140250500D01*
X199545505Y-140250500D01*
X199545506Y-140250500D01*
X199837993Y-140211993D01*
X200122952Y-140135639D01*
X200395507Y-140022743D01*
X200650994Y-139875238D01*
X200885042Y-139695646D01*
X201093646Y-139487042D01*
X201273238Y-139252994D01*
X201420743Y-138997507D01*
X201533639Y-138724952D01*
X201609993Y-138439993D01*
X201648500Y-138147506D01*
X201648500Y-137852494D01*
X201609993Y-137560007D01*
X201533639Y-137275048D01*
X201420743Y-137002493D01*
X201273238Y-136747006D01*
X201093646Y-136512958D01*
X200885042Y-136304354D01*
X200650994Y-136124762D01*
X200503488Y-136039599D01*
X200395506Y-135977256D01*
X200395495Y-135977251D01*
X200122954Y-135864361D01*
X200122945Y-135864358D01*
X199837994Y-135788007D01*
X199837988Y-135788006D01*
X199545514Y-135749500D01*
X199545506Y-135749500D01*
X199250494Y-135749500D01*
X199250485Y-135749500D01*
X198958011Y-135788006D01*
X198958005Y-135788007D01*
X198673054Y-135864358D01*
X198673045Y-135864361D01*
X198400504Y-135977251D01*
X198400493Y-135977256D01*
X198145006Y-136124762D01*
X197910954Y-136304357D01*
X197728123Y-136487189D01*
X197591707Y-136595052D01*
X197434094Y-136668549D01*
X197263780Y-136703716D01*
X197089946Y-136698658D01*
X196921965Y-136653647D01*
X196768891Y-136571111D01*
X196638978Y-136455498D01*
X196539229Y-136313042D01*
X196475022Y-136151421D01*
X196449817Y-135979350D01*
X196449500Y-135957566D01*
X196449500Y-123881908D01*
X197999500Y-123881908D01*
X197999500Y-124118092D01*
X198036447Y-124351368D01*
X198109432Y-124575992D01*
X198109433Y-124575993D01*
X198109434Y-124575997D01*
X198216655Y-124786431D01*
X198355480Y-124977507D01*
X198522492Y-125144519D01*
X198713568Y-125283344D01*
X198924002Y-125390565D01*
X198924008Y-125390568D01*
X199148632Y-125463553D01*
X199381908Y-125500500D01*
X199381910Y-125500500D01*
X199618090Y-125500500D01*
X199618092Y-125500500D01*
X199851368Y-125463553D01*
X200075992Y-125390568D01*
X200286433Y-125283343D01*
X200477510Y-125144517D01*
X200644517Y-124977510D01*
X200783343Y-124786433D01*
X200890568Y-124575992D01*
X200963553Y-124351368D01*
X201000500Y-124118092D01*
X201000500Y-123881908D01*
X200963553Y-123648632D01*
X200890568Y-123424008D01*
X200783343Y-123213567D01*
X200678730Y-123069580D01*
X200644519Y-123022492D01*
X200477507Y-122855480D01*
X200286431Y-122716655D01*
X200075997Y-122609434D01*
X200075994Y-122609433D01*
X200075992Y-122609432D01*
X199851368Y-122536447D01*
X199618092Y-122499500D01*
X199381908Y-122499500D01*
X199273349Y-122516694D01*
X199148631Y-122536447D01*
X199040517Y-122571575D01*
X198924008Y-122609432D01*
X198924006Y-122609432D01*
X198924006Y-122609433D01*
X198924002Y-122609434D01*
X198713568Y-122716655D01*
X198522492Y-122855480D01*
X198355480Y-123022492D01*
X198216655Y-123213568D01*
X198109434Y-123424002D01*
X198109432Y-123424006D01*
X198109432Y-123424008D01*
X198036447Y-123648632D01*
X197999500Y-123881908D01*
X196449500Y-123881908D01*
X196449500Y-121084267D01*
X196449500Y-121084266D01*
X196419548Y-120856762D01*
X196419205Y-120855483D01*
X196360158Y-120635113D01*
X196296296Y-120480937D01*
X196287230Y-120453064D01*
X196275845Y-120396350D01*
X196260066Y-120340712D01*
X196257000Y-120302477D01*
X196253002Y-120282558D01*
X196253726Y-120261632D01*
X196250500Y-120221390D01*
X196250500Y-117385265D01*
X196250499Y-117385264D01*
X196221754Y-117166924D01*
X196221753Y-117166921D01*
X196221752Y-117166904D01*
X196220549Y-117157765D01*
X196220547Y-117157757D01*
X196180228Y-117007284D01*
X196161158Y-116936113D01*
X196155274Y-116921908D01*
X196073345Y-116724115D01*
X196073338Y-116724100D01*
X195958608Y-116525383D01*
X195958608Y-116525382D01*
X195818924Y-116343345D01*
X195818916Y-116343336D01*
X183469877Y-103994296D01*
X183362014Y-103857880D01*
X183288517Y-103700267D01*
X183253350Y-103529953D01*
X183250500Y-103464673D01*
X183250500Y-86135267D01*
X183250500Y-86135266D01*
X183220548Y-85907762D01*
X183214520Y-85885266D01*
X183161158Y-85686113D01*
X183073344Y-85474112D01*
X183012588Y-85368880D01*
X182958611Y-85275388D01*
X182888325Y-85183790D01*
X182888325Y-85183789D01*
X182888320Y-85183784D01*
X182818919Y-85093338D01*
X182406661Y-84681080D01*
X182315636Y-84611235D01*
X182315627Y-84611228D01*
X182224616Y-84541391D01*
X182042140Y-84436039D01*
X182025888Y-84426656D01*
X181928212Y-84386197D01*
X181813895Y-84338845D01*
X181813892Y-84338844D01*
X181813887Y-84338842D01*
X181592239Y-84279452D01*
X181565771Y-84275967D01*
X181565767Y-84275966D01*
X181364739Y-84249500D01*
X181364734Y-84249500D01*
X172135266Y-84249500D01*
X172135260Y-84249500D01*
X171994933Y-84267975D01*
X171934228Y-84275967D01*
X171934222Y-84275967D01*
X171907764Y-84279451D01*
X171907753Y-84279453D01*
X171686109Y-84338843D01*
X171451459Y-84436039D01*
X171450538Y-84433816D01*
X171319188Y-84480546D01*
X171151757Y-84499500D01*
X169650460Y-84499500D01*
X169477729Y-84479311D01*
X169363835Y-84442487D01*
X169144419Y-84351602D01*
X169096798Y-84338842D01*
X168891125Y-84283732D01*
X168891121Y-84283731D01*
X168891116Y-84283730D01*
X168631120Y-84249500D01*
X168368880Y-84249500D01*
X168108884Y-84283730D01*
X168108878Y-84283731D01*
X168108874Y-84283732D01*
X167855578Y-84351602D01*
X167613312Y-84451952D01*
X167613309Y-84451953D01*
X167386197Y-84583075D01*
X167178151Y-84742715D01*
X166992715Y-84928151D01*
X166833075Y-85136197D01*
X166701953Y-85363309D01*
X166701952Y-85363312D01*
X166601602Y-85605578D01*
X166533732Y-85858874D01*
X166533731Y-85858878D01*
X166533730Y-85858884D01*
X166499500Y-86118880D01*
X166499500Y-86381120D01*
X166533730Y-86641116D01*
X166533731Y-86641121D01*
X166533732Y-86641125D01*
X166601602Y-86894421D01*
X166701952Y-87136687D01*
X166701953Y-87136690D01*
X166833075Y-87363802D01*
X166992715Y-87571848D01*
X167178151Y-87757284D01*
X167315363Y-87862571D01*
X167386197Y-87916924D01*
X167613303Y-88048043D01*
X167613305Y-88048044D01*
X167613309Y-88048046D01*
X167613312Y-88048047D01*
X167855578Y-88148397D01*
X167855579Y-88148397D01*
X167855581Y-88148398D01*
X168108884Y-88216270D01*
X168368880Y-88250500D01*
X168631119Y-88250500D01*
X168631120Y-88250500D01*
X168891116Y-88216270D01*
X169144419Y-88148398D01*
X169363833Y-88057513D01*
X169531137Y-88010066D01*
X169650460Y-88000500D01*
X172114727Y-88000500D01*
X172114734Y-88000500D01*
X172315771Y-87974032D01*
X172342239Y-87970548D01*
X172563887Y-87911158D01*
X172775888Y-87823344D01*
X172804244Y-87806972D01*
X172871842Y-87785537D01*
X172901936Y-87779726D01*
X172930812Y-87769454D01*
X172989636Y-87762794D01*
X173042596Y-87752570D01*
X173069843Y-87753714D01*
X173098243Y-87750500D01*
X179000500Y-87750500D01*
X179173231Y-87770689D01*
X179336651Y-87830169D01*
X179481948Y-87925733D01*
X179601290Y-88052228D01*
X179688244Y-88202836D01*
X179738121Y-88369438D01*
X179749500Y-88499500D01*
X179749500Y-104614740D01*
X179779451Y-104842236D01*
X179838841Y-105063887D01*
X179885170Y-105175733D01*
X179926656Y-105275888D01*
X180041389Y-105474612D01*
X180041391Y-105474615D01*
X180041392Y-105474616D01*
X180086748Y-105533726D01*
X180086752Y-105533730D01*
X180181080Y-105656661D01*
X186380000Y-111855581D01*
X192530123Y-118005703D01*
X192637986Y-118142119D01*
X192711483Y-118299732D01*
X192746650Y-118470046D01*
X192749500Y-118535326D01*
X192749500Y-120971252D01*
X192729311Y-121143983D01*
X192669831Y-121307403D01*
X192574267Y-121452700D01*
X192447772Y-121572042D01*
X192297164Y-121658996D01*
X192130562Y-121708873D01*
X191956950Y-121718985D01*
X191785684Y-121688786D01*
X191626000Y-121619905D01*
X191486505Y-121516055D01*
X191374720Y-121382834D01*
X191333137Y-121311292D01*
X191315098Y-121275888D01*
X191283343Y-121213566D01*
X191249853Y-121167471D01*
X191144519Y-121022492D01*
X176719877Y-106597850D01*
X176612014Y-106461434D01*
X176538517Y-106303821D01*
X176503350Y-106133507D01*
X176500500Y-106068227D01*
X176500500Y-103381910D01*
X176500500Y-103381908D01*
X176463553Y-103148632D01*
X176390568Y-102924008D01*
X176283343Y-102713567D01*
X176144519Y-102522492D01*
X175977507Y-102355480D01*
X175786431Y-102216655D01*
X175575997Y-102109434D01*
X175575994Y-102109433D01*
X175575992Y-102109432D01*
X175351368Y-102036447D01*
X175118092Y-101999500D01*
X133381908Y-101999500D01*
X133226390Y-102024131D01*
X133148631Y-102036447D01*
X133036320Y-102072939D01*
X132924008Y-102109432D01*
X132713570Y-102216655D01*
X132713566Y-102216657D01*
X132713559Y-102216661D01*
X132522492Y-102355480D01*
X132522492Y-102355481D01*
X129097850Y-105780123D01*
X128961434Y-105887986D01*
X128803821Y-105961483D01*
X128633507Y-105996650D01*
X128568227Y-105999500D01*
X112584942Y-105999500D01*
X112412211Y-105979311D01*
X112248791Y-105919831D01*
X112128980Y-105844722D01*
X112113801Y-105833074D01*
X111886690Y-105701953D01*
X111886687Y-105701952D01*
X111644421Y-105601602D01*
X111391125Y-105533732D01*
X111391121Y-105533731D01*
X111391116Y-105533730D01*
X111131120Y-105499500D01*
X110868880Y-105499500D01*
X110608884Y-105533730D01*
X110608878Y-105533731D01*
X110608874Y-105533732D01*
X110355578Y-105601602D01*
X110113312Y-105701952D01*
X110113309Y-105701953D01*
X109886197Y-105833075D01*
X109678151Y-105992715D01*
X109492715Y-106178151D01*
X109333075Y-106386197D01*
X109201953Y-106613309D01*
X109201952Y-106613312D01*
X109101602Y-106855578D01*
X109033732Y-107108874D01*
X109033731Y-107108878D01*
X109033730Y-107108884D01*
X108999500Y-107368880D01*
X56000500Y-107368880D01*
X55966270Y-107108884D01*
X55898398Y-106855581D01*
X55891465Y-106838843D01*
X55798047Y-106613312D01*
X55798046Y-106613309D01*
X55666924Y-106386197D01*
X55507284Y-106178151D01*
X55321848Y-105992715D01*
X55113802Y-105833075D01*
X54886690Y-105701953D01*
X54886687Y-105701952D01*
X54644421Y-105601602D01*
X54391125Y-105533732D01*
X54391121Y-105533731D01*
X54391116Y-105533730D01*
X54131120Y-105499500D01*
X53868880Y-105499500D01*
X53608884Y-105533730D01*
X53608878Y-105533731D01*
X53608874Y-105533732D01*
X53355578Y-105601602D01*
X53113312Y-105701952D01*
X53113309Y-105701953D01*
X52886197Y-105833075D01*
X52678151Y-105992715D01*
X52492715Y-106178151D01*
X52333075Y-106386197D01*
X52201953Y-106613309D01*
X52201952Y-106613312D01*
X52101602Y-106855578D01*
X52033732Y-107108874D01*
X52033731Y-107108878D01*
X52033730Y-107108884D01*
X51999500Y-107368880D01*
X29540500Y-107368880D01*
X29540500Y-98252116D01*
X38799500Y-98252116D01*
X38799500Y-100747871D01*
X38805908Y-100807480D01*
X38805908Y-100807482D01*
X38805909Y-100807483D01*
X38856204Y-100942331D01*
X38942454Y-101057546D01*
X39057669Y-101143796D01*
X39192517Y-101194091D01*
X39192522Y-101194092D01*
X39226241Y-101197716D01*
X39252127Y-101200500D01*
X41747872Y-101200499D01*
X41807483Y-101194091D01*
X41942331Y-101143796D01*
X42057546Y-101057546D01*
X42143796Y-100942331D01*
X42194091Y-100807483D01*
X42200500Y-100747873D01*
X42200499Y-98252128D01*
X42194091Y-98192517D01*
X42143796Y-98057669D01*
X42057546Y-97942454D01*
X42057544Y-97942453D01*
X42057544Y-97942452D01*
X41942334Y-97856206D01*
X41942333Y-97856205D01*
X41942331Y-97856204D01*
X41863549Y-97826820D01*
X41807482Y-97805908D01*
X41807477Y-97805907D01*
X41747878Y-97799500D01*
X39252128Y-97799500D01*
X39192519Y-97805908D01*
X39057668Y-97856204D01*
X38942457Y-97942452D01*
X38942454Y-97942454D01*
X38856204Y-98057669D01*
X38836821Y-98109636D01*
X38805908Y-98192517D01*
X38805907Y-98192522D01*
X38799500Y-98252116D01*
X29540500Y-98252116D01*
X29540500Y-97368880D01*
X166499500Y-97368880D01*
X166499500Y-97631120D01*
X166533730Y-97891116D01*
X166533731Y-97891121D01*
X166533732Y-97891125D01*
X166601602Y-98144421D01*
X166701952Y-98386687D01*
X166701953Y-98386690D01*
X166833075Y-98613802D01*
X166992715Y-98821848D01*
X167178151Y-99007284D01*
X167386197Y-99166924D01*
X167613303Y-99298043D01*
X167613305Y-99298044D01*
X167613309Y-99298046D01*
X167613312Y-99298047D01*
X167855578Y-99398397D01*
X167855579Y-99398397D01*
X167855581Y-99398398D01*
X168108884Y-99466270D01*
X168368880Y-99500500D01*
X168631119Y-99500500D01*
X168631120Y-99500500D01*
X168891116Y-99466270D01*
X169144419Y-99398398D01*
X169386697Y-99298043D01*
X169613803Y-99166924D01*
X169821851Y-99007282D01*
X170007282Y-98821851D01*
X170166924Y-98613803D01*
X170298043Y-98386697D01*
X170398398Y-98144419D01*
X170466270Y-97891116D01*
X170500500Y-97631120D01*
X170500500Y-97368880D01*
X170466270Y-97108884D01*
X170398398Y-96855581D01*
X170298047Y-96613312D01*
X170298046Y-96613309D01*
X170166924Y-96386197D01*
X170007284Y-96178151D01*
X169821848Y-95992715D01*
X169613802Y-95833075D01*
X169386690Y-95701953D01*
X169386687Y-95701952D01*
X169144421Y-95601602D01*
X168891125Y-95533732D01*
X168891121Y-95533731D01*
X168891116Y-95533730D01*
X168631120Y-95499500D01*
X168368880Y-95499500D01*
X168108884Y-95533730D01*
X168108878Y-95533731D01*
X168108874Y-95533732D01*
X167855578Y-95601602D01*
X167613312Y-95701952D01*
X167613309Y-95701953D01*
X167386197Y-95833075D01*
X167178151Y-95992715D01*
X166992715Y-96178151D01*
X166833075Y-96386197D01*
X166701953Y-96613309D01*
X166701952Y-96613312D01*
X166601602Y-96855578D01*
X166533732Y-97108874D01*
X166533731Y-97108878D01*
X166533730Y-97108884D01*
X166499500Y-97368880D01*
X29540500Y-97368880D01*
X29540500Y-86881908D01*
X41749500Y-86881908D01*
X41749500Y-87118092D01*
X41786447Y-87351368D01*
X41859432Y-87575992D01*
X41859433Y-87575993D01*
X41859434Y-87575997D01*
X41966655Y-87786431D01*
X42105480Y-87977507D01*
X42272492Y-88144519D01*
X42463568Y-88283344D01*
X42582650Y-88344019D01*
X42674008Y-88390568D01*
X42898632Y-88463553D01*
X43131908Y-88500500D01*
X43131910Y-88500500D01*
X43368090Y-88500500D01*
X43368092Y-88500500D01*
X43601368Y-88463553D01*
X43825992Y-88390568D01*
X44036433Y-88283343D01*
X44227510Y-88144517D01*
X44394517Y-87977510D01*
X44533343Y-87786433D01*
X44640568Y-87575992D01*
X44713553Y-87351368D01*
X44750500Y-87118092D01*
X44750500Y-86881908D01*
X44713553Y-86648632D01*
X44640568Y-86424008D01*
X44621552Y-86386687D01*
X44533344Y-86213568D01*
X44394519Y-86022492D01*
X44227507Y-85855480D01*
X44036431Y-85716655D01*
X43825997Y-85609434D01*
X43825994Y-85609433D01*
X43825992Y-85609432D01*
X43601368Y-85536447D01*
X43368092Y-85499500D01*
X43131908Y-85499500D01*
X42976390Y-85524131D01*
X42898631Y-85536447D01*
X42790517Y-85571575D01*
X42674008Y-85609432D01*
X42674006Y-85609432D01*
X42674006Y-85609433D01*
X42674002Y-85609434D01*
X42463568Y-85716655D01*
X42272492Y-85855480D01*
X42105480Y-86022492D01*
X41966655Y-86213568D01*
X41859434Y-86424002D01*
X41859433Y-86424006D01*
X41797764Y-86613803D01*
X41786447Y-86648632D01*
X41749500Y-86881908D01*
X29540500Y-86881908D01*
X29540500Y-85368880D01*
X53999500Y-85368880D01*
X53999500Y-85631120D01*
X54033730Y-85891116D01*
X54033731Y-85891121D01*
X54033732Y-85891125D01*
X54101602Y-86144421D01*
X54201952Y-86386687D01*
X54201953Y-86386690D01*
X54333075Y-86613802D01*
X54492715Y-86821848D01*
X54678151Y-87007284D01*
X54846805Y-87136697D01*
X54886197Y-87166924D01*
X55113303Y-87298043D01*
X55113305Y-87298044D01*
X55113309Y-87298046D01*
X55113312Y-87298047D01*
X55355578Y-87398397D01*
X55355579Y-87398397D01*
X55355581Y-87398398D01*
X55608884Y-87466270D01*
X55868880Y-87500500D01*
X56131119Y-87500500D01*
X56131120Y-87500500D01*
X56391116Y-87466270D01*
X56644419Y-87398398D01*
X56886697Y-87298043D01*
X57113803Y-87166924D01*
X57321851Y-87007282D01*
X57507282Y-86821851D01*
X57666924Y-86613803D01*
X57798043Y-86386697D01*
X57898398Y-86144419D01*
X57966270Y-85891116D01*
X58000500Y-85631120D01*
X58000500Y-85368880D01*
X106999500Y-85368880D01*
X106999500Y-85631120D01*
X107033730Y-85891116D01*
X107033731Y-85891121D01*
X107033732Y-85891125D01*
X107101602Y-86144421D01*
X107201952Y-86386687D01*
X107201953Y-86386690D01*
X107333075Y-86613802D01*
X107492715Y-86821848D01*
X107678151Y-87007284D01*
X107846805Y-87136697D01*
X107886197Y-87166924D01*
X108113303Y-87298043D01*
X108113305Y-87298044D01*
X108113309Y-87298046D01*
X108113312Y-87298047D01*
X108355578Y-87398397D01*
X108355579Y-87398397D01*
X108355581Y-87398398D01*
X108608884Y-87466270D01*
X108868880Y-87500500D01*
X109131119Y-87500500D01*
X109131120Y-87500500D01*
X109391116Y-87466270D01*
X109644419Y-87398398D01*
X109886697Y-87298043D01*
X110113803Y-87166924D01*
X110321851Y-87007282D01*
X110507282Y-86821851D01*
X110666924Y-86613803D01*
X110798043Y-86386697D01*
X110898398Y-86144419D01*
X110966270Y-85891116D01*
X111000500Y-85631120D01*
X111000500Y-85368880D01*
X110966270Y-85108884D01*
X110898398Y-84855581D01*
X110851649Y-84742718D01*
X110798047Y-84613312D01*
X110798046Y-84613309D01*
X110796847Y-84611233D01*
X110666924Y-84386197D01*
X110630587Y-84338842D01*
X110507284Y-84178151D01*
X110321848Y-83992715D01*
X110113802Y-83833075D01*
X109886690Y-83701953D01*
X109886687Y-83701952D01*
X109644421Y-83601602D01*
X109391125Y-83533732D01*
X109391121Y-83533731D01*
X109391116Y-83533730D01*
X109131120Y-83499500D01*
X108868880Y-83499500D01*
X108608884Y-83533730D01*
X108608878Y-83533731D01*
X108608874Y-83533732D01*
X108355578Y-83601602D01*
X108113312Y-83701952D01*
X108113309Y-83701953D01*
X107886197Y-83833075D01*
X107678151Y-83992715D01*
X107492715Y-84178151D01*
X107333075Y-84386197D01*
X107201953Y-84613309D01*
X107201952Y-84613312D01*
X107101602Y-84855578D01*
X107033732Y-85108874D01*
X107033731Y-85108878D01*
X107033730Y-85108884D01*
X106999500Y-85368880D01*
X58000500Y-85368880D01*
X57966270Y-85108884D01*
X57898398Y-84855581D01*
X57851649Y-84742718D01*
X57798047Y-84613312D01*
X57798046Y-84613309D01*
X57796847Y-84611233D01*
X57666924Y-84386197D01*
X57630587Y-84338842D01*
X57507284Y-84178151D01*
X57321848Y-83992715D01*
X57113802Y-83833075D01*
X56886690Y-83701953D01*
X56886687Y-83701952D01*
X56644421Y-83601602D01*
X56391125Y-83533732D01*
X56391121Y-83533731D01*
X56391116Y-83533730D01*
X56131120Y-83499500D01*
X55868880Y-83499500D01*
X55608884Y-83533730D01*
X55608878Y-83533731D01*
X55608874Y-83533732D01*
X55355578Y-83601602D01*
X55113312Y-83701952D01*
X55113309Y-83701953D01*
X54886197Y-83833075D01*
X54678151Y-83992715D01*
X54492715Y-84178151D01*
X54333075Y-84386197D01*
X54201953Y-84613309D01*
X54201952Y-84613312D01*
X54101602Y-84855578D01*
X54033732Y-85108874D01*
X54033731Y-85108878D01*
X54033730Y-85108884D01*
X53999500Y-85368880D01*
X29540500Y-85368880D01*
X29540500Y-74069575D01*
X54409500Y-74069575D01*
X54409500Y-74350425D01*
X54417996Y-74425828D01*
X54440944Y-74629508D01*
X54503436Y-74903305D01*
X54503441Y-74903320D01*
X54596197Y-75168406D01*
X54718050Y-75421436D01*
X54718059Y-75421453D01*
X54867468Y-75659234D01*
X54867477Y-75659248D01*
X55042584Y-75878825D01*
X55241175Y-76077416D01*
X55460752Y-76252523D01*
X55460760Y-76252528D01*
X55698546Y-76401940D01*
X55698563Y-76401949D01*
X55951593Y-76523802D01*
X56059275Y-76561481D01*
X56216682Y-76616560D01*
X56216691Y-76616562D01*
X56216694Y-76616563D01*
X56329592Y-76642331D01*
X56490491Y-76679055D01*
X56769575Y-76710500D01*
X56769581Y-76710500D01*
X57050419Y-76710500D01*
X57050425Y-76710500D01*
X57329509Y-76679055D01*
X57603318Y-76616560D01*
X57818684Y-76541199D01*
X57868406Y-76523802D01*
X58026076Y-76447872D01*
X58121445Y-76401945D01*
X58359248Y-76252523D01*
X58578825Y-76077416D01*
X58777416Y-75878825D01*
X58952523Y-75659248D01*
X59016303Y-75557742D01*
X59125296Y-75422228D01*
X59262603Y-75315502D01*
X59420821Y-75243317D01*
X59591422Y-75209567D01*
X59765208Y-75216069D01*
X59932809Y-75262473D01*
X60085192Y-75346279D01*
X60214140Y-75462967D01*
X60312702Y-75606247D01*
X60375564Y-75768395D01*
X60399338Y-75940670D01*
X60399500Y-75956232D01*
X60399500Y-76447871D01*
X60405908Y-76507480D01*
X60405908Y-76507482D01*
X60405909Y-76507483D01*
X60456204Y-76642331D01*
X60542454Y-76757546D01*
X60657669Y-76843796D01*
X60792517Y-76894091D01*
X60792521Y-76894092D01*
X60825425Y-76897629D01*
X60852127Y-76900500D01*
X62747872Y-76900499D01*
X62807483Y-76894091D01*
X62942331Y-76843796D01*
X62953777Y-76835227D01*
X63104148Y-76747878D01*
X63270616Y-76697558D01*
X63444202Y-76686985D01*
X63615546Y-76716729D01*
X63742675Y-76767466D01*
X63802394Y-76797895D01*
X64012049Y-76866015D01*
X64229778Y-76900500D01*
X64229782Y-76900500D01*
X64450218Y-76900500D01*
X64450222Y-76900500D01*
X64667951Y-76866015D01*
X64877606Y-76797895D01*
X65074022Y-76697815D01*
X65169753Y-76628262D01*
X65321358Y-76543070D01*
X65488529Y-76495135D01*
X65662248Y-76487044D01*
X65833150Y-76519233D01*
X65992022Y-76589967D01*
X66050241Y-76628258D01*
X66145978Y-76697815D01*
X66342394Y-76797895D01*
X66552049Y-76866015D01*
X66769778Y-76900500D01*
X66769782Y-76900500D01*
X66990218Y-76900500D01*
X66990222Y-76900500D01*
X67207951Y-76866015D01*
X67417606Y-76797895D01*
X67614022Y-76697815D01*
X67709753Y-76628262D01*
X67861358Y-76543070D01*
X68028529Y-76495135D01*
X68202248Y-76487044D01*
X68373150Y-76519233D01*
X68532022Y-76589967D01*
X68590241Y-76628258D01*
X68685978Y-76697815D01*
X68882394Y-76797895D01*
X69092049Y-76866015D01*
X69309778Y-76900500D01*
X69309782Y-76900500D01*
X69530218Y-76900500D01*
X69530222Y-76900500D01*
X69747951Y-76866015D01*
X69957606Y-76797895D01*
X70154022Y-76697815D01*
X70332365Y-76568242D01*
X70488242Y-76412365D01*
X70617815Y-76234022D01*
X70717895Y-76037606D01*
X70786015Y-75827951D01*
X70820500Y-75610222D01*
X70820500Y-75389778D01*
X70788069Y-75185015D01*
X70780988Y-75011255D01*
X70814171Y-74840543D01*
X70885828Y-74682085D01*
X70992097Y-74544423D01*
X71127248Y-74434980D01*
X71283995Y-74359654D01*
X71453889Y-74322507D01*
X71527847Y-74318847D01*
X71609988Y-74318847D01*
X71632049Y-74326015D01*
X71849778Y-74360500D01*
X72070222Y-74360500D01*
X72287951Y-74326015D01*
X72310012Y-74318847D01*
X72392152Y-74318847D01*
X72420364Y-74322144D01*
X72448744Y-74320988D01*
X72506467Y-74332208D01*
X72564883Y-74339036D01*
X72591577Y-74348751D01*
X72619456Y-74354171D01*
X72673033Y-74378399D01*
X72728303Y-74398516D01*
X72752036Y-74414125D01*
X72777914Y-74425828D01*
X72824464Y-74461762D01*
X72873600Y-74494080D01*
X72893091Y-74514739D01*
X72915575Y-74532096D01*
X72952584Y-74577798D01*
X72992942Y-74620575D01*
X73007143Y-74645173D01*
X73025019Y-74667247D01*
X73050490Y-74720251D01*
X73079896Y-74771183D01*
X73088042Y-74798394D01*
X73100345Y-74823995D01*
X73112907Y-74881449D01*
X73129773Y-74937785D01*
X73131424Y-74966137D01*
X73137492Y-74993888D01*
X73136465Y-75052690D01*
X73139885Y-75111397D01*
X73134952Y-75139369D01*
X73134457Y-75167769D01*
X73131931Y-75185015D01*
X73127013Y-75216069D01*
X73099500Y-75389778D01*
X73099500Y-75610222D01*
X73133985Y-75827951D01*
X73133986Y-75827954D01*
X73133986Y-75827957D01*
X73150515Y-75878827D01*
X73202105Y-76037606D01*
X73302185Y-76234022D01*
X73431758Y-76412365D01*
X73587635Y-76568242D01*
X73765978Y-76697815D01*
X73962394Y-76797895D01*
X74172049Y-76866015D01*
X74389778Y-76900500D01*
X74389782Y-76900500D01*
X74610218Y-76900500D01*
X74610222Y-76900500D01*
X74827951Y-76866015D01*
X75037606Y-76797895D01*
X75234022Y-76697815D01*
X75329753Y-76628262D01*
X75481358Y-76543070D01*
X75648529Y-76495135D01*
X75822248Y-76487044D01*
X75993150Y-76519233D01*
X76152022Y-76589967D01*
X76210241Y-76628258D01*
X76305978Y-76697815D01*
X76502394Y-76797895D01*
X76712049Y-76866015D01*
X76929778Y-76900500D01*
X76929782Y-76900500D01*
X77150218Y-76900500D01*
X77150222Y-76900500D01*
X77367951Y-76866015D01*
X77577606Y-76797895D01*
X77774022Y-76697815D01*
X77869753Y-76628262D01*
X78021358Y-76543070D01*
X78188529Y-76495135D01*
X78362248Y-76487044D01*
X78533150Y-76519233D01*
X78692022Y-76589967D01*
X78750241Y-76628258D01*
X78845978Y-76697815D01*
X79042394Y-76797895D01*
X79252049Y-76866015D01*
X79469778Y-76900500D01*
X79469782Y-76900500D01*
X79690218Y-76900500D01*
X79690222Y-76900500D01*
X79907951Y-76866015D01*
X80117606Y-76797895D01*
X80314022Y-76697815D01*
X80409753Y-76628262D01*
X80561358Y-76543070D01*
X80728529Y-76495135D01*
X80902248Y-76487044D01*
X81073150Y-76519233D01*
X81232022Y-76589967D01*
X81290241Y-76628258D01*
X81385978Y-76697815D01*
X81582394Y-76797895D01*
X81792049Y-76866015D01*
X82009778Y-76900500D01*
X82009782Y-76900500D01*
X82230218Y-76900500D01*
X82230222Y-76900500D01*
X82447951Y-76866015D01*
X82657606Y-76797895D01*
X82854022Y-76697815D01*
X82949753Y-76628262D01*
X83101358Y-76543070D01*
X83268529Y-76495135D01*
X83442248Y-76487044D01*
X83613150Y-76519233D01*
X83772022Y-76589967D01*
X83830241Y-76628258D01*
X83925978Y-76697815D01*
X84122394Y-76797895D01*
X84332049Y-76866015D01*
X84549778Y-76900500D01*
X84549782Y-76900500D01*
X84770218Y-76900500D01*
X84770222Y-76900500D01*
X84987951Y-76866015D01*
X85197606Y-76797895D01*
X85394022Y-76697815D01*
X85489753Y-76628262D01*
X85641358Y-76543070D01*
X85808529Y-76495135D01*
X85982248Y-76487044D01*
X86153150Y-76519233D01*
X86312022Y-76589967D01*
X86370241Y-76628258D01*
X86465978Y-76697815D01*
X86662394Y-76797895D01*
X86872049Y-76866015D01*
X87089778Y-76900500D01*
X87089782Y-76900500D01*
X87310218Y-76900500D01*
X87310222Y-76900500D01*
X87527951Y-76866015D01*
X87737606Y-76797895D01*
X87934022Y-76697815D01*
X88029753Y-76628262D01*
X88181358Y-76543070D01*
X88348529Y-76495135D01*
X88522248Y-76487044D01*
X88693150Y-76519233D01*
X88852022Y-76589967D01*
X88910241Y-76628258D01*
X89005978Y-76697815D01*
X89202394Y-76797895D01*
X89412049Y-76866015D01*
X89629778Y-76900500D01*
X89629782Y-76900500D01*
X89850218Y-76900500D01*
X89850222Y-76900500D01*
X90067951Y-76866015D01*
X90277606Y-76797895D01*
X90474022Y-76697815D01*
X90652365Y-76568242D01*
X90808242Y-76412365D01*
X90937815Y-76234022D01*
X91037895Y-76037606D01*
X91106015Y-75827951D01*
X91140500Y-75610222D01*
X91140500Y-75389778D01*
X91108069Y-75185015D01*
X91100988Y-75011255D01*
X91134171Y-74840543D01*
X91205828Y-74682085D01*
X91312097Y-74544423D01*
X91447248Y-74434980D01*
X91603995Y-74359654D01*
X91773889Y-74322507D01*
X91847847Y-74318847D01*
X91929988Y-74318847D01*
X91952049Y-74326015D01*
X92169778Y-74360500D01*
X92390222Y-74360500D01*
X92607951Y-74326015D01*
X92630012Y-74318847D01*
X92712152Y-74318847D01*
X92740364Y-74322144D01*
X92768744Y-74320988D01*
X92826467Y-74332208D01*
X92884883Y-74339036D01*
X92911577Y-74348751D01*
X92939456Y-74354171D01*
X92993033Y-74378399D01*
X93048303Y-74398516D01*
X93072036Y-74414125D01*
X93097914Y-74425828D01*
X93144464Y-74461762D01*
X93193600Y-74494080D01*
X93213091Y-74514739D01*
X93235575Y-74532096D01*
X93272584Y-74577798D01*
X93312942Y-74620575D01*
X93327143Y-74645173D01*
X93345019Y-74667247D01*
X93370490Y-74720251D01*
X93399896Y-74771183D01*
X93408042Y-74798394D01*
X93420345Y-74823995D01*
X93432907Y-74881449D01*
X93449773Y-74937785D01*
X93451424Y-74966137D01*
X93457492Y-74993888D01*
X93456465Y-75052690D01*
X93459885Y-75111397D01*
X93454952Y-75139369D01*
X93454457Y-75167769D01*
X93451931Y-75185015D01*
X93447013Y-75216069D01*
X93419500Y-75389778D01*
X93419500Y-75610222D01*
X93453985Y-75827951D01*
X93453986Y-75827954D01*
X93453986Y-75827957D01*
X93470515Y-75878827D01*
X93522105Y-76037606D01*
X93622185Y-76234022D01*
X93751758Y-76412365D01*
X93907635Y-76568242D01*
X94085978Y-76697815D01*
X94282394Y-76797895D01*
X94492049Y-76866015D01*
X94709778Y-76900500D01*
X94709782Y-76900500D01*
X94930218Y-76900500D01*
X94930222Y-76900500D01*
X95147951Y-76866015D01*
X95357606Y-76797895D01*
X95554022Y-76697815D01*
X95649753Y-76628262D01*
X95801358Y-76543070D01*
X95968529Y-76495135D01*
X96142248Y-76487044D01*
X96313150Y-76519233D01*
X96472022Y-76589967D01*
X96530241Y-76628258D01*
X96625978Y-76697815D01*
X96822394Y-76797895D01*
X97032049Y-76866015D01*
X97249778Y-76900500D01*
X97249782Y-76900500D01*
X97470218Y-76900500D01*
X97470222Y-76900500D01*
X97687951Y-76866015D01*
X97897606Y-76797895D01*
X98094022Y-76697815D01*
X98189753Y-76628262D01*
X98341358Y-76543070D01*
X98508529Y-76495135D01*
X98682248Y-76487044D01*
X98853150Y-76519233D01*
X99012022Y-76589967D01*
X99070241Y-76628258D01*
X99165978Y-76697815D01*
X99362394Y-76797895D01*
X99572049Y-76866015D01*
X99789778Y-76900500D01*
X99789782Y-76900500D01*
X100010218Y-76900500D01*
X100010222Y-76900500D01*
X100227951Y-76866015D01*
X100437606Y-76797895D01*
X100634022Y-76697815D01*
X100729753Y-76628262D01*
X100881358Y-76543070D01*
X101048529Y-76495135D01*
X101222248Y-76487044D01*
X101393150Y-76519233D01*
X101552022Y-76589967D01*
X101610241Y-76628258D01*
X101705978Y-76697815D01*
X101902394Y-76797895D01*
X102112049Y-76866015D01*
X102329778Y-76900500D01*
X102329782Y-76900500D01*
X102550218Y-76900500D01*
X102550222Y-76900500D01*
X102767951Y-76866015D01*
X102977606Y-76797895D01*
X103174022Y-76697815D01*
X103269753Y-76628262D01*
X103421358Y-76543070D01*
X103588529Y-76495135D01*
X103762248Y-76487044D01*
X103933150Y-76519233D01*
X104092022Y-76589967D01*
X104150241Y-76628258D01*
X104245978Y-76697815D01*
X104442394Y-76797895D01*
X104652049Y-76866015D01*
X104869778Y-76900500D01*
X104869782Y-76900500D01*
X105090218Y-76900500D01*
X105090222Y-76900500D01*
X105307951Y-76866015D01*
X105517606Y-76797895D01*
X105714022Y-76697815D01*
X105809753Y-76628262D01*
X105961358Y-76543070D01*
X106128529Y-76495135D01*
X106302248Y-76487044D01*
X106473150Y-76519233D01*
X106632022Y-76589967D01*
X106690241Y-76628258D01*
X106785978Y-76697815D01*
X106982394Y-76797895D01*
X107192049Y-76866015D01*
X107409778Y-76900500D01*
X107409782Y-76900500D01*
X107630218Y-76900500D01*
X107630222Y-76900500D01*
X107847951Y-76866015D01*
X108057606Y-76797895D01*
X108254022Y-76697815D01*
X108432365Y-76568242D01*
X108588242Y-76412365D01*
X108717815Y-76234022D01*
X108817895Y-76037606D01*
X108886015Y-75827951D01*
X108920500Y-75610222D01*
X108920500Y-75389778D01*
X108888069Y-75185015D01*
X108880988Y-75011255D01*
X108914171Y-74840543D01*
X108985828Y-74682085D01*
X109092097Y-74544423D01*
X109227248Y-74434980D01*
X109383995Y-74359654D01*
X109553889Y-74322507D01*
X109727769Y-74325542D01*
X109745010Y-74328067D01*
X109949778Y-74360500D01*
X109949779Y-74360500D01*
X110170218Y-74360500D01*
X110170222Y-74360500D01*
X110387951Y-74326015D01*
X110597606Y-74257895D01*
X110794022Y-74157815D01*
X110972365Y-74028242D01*
X111128242Y-73872365D01*
X111128244Y-73872361D01*
X111132360Y-73868246D01*
X111268775Y-73760383D01*
X111426388Y-73686886D01*
X111596702Y-73651718D01*
X111770536Y-73656776D01*
X111938517Y-73701786D01*
X112091591Y-73784322D01*
X112221504Y-73899934D01*
X112321254Y-74042390D01*
X112385462Y-74204011D01*
X112405615Y-74329716D01*
X112407148Y-74329544D01*
X112409500Y-74350419D01*
X112409500Y-74350425D01*
X112412652Y-74378399D01*
X112440944Y-74629508D01*
X112503436Y-74903305D01*
X112503441Y-74903320D01*
X112596197Y-75168406D01*
X112718050Y-75421436D01*
X112718059Y-75421453D01*
X112867468Y-75659234D01*
X112867477Y-75659248D01*
X113042584Y-75878825D01*
X113241175Y-76077416D01*
X113460752Y-76252523D01*
X113460760Y-76252528D01*
X113698546Y-76401940D01*
X113698563Y-76401949D01*
X113951593Y-76523802D01*
X114059275Y-76561481D01*
X114216682Y-76616560D01*
X114216691Y-76616562D01*
X114216694Y-76616563D01*
X114329592Y-76642331D01*
X114490491Y-76679055D01*
X114769575Y-76710500D01*
X114769581Y-76710500D01*
X115050419Y-76710500D01*
X115050425Y-76710500D01*
X115329509Y-76679055D01*
X115603318Y-76616560D01*
X115818684Y-76541199D01*
X115868406Y-76523802D01*
X116026076Y-76447872D01*
X116121445Y-76401945D01*
X116359248Y-76252523D01*
X116578825Y-76077416D01*
X116777416Y-75878825D01*
X116952523Y-75659248D01*
X117101945Y-75421445D01*
X117223801Y-75168408D01*
X117316560Y-74903318D01*
X117379055Y-74629509D01*
X117410500Y-74350425D01*
X117410500Y-74069575D01*
X147409500Y-74069575D01*
X147409500Y-74350425D01*
X147417996Y-74425828D01*
X147440944Y-74629508D01*
X147503436Y-74903305D01*
X147503441Y-74903320D01*
X147596197Y-75168406D01*
X147718050Y-75421436D01*
X147718059Y-75421453D01*
X147867468Y-75659234D01*
X147867477Y-75659248D01*
X148042584Y-75878825D01*
X148241175Y-76077416D01*
X148460752Y-76252523D01*
X148460760Y-76252528D01*
X148698546Y-76401940D01*
X148698563Y-76401949D01*
X148951593Y-76523802D01*
X149059275Y-76561481D01*
X149216682Y-76616560D01*
X149216691Y-76616562D01*
X149216694Y-76616563D01*
X149329592Y-76642331D01*
X149490491Y-76679055D01*
X149769575Y-76710500D01*
X149769581Y-76710500D01*
X150050419Y-76710500D01*
X150050425Y-76710500D01*
X150329509Y-76679055D01*
X150603318Y-76616560D01*
X150818684Y-76541199D01*
X150868406Y-76523802D01*
X151026076Y-76447872D01*
X151121445Y-76401945D01*
X151359248Y-76252523D01*
X151578825Y-76077416D01*
X151777416Y-75878825D01*
X151952523Y-75659248D01*
X152101945Y-75421445D01*
X152223801Y-75168408D01*
X152316560Y-74903318D01*
X152379055Y-74629509D01*
X152410500Y-74350425D01*
X152410500Y-74069575D01*
X152379055Y-73790491D01*
X152349637Y-73661603D01*
X152316563Y-73516694D01*
X152316562Y-73516691D01*
X152316560Y-73516682D01*
X152257746Y-73348602D01*
X152223802Y-73251593D01*
X152101949Y-72998563D01*
X152101940Y-72998546D01*
X151952528Y-72760760D01*
X151952523Y-72760752D01*
X151777416Y-72541175D01*
X151578825Y-72342584D01*
X151359248Y-72167477D01*
X151359241Y-72167472D01*
X151359239Y-72167471D01*
X151121453Y-72018059D01*
X151121436Y-72018050D01*
X150868406Y-71896197D01*
X150653041Y-71820838D01*
X150603318Y-71803440D01*
X150603314Y-71803439D01*
X150603305Y-71803436D01*
X150329508Y-71740944D01*
X150171103Y-71723097D01*
X150050425Y-71709500D01*
X149769575Y-71709500D01*
X149657009Y-71722183D01*
X149490491Y-71740944D01*
X149216694Y-71803436D01*
X149216679Y-71803441D01*
X148951593Y-71896197D01*
X148698563Y-72018050D01*
X148698546Y-72018059D01*
X148460760Y-72167471D01*
X148460751Y-72167478D01*
X148241172Y-72342586D01*
X148042586Y-72541172D01*
X147867478Y-72760751D01*
X147867471Y-72760760D01*
X147718059Y-72998546D01*
X147718050Y-72998563D01*
X147596197Y-73251593D01*
X147503441Y-73516679D01*
X147503436Y-73516694D01*
X147440944Y-73790491D01*
X147426851Y-73915578D01*
X147409500Y-74069575D01*
X117410500Y-74069575D01*
X117379055Y-73790491D01*
X117349637Y-73661603D01*
X117316563Y-73516694D01*
X117316562Y-73516691D01*
X117316560Y-73516682D01*
X117257746Y-73348602D01*
X117223802Y-73251593D01*
X117101949Y-72998563D01*
X117101940Y-72998546D01*
X116952528Y-72760760D01*
X116952523Y-72760752D01*
X116777416Y-72541175D01*
X116578825Y-72342584D01*
X116359248Y-72167477D01*
X116359241Y-72167472D01*
X116359239Y-72167471D01*
X116121453Y-72018059D01*
X116121436Y-72018050D01*
X115868406Y-71896197D01*
X115653041Y-71820838D01*
X115603318Y-71803440D01*
X115603314Y-71803439D01*
X115603305Y-71803436D01*
X115329508Y-71740944D01*
X115171103Y-71723097D01*
X115050425Y-71709500D01*
X114769575Y-71709500D01*
X114657009Y-71722183D01*
X114490491Y-71740944D01*
X114216694Y-71803436D01*
X114216679Y-71803441D01*
X113951593Y-71896197D01*
X113698563Y-72018050D01*
X113698546Y-72018059D01*
X113460760Y-72167471D01*
X113460751Y-72167478D01*
X113241172Y-72342586D01*
X113042586Y-72541172D01*
X112867478Y-72760751D01*
X112867469Y-72760763D01*
X112793850Y-72877926D01*
X112684856Y-73013440D01*
X112547548Y-73120164D01*
X112389328Y-73192347D01*
X112218727Y-73226096D01*
X112044942Y-73219592D01*
X111877340Y-73173186D01*
X111724959Y-73089379D01*
X111596012Y-72972689D01*
X111497452Y-72829408D01*
X111434591Y-72667259D01*
X111431351Y-72654275D01*
X111426016Y-72632055D01*
X111426015Y-72632049D01*
X111357895Y-72422394D01*
X111257815Y-72225978D01*
X111128242Y-72047635D01*
X110972365Y-71891758D01*
X110794022Y-71762185D01*
X110597606Y-71662105D01*
X110504668Y-71631908D01*
X110387955Y-71593986D01*
X110387953Y-71593985D01*
X110387951Y-71593985D01*
X110170222Y-71559500D01*
X109949778Y-71559500D01*
X109732049Y-71593985D01*
X109732046Y-71593985D01*
X109732045Y-71593986D01*
X109732042Y-71593986D01*
X109522396Y-71662104D01*
X109325976Y-71762185D01*
X109230248Y-71831736D01*
X109078638Y-71916931D01*
X108911467Y-71964865D01*
X108737748Y-71972955D01*
X108566846Y-71940765D01*
X108407975Y-71870030D01*
X108349752Y-71831736D01*
X108254023Y-71762185D01*
X108130047Y-71699016D01*
X108057606Y-71662105D01*
X107964668Y-71631908D01*
X107847955Y-71593986D01*
X107847953Y-71593985D01*
X107847951Y-71593985D01*
X107630222Y-71559500D01*
X107409778Y-71559500D01*
X107192049Y-71593985D01*
X107192046Y-71593985D01*
X107192045Y-71593986D01*
X107192042Y-71593986D01*
X106982396Y-71662104D01*
X106785976Y-71762185D01*
X106690248Y-71831736D01*
X106538638Y-71916931D01*
X106371467Y-71964865D01*
X106197748Y-71972955D01*
X106026846Y-71940765D01*
X105867975Y-71870030D01*
X105809752Y-71831736D01*
X105714023Y-71762185D01*
X105590047Y-71699016D01*
X105517606Y-71662105D01*
X105424668Y-71631908D01*
X105307955Y-71593986D01*
X105307953Y-71593985D01*
X105307951Y-71593985D01*
X105090222Y-71559500D01*
X104869778Y-71559500D01*
X104652049Y-71593985D01*
X104652046Y-71593985D01*
X104652045Y-71593986D01*
X104652042Y-71593986D01*
X104442396Y-71662104D01*
X104245979Y-71762184D01*
X104067635Y-71891758D01*
X104067630Y-71891762D01*
X103911762Y-72047630D01*
X103911758Y-72047635D01*
X103782184Y-72225979D01*
X103682104Y-72422396D01*
X103613986Y-72632042D01*
X103613986Y-72632045D01*
X103613985Y-72632049D01*
X103579500Y-72849778D01*
X103579500Y-73070222D01*
X103590642Y-73140568D01*
X103611931Y-73274984D01*
X103619011Y-73448747D01*
X103585827Y-73619459D01*
X103514170Y-73777917D01*
X103407901Y-73915578D01*
X103272749Y-74025021D01*
X103116001Y-74100346D01*
X102946108Y-74137492D01*
X102872152Y-74141152D01*
X102790009Y-74141152D01*
X102767951Y-74133985D01*
X102550222Y-74099500D01*
X102329778Y-74099500D01*
X102112049Y-74133985D01*
X102089991Y-74141152D01*
X102007847Y-74141152D01*
X101979634Y-74137854D01*
X101951252Y-74139011D01*
X101893527Y-74127790D01*
X101835116Y-74120963D01*
X101808420Y-74111246D01*
X101780540Y-74105827D01*
X101726964Y-74081599D01*
X101671696Y-74061483D01*
X101647960Y-74045871D01*
X101622082Y-74034169D01*
X101575534Y-73998236D01*
X101526399Y-73965919D01*
X101506905Y-73945257D01*
X101484421Y-73927900D01*
X101447412Y-73882198D01*
X101407057Y-73839424D01*
X101392854Y-73814824D01*
X101374978Y-73792749D01*
X101349506Y-73739744D01*
X101320103Y-73688816D01*
X101311956Y-73661603D01*
X101299653Y-73636001D01*
X101287091Y-73578550D01*
X101270226Y-73522214D01*
X101268574Y-73493857D01*
X101262507Y-73466107D01*
X101263533Y-73407312D01*
X101260114Y-73348602D01*
X101265047Y-73320624D01*
X101265543Y-73292226D01*
X101268069Y-73274981D01*
X101271187Y-73255297D01*
X101300500Y-73070222D01*
X101300500Y-72849778D01*
X101266015Y-72632049D01*
X101197895Y-72422394D01*
X101097815Y-72225978D01*
X100968242Y-72047635D01*
X100812365Y-71891758D01*
X100634022Y-71762185D01*
X100437606Y-71662105D01*
X100344668Y-71631908D01*
X100227955Y-71593986D01*
X100227953Y-71593985D01*
X100227951Y-71593985D01*
X100010222Y-71559500D01*
X99789778Y-71559500D01*
X99572049Y-71593985D01*
X99572046Y-71593985D01*
X99572045Y-71593986D01*
X99572042Y-71593986D01*
X99362396Y-71662104D01*
X99165979Y-71762184D01*
X98987635Y-71891758D01*
X98987630Y-71891762D01*
X98831762Y-72047630D01*
X98831758Y-72047635D01*
X98702184Y-72225979D01*
X98602104Y-72422396D01*
X98533986Y-72632042D01*
X98533986Y-72632045D01*
X98533985Y-72632049D01*
X98499500Y-72849778D01*
X98499500Y-73070222D01*
X98510642Y-73140568D01*
X98531931Y-73274984D01*
X98539011Y-73448747D01*
X98505827Y-73619459D01*
X98434170Y-73777917D01*
X98327901Y-73915578D01*
X98192749Y-74025021D01*
X98036001Y-74100346D01*
X97866108Y-74137492D01*
X97792152Y-74141152D01*
X97710009Y-74141152D01*
X97687951Y-74133985D01*
X97470222Y-74099500D01*
X97249778Y-74099500D01*
X97032049Y-74133985D01*
X97009991Y-74141152D01*
X96927847Y-74141152D01*
X96899634Y-74137854D01*
X96871252Y-74139011D01*
X96813527Y-74127790D01*
X96755116Y-74120963D01*
X96728420Y-74111246D01*
X96700540Y-74105827D01*
X96646964Y-74081599D01*
X96591696Y-74061483D01*
X96567960Y-74045871D01*
X96542082Y-74034169D01*
X96495534Y-73998236D01*
X96446399Y-73965919D01*
X96426905Y-73945257D01*
X96404421Y-73927900D01*
X96367412Y-73882198D01*
X96327057Y-73839424D01*
X96312854Y-73814824D01*
X96294978Y-73792749D01*
X96269506Y-73739744D01*
X96240103Y-73688816D01*
X96231956Y-73661603D01*
X96219653Y-73636001D01*
X96207091Y-73578550D01*
X96190226Y-73522214D01*
X96188574Y-73493857D01*
X96182507Y-73466107D01*
X96183533Y-73407312D01*
X96180114Y-73348602D01*
X96185047Y-73320624D01*
X96185543Y-73292226D01*
X96188069Y-73274981D01*
X96191187Y-73255297D01*
X96220500Y-73070222D01*
X96220500Y-72849778D01*
X96186015Y-72632049D01*
X96117895Y-72422394D01*
X96017815Y-72225978D01*
X95888242Y-72047635D01*
X95732365Y-71891758D01*
X95554022Y-71762185D01*
X95357606Y-71662105D01*
X95264668Y-71631908D01*
X95147955Y-71593986D01*
X95147953Y-71593985D01*
X95147951Y-71593985D01*
X94930222Y-71559500D01*
X94709778Y-71559500D01*
X94492049Y-71593985D01*
X94492046Y-71593985D01*
X94492045Y-71593986D01*
X94492042Y-71593986D01*
X94282396Y-71662104D01*
X94085976Y-71762185D01*
X93990248Y-71831736D01*
X93838638Y-71916931D01*
X93671467Y-71964865D01*
X93497748Y-71972955D01*
X93326846Y-71940765D01*
X93167975Y-71870030D01*
X93109752Y-71831736D01*
X93014023Y-71762185D01*
X92890047Y-71699016D01*
X92817606Y-71662105D01*
X92724668Y-71631908D01*
X92607955Y-71593986D01*
X92607953Y-71593985D01*
X92607951Y-71593985D01*
X92390222Y-71559500D01*
X92169778Y-71559500D01*
X91952049Y-71593985D01*
X91952046Y-71593985D01*
X91952045Y-71593986D01*
X91952042Y-71593986D01*
X91742396Y-71662104D01*
X91545976Y-71762185D01*
X91450248Y-71831736D01*
X91298638Y-71916931D01*
X91131467Y-71964865D01*
X90957748Y-71972955D01*
X90786846Y-71940765D01*
X90627975Y-71870030D01*
X90569752Y-71831736D01*
X90474023Y-71762185D01*
X90350047Y-71699016D01*
X90277606Y-71662105D01*
X90184668Y-71631908D01*
X90067955Y-71593986D01*
X90067953Y-71593985D01*
X90067951Y-71593985D01*
X89850222Y-71559500D01*
X89629778Y-71559500D01*
X89412049Y-71593985D01*
X89412046Y-71593985D01*
X89412045Y-71593986D01*
X89412042Y-71593986D01*
X89202396Y-71662104D01*
X89005976Y-71762185D01*
X88910248Y-71831736D01*
X88758638Y-71916931D01*
X88591467Y-71964865D01*
X88417748Y-71972955D01*
X88246846Y-71940765D01*
X88087975Y-71870030D01*
X88029752Y-71831736D01*
X87934023Y-71762185D01*
X87810047Y-71699016D01*
X87737606Y-71662105D01*
X87644668Y-71631908D01*
X87527955Y-71593986D01*
X87527953Y-71593985D01*
X87527951Y-71593985D01*
X87310222Y-71559500D01*
X87089778Y-71559500D01*
X86872049Y-71593985D01*
X86872046Y-71593985D01*
X86872045Y-71593986D01*
X86872042Y-71593986D01*
X86662396Y-71662104D01*
X86465979Y-71762184D01*
X86287635Y-71891758D01*
X86287630Y-71891762D01*
X86131762Y-72047630D01*
X86131758Y-72047635D01*
X86002184Y-72225979D01*
X85902104Y-72422396D01*
X85833986Y-72632042D01*
X85833986Y-72632045D01*
X85833985Y-72632049D01*
X85799500Y-72849778D01*
X85799500Y-73070222D01*
X85810642Y-73140568D01*
X85831931Y-73274984D01*
X85839011Y-73448747D01*
X85805827Y-73619459D01*
X85734170Y-73777917D01*
X85627901Y-73915578D01*
X85492749Y-74025021D01*
X85336001Y-74100346D01*
X85166108Y-74137492D01*
X85092152Y-74141152D01*
X85010009Y-74141152D01*
X84987951Y-74133985D01*
X84770222Y-74099500D01*
X84549778Y-74099500D01*
X84332049Y-74133985D01*
X84309991Y-74141152D01*
X84227847Y-74141152D01*
X84199634Y-74137854D01*
X84171252Y-74139011D01*
X84113527Y-74127790D01*
X84055116Y-74120963D01*
X84028420Y-74111246D01*
X84000540Y-74105827D01*
X83946964Y-74081599D01*
X83891696Y-74061483D01*
X83867960Y-74045871D01*
X83842082Y-74034169D01*
X83795534Y-73998236D01*
X83746399Y-73965919D01*
X83726905Y-73945257D01*
X83704421Y-73927900D01*
X83667412Y-73882198D01*
X83627057Y-73839424D01*
X83612854Y-73814824D01*
X83594978Y-73792749D01*
X83569506Y-73739744D01*
X83540103Y-73688816D01*
X83531956Y-73661603D01*
X83519653Y-73636001D01*
X83507091Y-73578550D01*
X83490226Y-73522214D01*
X83488574Y-73493857D01*
X83482507Y-73466107D01*
X83483533Y-73407312D01*
X83480114Y-73348602D01*
X83485047Y-73320624D01*
X83485543Y-73292226D01*
X83488069Y-73274981D01*
X83491187Y-73255297D01*
X83520500Y-73070222D01*
X83520500Y-72849778D01*
X83486015Y-72632049D01*
X83417895Y-72422394D01*
X83317815Y-72225978D01*
X83188242Y-72047635D01*
X83032365Y-71891758D01*
X82854022Y-71762185D01*
X82657606Y-71662105D01*
X82564668Y-71631908D01*
X82447955Y-71593986D01*
X82447953Y-71593985D01*
X82447951Y-71593985D01*
X82230222Y-71559500D01*
X82009778Y-71559500D01*
X81792049Y-71593985D01*
X81792046Y-71593985D01*
X81792045Y-71593986D01*
X81792042Y-71593986D01*
X81582396Y-71662104D01*
X81385976Y-71762185D01*
X81290248Y-71831736D01*
X81138638Y-71916931D01*
X80971467Y-71964865D01*
X80797748Y-71972955D01*
X80626846Y-71940765D01*
X80467975Y-71870030D01*
X80409752Y-71831736D01*
X80314023Y-71762185D01*
X80190047Y-71699016D01*
X80117606Y-71662105D01*
X80024668Y-71631908D01*
X79907955Y-71593986D01*
X79907953Y-71593985D01*
X79907951Y-71593985D01*
X79690222Y-71559500D01*
X79469778Y-71559500D01*
X79252049Y-71593985D01*
X79252046Y-71593985D01*
X79252045Y-71593986D01*
X79252042Y-71593986D01*
X79042396Y-71662104D01*
X78845979Y-71762184D01*
X78667635Y-71891758D01*
X78667630Y-71891762D01*
X78511762Y-72047630D01*
X78511758Y-72047635D01*
X78382184Y-72225979D01*
X78282104Y-72422396D01*
X78213986Y-72632042D01*
X78213986Y-72632045D01*
X78213985Y-72632049D01*
X78179500Y-72849778D01*
X78179500Y-73070222D01*
X78190642Y-73140568D01*
X78211931Y-73274984D01*
X78219011Y-73448747D01*
X78185827Y-73619459D01*
X78114170Y-73777917D01*
X78007901Y-73915578D01*
X77872749Y-74025021D01*
X77716001Y-74100346D01*
X77546108Y-74137492D01*
X77472152Y-74141152D01*
X77390009Y-74141152D01*
X77367951Y-74133985D01*
X77150222Y-74099500D01*
X76929778Y-74099500D01*
X76712049Y-74133985D01*
X76689991Y-74141152D01*
X76607847Y-74141152D01*
X76579634Y-74137854D01*
X76551252Y-74139011D01*
X76493527Y-74127790D01*
X76435116Y-74120963D01*
X76408420Y-74111246D01*
X76380540Y-74105827D01*
X76326964Y-74081599D01*
X76271696Y-74061483D01*
X76247960Y-74045871D01*
X76222082Y-74034169D01*
X76175534Y-73998236D01*
X76126399Y-73965919D01*
X76106905Y-73945257D01*
X76084421Y-73927900D01*
X76047412Y-73882198D01*
X76007057Y-73839424D01*
X75992854Y-73814824D01*
X75974978Y-73792749D01*
X75949506Y-73739744D01*
X75920103Y-73688816D01*
X75911956Y-73661603D01*
X75899653Y-73636001D01*
X75887091Y-73578550D01*
X75870226Y-73522214D01*
X75868574Y-73493857D01*
X75862507Y-73466107D01*
X75863533Y-73407312D01*
X75860114Y-73348602D01*
X75865047Y-73320624D01*
X75865543Y-73292226D01*
X75868069Y-73274981D01*
X75871187Y-73255297D01*
X75900500Y-73070222D01*
X75900500Y-72849778D01*
X75866015Y-72632049D01*
X75797895Y-72422394D01*
X75697815Y-72225978D01*
X75568242Y-72047635D01*
X75412365Y-71891758D01*
X75234022Y-71762185D01*
X75037606Y-71662105D01*
X74944668Y-71631908D01*
X74827955Y-71593986D01*
X74827953Y-71593985D01*
X74827951Y-71593985D01*
X74610222Y-71559500D01*
X74389778Y-71559500D01*
X74172049Y-71593985D01*
X74172046Y-71593985D01*
X74172045Y-71593986D01*
X74172042Y-71593986D01*
X73962396Y-71662104D01*
X73765976Y-71762185D01*
X73670248Y-71831736D01*
X73518638Y-71916931D01*
X73351467Y-71964865D01*
X73177748Y-71972955D01*
X73006846Y-71940765D01*
X72847975Y-71870030D01*
X72789752Y-71831736D01*
X72694023Y-71762185D01*
X72570047Y-71699016D01*
X72497606Y-71662105D01*
X72404668Y-71631908D01*
X72287955Y-71593986D01*
X72287953Y-71593985D01*
X72287951Y-71593985D01*
X72070222Y-71559500D01*
X71849778Y-71559500D01*
X71632049Y-71593985D01*
X71632046Y-71593985D01*
X71632045Y-71593986D01*
X71632042Y-71593986D01*
X71422396Y-71662104D01*
X71225976Y-71762185D01*
X71130248Y-71831736D01*
X70978638Y-71916931D01*
X70811467Y-71964865D01*
X70637748Y-71972955D01*
X70466846Y-71940765D01*
X70307975Y-71870030D01*
X70249752Y-71831736D01*
X70154023Y-71762185D01*
X70030047Y-71699016D01*
X69957606Y-71662105D01*
X69864668Y-71631908D01*
X69747955Y-71593986D01*
X69747953Y-71593985D01*
X69747951Y-71593985D01*
X69530222Y-71559500D01*
X69309778Y-71559500D01*
X69092049Y-71593985D01*
X69092046Y-71593985D01*
X69092045Y-71593986D01*
X69092042Y-71593986D01*
X68882396Y-71662104D01*
X68685979Y-71762184D01*
X68507635Y-71891758D01*
X68507630Y-71891762D01*
X68351762Y-72047630D01*
X68351758Y-72047635D01*
X68222184Y-72225979D01*
X68122104Y-72422396D01*
X68053986Y-72632042D01*
X68053986Y-72632045D01*
X68053985Y-72632049D01*
X68019500Y-72849778D01*
X68019500Y-73070222D01*
X68030642Y-73140568D01*
X68051931Y-73274984D01*
X68059011Y-73448747D01*
X68025827Y-73619459D01*
X67954170Y-73777917D01*
X67847901Y-73915578D01*
X67712749Y-74025021D01*
X67556001Y-74100346D01*
X67386108Y-74137492D01*
X67312152Y-74141152D01*
X67230009Y-74141152D01*
X67207951Y-74133985D01*
X66990222Y-74099500D01*
X66769778Y-74099500D01*
X66552049Y-74133985D01*
X66529991Y-74141152D01*
X66447847Y-74141152D01*
X66419634Y-74137854D01*
X66391252Y-74139011D01*
X66333527Y-74127790D01*
X66275116Y-74120963D01*
X66248420Y-74111246D01*
X66220540Y-74105827D01*
X66166964Y-74081599D01*
X66111696Y-74061483D01*
X66087960Y-74045871D01*
X66062082Y-74034169D01*
X66015534Y-73998236D01*
X65966399Y-73965919D01*
X65946905Y-73945257D01*
X65924421Y-73927900D01*
X65887412Y-73882198D01*
X65847057Y-73839424D01*
X65832854Y-73814824D01*
X65814978Y-73792749D01*
X65789506Y-73739744D01*
X65760103Y-73688816D01*
X65751956Y-73661603D01*
X65739653Y-73636001D01*
X65727091Y-73578550D01*
X65710226Y-73522214D01*
X65708574Y-73493857D01*
X65702507Y-73466107D01*
X65703533Y-73407312D01*
X65700114Y-73348602D01*
X65705047Y-73320624D01*
X65705543Y-73292226D01*
X65708069Y-73274981D01*
X65711187Y-73255297D01*
X65740500Y-73070222D01*
X65740500Y-72849778D01*
X65706015Y-72632049D01*
X65637895Y-72422394D01*
X65537815Y-72225978D01*
X65408242Y-72047635D01*
X65252365Y-71891758D01*
X65074022Y-71762185D01*
X64877606Y-71662105D01*
X64784668Y-71631908D01*
X64667955Y-71593986D01*
X64667953Y-71593985D01*
X64667951Y-71593985D01*
X64450222Y-71559500D01*
X64229778Y-71559500D01*
X64012049Y-71593985D01*
X64012046Y-71593985D01*
X64012045Y-71593986D01*
X64012042Y-71593986D01*
X63802396Y-71662104D01*
X63605976Y-71762185D01*
X63510248Y-71831736D01*
X63358638Y-71916931D01*
X63191467Y-71964865D01*
X63017748Y-71972955D01*
X62846846Y-71940765D01*
X62687975Y-71870030D01*
X62629752Y-71831736D01*
X62534023Y-71762185D01*
X62410047Y-71699016D01*
X62337606Y-71662105D01*
X62244668Y-71631908D01*
X62127955Y-71593986D01*
X62127953Y-71593985D01*
X62127951Y-71593985D01*
X61910222Y-71559500D01*
X61689778Y-71559500D01*
X61472049Y-71593985D01*
X61472046Y-71593985D01*
X61472045Y-71593986D01*
X61472042Y-71593986D01*
X61262396Y-71662104D01*
X61065979Y-71762184D01*
X60887635Y-71891758D01*
X60887630Y-71891762D01*
X60731762Y-72047630D01*
X60731758Y-72047635D01*
X60602184Y-72225979D01*
X60502104Y-72422396D01*
X60433986Y-72632042D01*
X60433985Y-72632049D01*
X60431651Y-72646786D01*
X60384687Y-72814232D01*
X60300374Y-72966334D01*
X60183256Y-73094892D01*
X60039648Y-73192975D01*
X59877291Y-73255297D01*
X59704938Y-73278496D01*
X59531881Y-73261323D01*
X59367449Y-73204703D01*
X59220507Y-73111688D01*
X59098976Y-72987294D01*
X59057678Y-72928104D01*
X58952528Y-72760760D01*
X58952523Y-72760752D01*
X58777416Y-72541175D01*
X58578825Y-72342584D01*
X58359248Y-72167477D01*
X58359241Y-72167472D01*
X58359239Y-72167471D01*
X58121453Y-72018059D01*
X58121436Y-72018050D01*
X57868406Y-71896197D01*
X57653041Y-71820838D01*
X57603318Y-71803440D01*
X57603314Y-71803439D01*
X57603305Y-71803436D01*
X57329508Y-71740944D01*
X57171103Y-71723097D01*
X57050425Y-71709500D01*
X56769575Y-71709500D01*
X56657009Y-71722183D01*
X56490491Y-71740944D01*
X56216694Y-71803436D01*
X56216679Y-71803441D01*
X55951593Y-71896197D01*
X55698563Y-72018050D01*
X55698546Y-72018059D01*
X55460760Y-72167471D01*
X55460751Y-72167478D01*
X55241172Y-72342586D01*
X55042586Y-72541172D01*
X54867478Y-72760751D01*
X54867471Y-72760760D01*
X54718059Y-72998546D01*
X54718050Y-72998563D01*
X54596197Y-73251593D01*
X54503441Y-73516679D01*
X54503436Y-73516694D01*
X54440944Y-73790491D01*
X54426851Y-73915578D01*
X54409500Y-74069575D01*
X29540500Y-74069575D01*
X29540500Y-64001908D01*
X77499500Y-64001908D01*
X77499500Y-64238092D01*
X77536447Y-64471368D01*
X77609432Y-64695992D01*
X77609433Y-64695993D01*
X77609434Y-64695997D01*
X77716655Y-64906431D01*
X77855480Y-65097507D01*
X78022492Y-65264519D01*
X78213568Y-65403344D01*
X78401887Y-65499297D01*
X78424008Y-65510568D01*
X78648632Y-65583553D01*
X78881908Y-65620500D01*
X78881910Y-65620500D01*
X79118090Y-65620500D01*
X79118092Y-65620500D01*
X79351368Y-65583553D01*
X79575992Y-65510568D01*
X79786433Y-65403343D01*
X79977510Y-65264517D01*
X80144517Y-65097510D01*
X80283343Y-64906433D01*
X80390568Y-64695992D01*
X80463553Y-64471368D01*
X80500500Y-64238092D01*
X80500500Y-64001908D01*
X80463553Y-63768632D01*
X80390568Y-63544008D01*
X80283343Y-63333567D01*
X80167096Y-63173567D01*
X80144519Y-63142492D01*
X79977507Y-62975480D01*
X79786431Y-62836655D01*
X79575997Y-62729434D01*
X79575994Y-62729433D01*
X79575992Y-62729432D01*
X79351368Y-62656447D01*
X79118092Y-62619500D01*
X78881908Y-62619500D01*
X78726390Y-62644131D01*
X78648631Y-62656447D01*
X78586438Y-62676655D01*
X78424008Y-62729432D01*
X78424006Y-62729432D01*
X78424006Y-62729433D01*
X78424002Y-62729434D01*
X78213568Y-62836655D01*
X78022492Y-62975480D01*
X77855480Y-63142492D01*
X77716655Y-63333568D01*
X77609434Y-63544002D01*
X77609432Y-63544006D01*
X77609432Y-63544008D01*
X77536447Y-63768632D01*
X77499500Y-64001908D01*
X29540500Y-64001908D01*
X29540500Y-39289500D01*
X29560689Y-39116769D01*
X29620169Y-38953349D01*
X29715733Y-38808052D01*
X29842228Y-38688710D01*
X29992836Y-38601756D01*
X30159438Y-38551879D01*
X30289500Y-38540500D01*
X74675674Y-38540500D01*
X74848405Y-38560689D01*
G37*
G04 #@! TD.AperFunction*
G04 #@! TD*
D30*
X27000000Y-36000000D02*
X268500000Y-36000000D01*
X27000000Y-146500000D02*
X27000000Y-36000000D01*
X49500000Y-126500000D02*
X156000000Y-126500000D01*
X49500000Y-146500000D02*
X27000000Y-146500000D01*
X49500000Y-146500000D02*
X49500000Y-126500000D01*
X156000000Y-126500000D02*
X156000000Y-146500000D01*
X268500000Y-36000000D02*
X268500000Y-146500000D01*
X268500000Y-146500000D02*
X156000000Y-146500000D01*
M02*
