G04 #@! TF.GenerationSoftware,KiCad,Pcbnew,9.0.8-9.0.8~ubuntu24.04.1*
G04 #@! TF.CreationDate,2026-04-07T15:59:18+01:00*
G04 #@! TF.ProjectId,DeltaBot,44656c74-6142-46f7-942e-6b696361645f,rev?*
G04 #@! TF.SameCoordinates,Original*
G04 #@! TF.FileFunction,Copper,L1,Top*
G04 #@! TF.FilePolarity,Positive*
%FSLAX46Y46*%
G04 Gerber Fmt 4.6, Leading zero omitted, Abs format (unit mm)*
G04 Created by KiCad (PCBNEW 9.0.8-9.0.8~ubuntu24.04.1) date 2026-04-07 15:59:18*
%MOMM*%
%LPD*%
G01*
G04 APERTURE LIST*
%ADD10C,0.300000*%
G04 #@! TA.AperFunction,NonConductor*
%ADD11C,0.300000*%
G04 #@! TD*
%ADD12C,0.600000*%
G04 #@! TA.AperFunction,NonConductor*
%ADD13C,0.600000*%
G04 #@! TD*
%ADD14C,0.800000*%
G04 #@! TA.AperFunction,NonConductor*
%ADD15C,0.800000*%
G04 #@! TD*
G04 #@! TA.AperFunction,ComponentPad*
%ADD16C,2.000000*%
G04 #@! TD*
G04 #@! TA.AperFunction,ComponentPad*
%ADD17R,2.000000X2.000000*%
G04 #@! TD*
G04 #@! TA.AperFunction,ComponentPad*
%ADD18O,2.000000X2.000000*%
G04 #@! TD*
G04 #@! TA.AperFunction,ComponentPad*
%ADD19O,1.800000X2.000000*%
G04 #@! TD*
G04 #@! TA.AperFunction,ComponentPad*
%ADD20C,3.000000*%
G04 #@! TD*
G04 #@! TA.AperFunction,ComponentPad*
%ADD21C,2.250000*%
G04 #@! TD*
G04 #@! TA.AperFunction,ComponentPad*
%ADD22R,2.250000X2.250000*%
G04 #@! TD*
G04 #@! TA.AperFunction,ComponentPad*
%ADD23R,3.500000X3.500000*%
G04 #@! TD*
G04 #@! TA.AperFunction,ComponentPad*
%ADD24C,3.500000*%
G04 #@! TD*
G04 #@! TA.AperFunction,ComponentPad*
%ADD25R,2.400000X2.400000*%
G04 #@! TD*
G04 #@! TA.AperFunction,ComponentPad*
%ADD26C,2.400000*%
G04 #@! TD*
G04 #@! TA.AperFunction,ViaPad*
%ADD27C,2.500000*%
G04 #@! TD*
G04 #@! TA.AperFunction,ViaPad*
%ADD28C,3.000000*%
G04 #@! TD*
G04 #@! TA.AperFunction,Conductor*
%ADD29C,1.000000*%
G04 #@! TD*
G04 #@! TA.AperFunction,Conductor*
%ADD30C,2.000000*%
G04 #@! TD*
G04 #@! TA.AperFunction,Conductor*
%ADD31C,2.500000*%
G04 #@! TD*
G04 #@! TA.AperFunction,Conductor*
%ADD32C,1.800000*%
G04 #@! TD*
G04 #@! TA.AperFunction,Profile*
%ADD33C,0.300000*%
G04 #@! TD*
G04 APERTURE END LIST*
D10*
D11*
X182054510Y-136617257D02*
X182435463Y-136617257D01*
X182435463Y-136617257D02*
X182625939Y-136760114D01*
X182625939Y-136760114D02*
X182816415Y-137045828D01*
X182816415Y-137045828D02*
X182911653Y-137617257D01*
X182911653Y-137617257D02*
X182911653Y-138617257D01*
X182911653Y-138617257D02*
X182816415Y-139188685D01*
X182816415Y-139188685D02*
X182625939Y-139474400D01*
X182625939Y-139474400D02*
X182435463Y-139617257D01*
X182435463Y-139617257D02*
X182054510Y-139617257D01*
X182054510Y-139617257D02*
X181864034Y-139474400D01*
X181864034Y-139474400D02*
X181673558Y-139188685D01*
X181673558Y-139188685D02*
X181578320Y-138617257D01*
X181578320Y-138617257D02*
X181578320Y-137617257D01*
X181578320Y-137617257D02*
X181673558Y-137045828D01*
X181673558Y-137045828D02*
X181864034Y-136760114D01*
X181864034Y-136760114D02*
X182054510Y-136617257D01*
X184435463Y-138045828D02*
X183768796Y-138045828D01*
X183768796Y-139617257D02*
X183768796Y-136617257D01*
X183768796Y-136617257D02*
X184721177Y-136617257D01*
X186149749Y-138045828D02*
X185483082Y-138045828D01*
X185483082Y-139617257D02*
X185483082Y-136617257D01*
X185483082Y-136617257D02*
X186435463Y-136617257D01*
D10*
D11*
X203554510Y-136617257D02*
X203935463Y-136617257D01*
X203935463Y-136617257D02*
X204125939Y-136760114D01*
X204125939Y-136760114D02*
X204316415Y-137045828D01*
X204316415Y-137045828D02*
X204411653Y-137617257D01*
X204411653Y-137617257D02*
X204411653Y-138617257D01*
X204411653Y-138617257D02*
X204316415Y-139188685D01*
X204316415Y-139188685D02*
X204125939Y-139474400D01*
X204125939Y-139474400D02*
X203935463Y-139617257D01*
X203935463Y-139617257D02*
X203554510Y-139617257D01*
X203554510Y-139617257D02*
X203364034Y-139474400D01*
X203364034Y-139474400D02*
X203173558Y-139188685D01*
X203173558Y-139188685D02*
X203078320Y-138617257D01*
X203078320Y-138617257D02*
X203078320Y-137617257D01*
X203078320Y-137617257D02*
X203173558Y-137045828D01*
X203173558Y-137045828D02*
X203364034Y-136760114D01*
X203364034Y-136760114D02*
X203554510Y-136617257D01*
X205268796Y-139617257D02*
X205268796Y-136617257D01*
X205268796Y-136617257D02*
X206411653Y-139617257D01*
X206411653Y-139617257D02*
X206411653Y-136617257D01*
D12*
D13*
X265601657Y-142390978D02*
X262601657Y-142390978D01*
X262601657Y-142390978D02*
X262601657Y-141676692D01*
X262601657Y-141676692D02*
X262744514Y-141248121D01*
X262744514Y-141248121D02*
X263030228Y-140962406D01*
X263030228Y-140962406D02*
X263315942Y-140819549D01*
X263315942Y-140819549D02*
X263887371Y-140676692D01*
X263887371Y-140676692D02*
X264315942Y-140676692D01*
X264315942Y-140676692D02*
X264887371Y-140819549D01*
X264887371Y-140819549D02*
X265173085Y-140962406D01*
X265173085Y-140962406D02*
X265458800Y-141248121D01*
X265458800Y-141248121D02*
X265601657Y-141676692D01*
X265601657Y-141676692D02*
X265601657Y-142390978D01*
X265458800Y-138248121D02*
X265601657Y-138533835D01*
X265601657Y-138533835D02*
X265601657Y-139105264D01*
X265601657Y-139105264D02*
X265458800Y-139390978D01*
X265458800Y-139390978D02*
X265173085Y-139533835D01*
X265173085Y-139533835D02*
X264030228Y-139533835D01*
X264030228Y-139533835D02*
X263744514Y-139390978D01*
X263744514Y-139390978D02*
X263601657Y-139105264D01*
X263601657Y-139105264D02*
X263601657Y-138533835D01*
X263601657Y-138533835D02*
X263744514Y-138248121D01*
X263744514Y-138248121D02*
X264030228Y-138105264D01*
X264030228Y-138105264D02*
X264315942Y-138105264D01*
X264315942Y-138105264D02*
X264601657Y-139533835D01*
X265601657Y-136390977D02*
X265458800Y-136676692D01*
X265458800Y-136676692D02*
X265173085Y-136819549D01*
X265173085Y-136819549D02*
X262601657Y-136819549D01*
X263601657Y-135676691D02*
X263601657Y-134533834D01*
X262601657Y-135248120D02*
X265173085Y-135248120D01*
X265173085Y-135248120D02*
X265458800Y-135105263D01*
X265458800Y-135105263D02*
X265601657Y-134819548D01*
X265601657Y-134819548D02*
X265601657Y-134533834D01*
X265601657Y-132248120D02*
X264030228Y-132248120D01*
X264030228Y-132248120D02*
X263744514Y-132390977D01*
X263744514Y-132390977D02*
X263601657Y-132676691D01*
X263601657Y-132676691D02*
X263601657Y-133248120D01*
X263601657Y-133248120D02*
X263744514Y-133533834D01*
X265458800Y-132248120D02*
X265601657Y-132533834D01*
X265601657Y-132533834D02*
X265601657Y-133248120D01*
X265601657Y-133248120D02*
X265458800Y-133533834D01*
X265458800Y-133533834D02*
X265173085Y-133676691D01*
X265173085Y-133676691D02*
X264887371Y-133676691D01*
X264887371Y-133676691D02*
X264601657Y-133533834D01*
X264601657Y-133533834D02*
X264458800Y-133248120D01*
X264458800Y-133248120D02*
X264458800Y-132533834D01*
X264458800Y-132533834D02*
X264315942Y-132248120D01*
X264458800Y-130819548D02*
X264458800Y-128533834D01*
X264030228Y-126105262D02*
X264173085Y-125676690D01*
X264173085Y-125676690D02*
X264315942Y-125533833D01*
X264315942Y-125533833D02*
X264601657Y-125390976D01*
X264601657Y-125390976D02*
X265030228Y-125390976D01*
X265030228Y-125390976D02*
X265315942Y-125533833D01*
X265315942Y-125533833D02*
X265458800Y-125676690D01*
X265458800Y-125676690D02*
X265601657Y-125962405D01*
X265601657Y-125962405D02*
X265601657Y-127105262D01*
X265601657Y-127105262D02*
X262601657Y-127105262D01*
X262601657Y-127105262D02*
X262601657Y-126105262D01*
X262601657Y-126105262D02*
X262744514Y-125819548D01*
X262744514Y-125819548D02*
X262887371Y-125676690D01*
X262887371Y-125676690D02*
X263173085Y-125533833D01*
X263173085Y-125533833D02*
X263458800Y-125533833D01*
X263458800Y-125533833D02*
X263744514Y-125676690D01*
X263744514Y-125676690D02*
X263887371Y-125819548D01*
X263887371Y-125819548D02*
X264030228Y-126105262D01*
X264030228Y-126105262D02*
X264030228Y-127105262D01*
X265601657Y-123676690D02*
X265458800Y-123962405D01*
X265458800Y-123962405D02*
X265315942Y-124105262D01*
X265315942Y-124105262D02*
X265030228Y-124248119D01*
X265030228Y-124248119D02*
X264173085Y-124248119D01*
X264173085Y-124248119D02*
X263887371Y-124105262D01*
X263887371Y-124105262D02*
X263744514Y-123962405D01*
X263744514Y-123962405D02*
X263601657Y-123676690D01*
X263601657Y-123676690D02*
X263601657Y-123248119D01*
X263601657Y-123248119D02*
X263744514Y-122962405D01*
X263744514Y-122962405D02*
X263887371Y-122819548D01*
X263887371Y-122819548D02*
X264173085Y-122676690D01*
X264173085Y-122676690D02*
X265030228Y-122676690D01*
X265030228Y-122676690D02*
X265315942Y-122819548D01*
X265315942Y-122819548D02*
X265458800Y-122962405D01*
X265458800Y-122962405D02*
X265601657Y-123248119D01*
X265601657Y-123248119D02*
X265601657Y-123676690D01*
X263601657Y-121819547D02*
X263601657Y-120676690D01*
X262601657Y-121390976D02*
X265173085Y-121390976D01*
X265173085Y-121390976D02*
X265458800Y-121248119D01*
X265458800Y-121248119D02*
X265601657Y-120962404D01*
X265601657Y-120962404D02*
X265601657Y-120676690D01*
D14*
D15*
X265346495Y-43092732D02*
X260346495Y-41759399D01*
X260346495Y-41759399D02*
X265346495Y-40426065D01*
X265346495Y-40426065D02*
X265346495Y-43092732D01*
D16*
G04 #@! TO.P,C4,1*
G04 #@! TO.N,+5V*
X202750000Y-71750000D03*
G04 #@! TO.P,C4,2*
G04 #@! TO.N,GND*
X200250000Y-71750000D03*
G04 #@! TD*
D17*
G04 #@! TO.P,J3,1,Pin_1*
G04 #@! TO.N,PWM_L*
X202000000Y-114500000D03*
D18*
G04 #@! TO.P,J3,2,Pin_2*
G04 #@! TO.N,+5V*
X202000000Y-117040000D03*
G04 #@! TO.P,J3,3,Pin_3*
G04 #@! TO.N,GND*
X202000000Y-119580000D03*
G04 #@! TD*
D17*
G04 #@! TO.P,U1,1,3.3V*
G04 #@! TO.N,unconnected-(U1-3.3V-Pad1)*
X61800000Y-75500000D03*
D16*
G04 #@! TO.P,U1,2,5V1*
G04 #@! TO.N,+5V*
X61800000Y-72960000D03*
G04 #@! TO.P,U1,3,I2C7_SDA*
G04 #@! TO.N,unconnected-(U1-I2C7_SDA-Pad3)*
X64340000Y-75500000D03*
G04 #@! TO.P,U1,4,5V2*
G04 #@! TO.N,+5V*
X64340000Y-72960000D03*
G04 #@! TO.P,U1,5,I2C7_SCL*
G04 #@! TO.N,unconnected-(U1-I2C7_SCL-Pad5)*
X66880000Y-75500000D03*
G04 #@! TO.P,U1,6,GND1*
G04 #@! TO.N,GND*
X66880000Y-72960000D03*
G04 #@! TO.P,U1,7,GPIO2_B3*
G04 #@! TO.N,unconnected-(U1-GPIO2_B3-Pad7)*
X69420000Y-75500000D03*
G04 #@! TO.P,U1,8,GPIO4_C3*
G04 #@! TO.N,LIDAR_RX*
X69420000Y-72960000D03*
G04 #@! TO.P,U1,9,GND8*
G04 #@! TO.N,GND*
X71960000Y-75500000D03*
G04 #@! TO.P,U1,10,GPIO4_C4*
G04 #@! TO.N,LIDAR_TX*
X71960000Y-72960000D03*
G04 #@! TO.P,U1,11,GPIO4_C2*
G04 #@! TO.N,unconnected-(U1-GPIO4_C2-Pad11)*
X74500000Y-75500000D03*
G04 #@! TO.P,U1,12,GPIO4_A3*
G04 #@! TO.N,unconnected-(U1-GPIO4_A3-Pad12)*
X74500000Y-72960000D03*
G04 #@! TO.P,U1,13,GPIO4_C6*
G04 #@! TO.N,unconnected-(U1-GPIO4_C6-Pad13)*
X77040000Y-75500000D03*
G04 #@! TO.P,U1,14,GND2*
G04 #@! TO.N,GND*
X77040000Y-72960000D03*
G04 #@! TO.P,U1,15,GPIO4_D0*
G04 #@! TO.N,unconnected-(U1-GPIO4_D0-Pad15)*
X79580000Y-75500000D03*
G04 #@! TO.P,U1,16,GPIO4_D2*
G04 #@! TO.N,unconnected-(U1-GPIO4_D2-Pad16)*
X79580000Y-72960000D03*
G04 #@! TO.P,U1,17,3.3V1*
G04 #@! TO.N,unconnected-(U1-3.3V1-Pad17)*
X82120000Y-75500000D03*
G04 #@! TO.P,U1,18,GPIO4_D4*
G04 #@! TO.N,MOTO_CTRL*
X82120000Y-72960000D03*
D19*
G04 #@! TO.P,U1,19,GPIO1_B0*
G04 #@! TO.N,unconnected-(U1-GPIO1_B0-Pad19)*
X84660000Y-75500000D03*
D16*
G04 #@! TO.P,U1,20,GND3*
G04 #@! TO.N,GND*
X84660000Y-72960000D03*
G04 #@! TO.P,U1,21,GPIO1_A7*
G04 #@! TO.N,unconnected-(U1-GPIO1_A7-Pad21)*
X87200000Y-75500000D03*
G04 #@! TO.P,U1,22,GPIO4_D5*
G04 #@! TO.N,unconnected-(U1-GPIO4_D5-Pad22)*
X87200000Y-72960000D03*
G04 #@! TO.P,U1,23,GPIO1_B1*
G04 #@! TO.N,unconnected-(U1-GPIO1_B1-Pad23)*
X89740000Y-75500000D03*
G04 #@! TO.P,U1,24,GPIO1_B2*
G04 #@! TO.N,unconnected-(U1-GPIO1_B2-Pad24)*
X89740000Y-72960000D03*
G04 #@! TO.P,U1,25,GND7*
G04 #@! TO.N,GND*
X92280000Y-75500000D03*
G04 #@! TO.P,U1,26,ADC_IN0*
G04 #@! TO.N,unconnected-(U1-ADC_IN0-Pad26)*
X92280000Y-72960000D03*
G04 #@! TO.P,U1,27,GPIO2_A0*
G04 #@! TO.N,unconnected-(U1-GPIO2_A0-Pad27)*
X94820000Y-75500000D03*
G04 #@! TO.P,U1,28,GPIO2_A1*
G04 #@! TO.N,unconnected-(U1-GPIO2_A1-Pad28)*
X94820000Y-72960000D03*
G04 #@! TO.P,U1,29,GPIO2_B2*
G04 #@! TO.N,unconnected-(U1-GPIO2_B2-Pad29)*
X97360000Y-75500000D03*
G04 #@! TO.P,U1,30,GND4*
G04 #@! TO.N,GND*
X97360000Y-72960000D03*
G04 #@! TO.P,U1,31,GPIO2_B1*
G04 #@! TO.N,unconnected-(U1-GPIO2_B1-Pad31)*
X99900000Y-75500000D03*
G04 #@! TO.P,U1,32,GPIO3_C0*
G04 #@! TO.N,PWM_R*
X99900000Y-72960000D03*
D18*
G04 #@! TO.P,U1,33,GPIO2_B4*
G04 #@! TO.N,PWM_L*
X102440000Y-75500000D03*
D16*
G04 #@! TO.P,U1,34,GND5*
G04 #@! TO.N,GND*
X102440000Y-72960000D03*
D18*
G04 #@! TO.P,U1,35,GPIO4_A5*
G04 #@! TO.N,unconnected-(U1-GPIO4_A5-Pad35)*
X104980000Y-75500000D03*
D16*
G04 #@! TO.P,U1,36,GPIO4_A4*
G04 #@! TO.N,unconnected-(U1-GPIO4_A4-Pad36)*
X104980000Y-72960000D03*
G04 #@! TO.P,U1,37,GPIO4_D6*
G04 #@! TO.N,unconnected-(U1-GPIO4_D6-Pad37)*
X107520000Y-75500000D03*
G04 #@! TO.P,U1,38,GPIO4_A6*
G04 #@! TO.N,unconnected-(U1-GPIO4_A6-Pad38)*
X107520000Y-72960000D03*
G04 #@! TO.P,U1,39,GND6*
G04 #@! TO.N,GND*
X110060000Y-75500000D03*
G04 #@! TO.P,U1,40,GPIO4_A7*
G04 #@! TO.N,unconnected-(U1-GPIO4_A7-Pad40)*
X110060000Y-72960000D03*
G04 #@! TD*
D20*
G04 #@! TO.P,U2,1,IN+*
G04 #@! TO.N,+9V*
X111000000Y-107500000D03*
G04 #@! TO.P,U2,2,IN-*
G04 #@! TO.N,GND*
X111000000Y-93500000D03*
G04 #@! TO.P,U2,3,OUT+*
G04 #@! TO.N,+5V*
X54000000Y-107500000D03*
G04 #@! TO.P,U2,4,OUT-*
G04 #@! TO.N,GND*
X54000000Y-93500000D03*
G04 #@! TD*
D17*
G04 #@! TO.P,J2,1,Pin_1*
G04 #@! TO.N,+5V*
X79000000Y-53960000D03*
D16*
G04 #@! TO.P,J2,2,Pin_2*
G04 #@! TO.N,LIDAR_TX*
X79000000Y-56500000D03*
G04 #@! TO.P,J2,3,Pin_3*
G04 #@! TO.N,LIDAR_RX*
X79000000Y-59040000D03*
G04 #@! TO.P,J2,4,Pin_4*
G04 #@! TO.N,GND*
X79000000Y-61580000D03*
G04 #@! TO.P,J2,5,Pin_5*
G04 #@! TO.N,unconnected-(J2-Pin_5-Pad5)*
X79000000Y-64120000D03*
G04 #@! TD*
D21*
G04 #@! TO.P,J1,1,VCC*
G04 #@! TO.N,Net-(J1-VCC)*
X177000000Y-117500000D03*
D22*
X177000000Y-120500000D03*
D21*
G04 #@! TO.P,J1,2,GND*
G04 #@! TO.N,GND*
X159500000Y-117500000D03*
D22*
X159500000Y-120500000D03*
G04 #@! TD*
D16*
G04 #@! TO.P,C3,1*
G04 #@! TO.N,+5V*
X76750000Y-47000000D03*
G04 #@! TO.P,C3,2*
G04 #@! TO.N,GND*
X79250000Y-47000000D03*
G04 #@! TD*
D17*
G04 #@! TO.P,J4,1,Pin_1*
G04 #@! TO.N,PWM_R*
X201500000Y-66500000D03*
D18*
G04 #@! TO.P,J4,2,Pin_2*
G04 #@! TO.N,+5V*
X201500000Y-63960000D03*
G04 #@! TO.P,J4,3,Pin_3*
G04 #@! TO.N,GND*
X201500000Y-61420000D03*
G04 #@! TD*
D16*
G04 #@! TO.P,C5,1*
G04 #@! TO.N,+5V*
X199500000Y-124000000D03*
G04 #@! TO.P,C5,2*
G04 #@! TO.N,GND*
X202000000Y-124000000D03*
G04 #@! TD*
G04 #@! TO.P,C2,1*
G04 #@! TO.N,+5V*
X43250000Y-87000000D03*
G04 #@! TO.P,C2,2*
G04 #@! TO.N,GND*
X45750000Y-87000000D03*
G04 #@! TD*
D20*
G04 #@! TO.P,F1,1*
G04 #@! TO.N,Net-(SW1-B)*
X168500000Y-86250000D03*
G04 #@! TO.P,F1,2*
G04 #@! TO.N,Net-(J1-VCC)*
X168500000Y-108750000D03*
G04 #@! TD*
D23*
G04 #@! TO.P,SW1,1,A*
G04 #@! TO.N,+9V*
X190000000Y-138000000D03*
D24*
G04 #@! TO.P,SW1,2,B*
G04 #@! TO.N,Net-(SW1-B)*
X194699000Y-138000000D03*
G04 #@! TO.P,SW1,3,C*
G04 #@! TO.N,unconnected-(SW1-C-Pad3)*
X199398000Y-138000000D03*
G04 #@! TD*
D25*
G04 #@! TO.P,C1,1*
G04 #@! TO.N,+5V*
X40500000Y-99500000D03*
D26*
G04 #@! TO.P,C1,2*
G04 #@! TO.N,GND*
X45500000Y-99500000D03*
G04 #@! TD*
D16*
G04 #@! TO.P,C6,1*
G04 #@! TO.N,+5V*
X58500000Y-60000000D03*
G04 #@! TO.P,C6,2*
G04 #@! TO.N,GND*
X56000000Y-60000000D03*
G04 #@! TD*
D27*
G04 #@! TO.N,GND*
X110000000Y-78500000D03*
X72000000Y-78500000D03*
X205500000Y-120000000D03*
X217000000Y-135500000D03*
X206000000Y-112500000D03*
X196000000Y-71500000D03*
X156000000Y-114500000D03*
X82000000Y-47000000D03*
X240500000Y-58000000D03*
X202000000Y-129000000D03*
X84500000Y-69500000D03*
X194500000Y-60000000D03*
X77000000Y-69500000D03*
X197500000Y-60000000D03*
X156000000Y-119000000D03*
X92500000Y-78500000D03*
G04 #@! TO.N,LIDAR_TX*
X72000000Y-56500000D03*
G04 #@! TO.N,PWM_L*
X203500000Y-109000000D03*
D28*
G04 #@! TO.N,+5V*
X64000000Y-59500000D03*
D27*
G04 #@! TO.N,LIDAR_RX*
X69375000Y-59500000D03*
G04 #@! TO.N,PWM_R*
X191500000Y-66500000D03*
G04 #@! TD*
D29*
G04 #@! TO.N,LIDAR_TX*
X72000000Y-56500000D02*
X72000000Y-73030000D01*
X72000000Y-73030000D02*
X71915000Y-73115000D01*
G04 #@! TO.N,PWM_L*
X102395000Y-78395000D02*
X102395000Y-75655000D01*
X189500000Y-81000000D02*
X105000000Y-81000000D01*
X105000000Y-81000000D02*
X102395000Y-78395000D01*
X203500000Y-95000000D02*
X189500000Y-81000000D01*
X203500000Y-109000000D02*
X203500000Y-95000000D01*
D30*
G04 #@! TO.N,+5V*
X43250000Y-87000000D02*
X40500000Y-87000000D01*
D31*
X40500000Y-99500000D02*
X40500000Y-87000000D01*
D29*
X199500000Y-117000000D02*
X200500000Y-117000000D01*
D31*
X40500000Y-99500000D02*
X40500000Y-107500000D01*
X62000000Y-67500000D02*
X64000000Y-67500000D01*
X40500000Y-87000000D02*
X40500000Y-67500000D01*
D29*
X200500000Y-117000000D02*
X200540000Y-117040000D01*
D32*
X61800000Y-67700000D02*
X62000000Y-67500000D01*
X64340000Y-72960000D02*
X61800000Y-72960000D01*
D31*
X64000000Y-59500000D02*
X64000000Y-67500000D01*
X40500000Y-67500000D02*
X62000000Y-67500000D01*
D32*
X61800000Y-72960000D02*
X61800000Y-67700000D01*
D29*
X199500000Y-124000000D02*
X199500000Y-117000000D01*
X200540000Y-117040000D02*
X202000000Y-117040000D01*
D31*
X54000000Y-107500000D02*
X40500000Y-107500000D01*
D29*
G04 #@! TO.N,LIDAR_RX*
X69375000Y-59500000D02*
X69375000Y-73115000D01*
G04 #@! TO.N,PWM_R*
X191500000Y-66500000D02*
X102500000Y-66500000D01*
X99855000Y-69145000D02*
X99855000Y-73115000D01*
X102500000Y-66500000D02*
X99855000Y-69145000D01*
G04 #@! TD*
G04 #@! TA.AperFunction,Conductor*
G04 #@! TO.N,GND*
G36*
X258864663Y-38560689D02*
G01*
X259028083Y-38620169D01*
X259173380Y-38715733D01*
X259292722Y-38842228D01*
X259379676Y-38992836D01*
X259429553Y-39159438D01*
X259440932Y-39289500D01*
X259440932Y-39520502D01*
X259440932Y-43998295D01*
X265210500Y-43998295D01*
X265383231Y-44018484D01*
X265546651Y-44077964D01*
X265691948Y-44173528D01*
X265811290Y-44300023D01*
X265898244Y-44450631D01*
X265948121Y-44617233D01*
X265959500Y-44747295D01*
X265959500Y-119122190D01*
X265939311Y-119294921D01*
X265879831Y-119458341D01*
X265784267Y-119603638D01*
X265657772Y-119722980D01*
X265507164Y-119809934D01*
X265340562Y-119859811D01*
X265210500Y-119871190D01*
X261794338Y-119871190D01*
X261794338Y-143210500D01*
X261774149Y-143383231D01*
X261714669Y-143546651D01*
X261619105Y-143691948D01*
X261492610Y-143811290D01*
X261342002Y-143898244D01*
X261175400Y-143948121D01*
X261045338Y-143959500D01*
X159289500Y-143959500D01*
X159116769Y-143939311D01*
X158953349Y-143879831D01*
X158808052Y-143784267D01*
X158688710Y-143657772D01*
X158601756Y-143507164D01*
X158551879Y-143340562D01*
X158540500Y-143210500D01*
X158540500Y-135959095D01*
X180920024Y-135959095D01*
X180920024Y-140275419D01*
X187096201Y-140275419D01*
X187207586Y-140187347D01*
X187365199Y-140113850D01*
X187535513Y-140078682D01*
X187709347Y-140083740D01*
X187877329Y-140128750D01*
X187958303Y-140172410D01*
X187960646Y-140168120D01*
X188007663Y-140193793D01*
X188007666Y-140193794D01*
X188007669Y-140193796D01*
X188142517Y-140244091D01*
X188142522Y-140244092D01*
X188176241Y-140247716D01*
X188202127Y-140250500D01*
X191797872Y-140250499D01*
X191857483Y-140244091D01*
X191992331Y-140193796D01*
X192107546Y-140107546D01*
X192193796Y-139992331D01*
X192193797Y-139992327D01*
X192218330Y-139959556D01*
X192289811Y-139858605D01*
X192420331Y-139743677D01*
X192573836Y-139661947D01*
X192742052Y-139617821D01*
X192915910Y-139613677D01*
X193086037Y-139649739D01*
X193243261Y-139724063D01*
X193302660Y-139765244D01*
X193446006Y-139875238D01*
X193592050Y-139959556D01*
X193701493Y-140022743D01*
X193701504Y-140022748D01*
X193974045Y-140135638D01*
X193974054Y-140135641D01*
X194104586Y-140170616D01*
X194259007Y-140211993D01*
X194475485Y-140240493D01*
X194551485Y-140250499D01*
X194551490Y-140250499D01*
X194551494Y-140250500D01*
X194551495Y-140250500D01*
X194846505Y-140250500D01*
X194846506Y-140250500D01*
X195138993Y-140211993D01*
X195423952Y-140135639D01*
X195696507Y-140022743D01*
X195951994Y-139875238D01*
X196186042Y-139695646D01*
X196394646Y-139487042D01*
X196454283Y-139409321D01*
X196575446Y-139284581D01*
X196722118Y-139191141D01*
X196886385Y-139134044D01*
X197059391Y-139116368D01*
X197231811Y-139139067D01*
X197394348Y-139200917D01*
X197538240Y-139298583D01*
X197642716Y-139409320D01*
X197702354Y-139487042D01*
X197910958Y-139695646D01*
X198145006Y-139875238D01*
X198291050Y-139959556D01*
X198400493Y-140022743D01*
X198400504Y-140022748D01*
X198673045Y-140135638D01*
X198673054Y-140135641D01*
X198803586Y-140170616D01*
X198958007Y-140211993D01*
X199174485Y-140240493D01*
X199250485Y-140250499D01*
X199250490Y-140250499D01*
X199250494Y-140250500D01*
X199250495Y-140250500D01*
X199545505Y-140250500D01*
X199545506Y-140250500D01*
X199837993Y-140211993D01*
X200122952Y-140135639D01*
X200395507Y-140022743D01*
X200650994Y-139875238D01*
X200885042Y-139695646D01*
X201093646Y-139487042D01*
X201093649Y-139487037D01*
X201107889Y-139470801D01*
X201236956Y-139354244D01*
X201389423Y-139270594D01*
X201557072Y-139224361D01*
X201730865Y-139218036D01*
X201901431Y-139251961D01*
X202059575Y-139324307D01*
X202196773Y-139431174D01*
X202305628Y-139566799D01*
X202380271Y-139723873D01*
X202416678Y-139893927D01*
X202420024Y-139964642D01*
X202420024Y-140275419D01*
X207067946Y-140275419D01*
X207067946Y-135959095D01*
X202420024Y-135959095D01*
X202420024Y-136035357D01*
X202399835Y-136208088D01*
X202340355Y-136371508D01*
X202244791Y-136516805D01*
X202118296Y-136636147D01*
X201967688Y-136723101D01*
X201801086Y-136772978D01*
X201627474Y-136783090D01*
X201456208Y-136752891D01*
X201296524Y-136684010D01*
X201157029Y-136580160D01*
X201107896Y-136529207D01*
X201093646Y-136512958D01*
X200885045Y-136304357D01*
X200885042Y-136304354D01*
X200650994Y-136124762D01*
X200503488Y-136039599D01*
X200395506Y-135977256D01*
X200395495Y-135977251D01*
X200122954Y-135864361D01*
X200122945Y-135864358D01*
X199837994Y-135788007D01*
X199837988Y-135788006D01*
X199545514Y-135749500D01*
X199545506Y-135749500D01*
X199250494Y-135749500D01*
X199250485Y-135749500D01*
X198958011Y-135788006D01*
X198958005Y-135788007D01*
X198673054Y-135864358D01*
X198673045Y-135864361D01*
X198400504Y-135977251D01*
X198400493Y-135977256D01*
X198145006Y-136124762D01*
X197910954Y-136304357D01*
X197702357Y-136512954D01*
X197702354Y-136512958D01*
X197642717Y-136590677D01*
X197521551Y-136715420D01*
X197374879Y-136808860D01*
X197210612Y-136865956D01*
X197037605Y-136883631D01*
X196865185Y-136860931D01*
X196702649Y-136799080D01*
X196558757Y-136701413D01*
X196454283Y-136590678D01*
X196394646Y-136512958D01*
X196186042Y-136304354D01*
X195951994Y-136124762D01*
X195804488Y-136039599D01*
X195696506Y-135977256D01*
X195696495Y-135977251D01*
X195423954Y-135864361D01*
X195423945Y-135864358D01*
X195138994Y-135788007D01*
X195138988Y-135788006D01*
X194846514Y-135749500D01*
X194846506Y-135749500D01*
X194551494Y-135749500D01*
X194551485Y-135749500D01*
X194259011Y-135788006D01*
X194259005Y-135788007D01*
X193974054Y-135864358D01*
X193974045Y-135864361D01*
X193701504Y-135977251D01*
X193701493Y-135977256D01*
X193445999Y-136124766D01*
X193302668Y-136234748D01*
X193153341Y-136323883D01*
X192987482Y-136376178D01*
X192814035Y-136388813D01*
X192642349Y-136361108D01*
X192481680Y-136294557D01*
X192340689Y-136192746D01*
X192226978Y-136061165D01*
X192196654Y-136011487D01*
X192183313Y-135993666D01*
X192107546Y-135892454D01*
X191992331Y-135806204D01*
X191909450Y-135775291D01*
X191857482Y-135755908D01*
X191857477Y-135755907D01*
X191797878Y-135749500D01*
X188202128Y-135749500D01*
X188142519Y-135755908D01*
X188075093Y-135781056D01*
X188007669Y-135806204D01*
X188007668Y-135806204D01*
X188007667Y-135806205D01*
X187915540Y-135875171D01*
X187765162Y-135962523D01*
X187598694Y-136012840D01*
X187425108Y-136023411D01*
X187253764Y-135993666D01*
X187173032Y-135959095D01*
X187090963Y-135959095D01*
X180920024Y-135959095D01*
X158540500Y-135959095D01*
X158540500Y-126357334D01*
X158540500Y-126357329D01*
X158508552Y-126073780D01*
X158445057Y-125795591D01*
X158350814Y-125526261D01*
X158233832Y-125283344D01*
X158227017Y-125269192D01*
X158227009Y-125269177D01*
X158227009Y-125269176D01*
X158075197Y-125027569D01*
X158075191Y-125027561D01*
X157897293Y-124804483D01*
X157695519Y-124602709D01*
X157489071Y-124438073D01*
X157489070Y-124438072D01*
X157472433Y-124424804D01*
X157472431Y-124424803D01*
X157230822Y-124272990D01*
X157230807Y-124272982D01*
X156973752Y-124149192D01*
X156973732Y-124149183D01*
X156704400Y-124054940D01*
X156704397Y-124054939D01*
X156426219Y-123991447D01*
X156265280Y-123973314D01*
X156142671Y-123959500D01*
X156142665Y-123959500D01*
X153159500Y-123959500D01*
X152986769Y-123939311D01*
X152829056Y-123881908D01*
X197999500Y-123881908D01*
X197999500Y-124118092D01*
X198036447Y-124351368D01*
X198109432Y-124575992D01*
X198109433Y-124575993D01*
X198109434Y-124575997D01*
X198216655Y-124786431D01*
X198355480Y-124977507D01*
X198522492Y-125144519D01*
X198713568Y-125283344D01*
X198924002Y-125390565D01*
X198924008Y-125390568D01*
X199148632Y-125463553D01*
X199381908Y-125500500D01*
X199381910Y-125500500D01*
X199618090Y-125500500D01*
X199618092Y-125500500D01*
X199851368Y-125463553D01*
X200075992Y-125390568D01*
X200286433Y-125283343D01*
X200477510Y-125144517D01*
X200644517Y-124977510D01*
X200783343Y-124786433D01*
X200890568Y-124575992D01*
X200963553Y-124351368D01*
X201000500Y-124118092D01*
X201000500Y-123881908D01*
X200963553Y-123648632D01*
X200890568Y-123424008D01*
X200783343Y-123213567D01*
X200781115Y-123210500D01*
X200643547Y-123021154D01*
X200558351Y-122869544D01*
X200510416Y-122702374D01*
X200500500Y-122580902D01*
X200500500Y-119161411D01*
X200520689Y-118988680D01*
X200580169Y-118825260D01*
X200675733Y-118679963D01*
X200802228Y-118560621D01*
X200952836Y-118473667D01*
X201119438Y-118423790D01*
X201293050Y-118413678D01*
X201464316Y-118443877D01*
X201480861Y-118449040D01*
X201648632Y-118503553D01*
X201881908Y-118540500D01*
X201881910Y-118540500D01*
X202118090Y-118540500D01*
X202118092Y-118540500D01*
X202351368Y-118503553D01*
X202575992Y-118430568D01*
X202786433Y-118323343D01*
X202977510Y-118184517D01*
X203144517Y-118017510D01*
X203283343Y-117826433D01*
X203390568Y-117615992D01*
X203463553Y-117391368D01*
X203500500Y-117158092D01*
X203500500Y-116921908D01*
X203463553Y-116688632D01*
X203390568Y-116464008D01*
X203390564Y-116464001D01*
X203380302Y-116439224D01*
X203332855Y-116271915D01*
X203325270Y-116098173D01*
X203357958Y-115927365D01*
X203419539Y-115790128D01*
X203418120Y-115789354D01*
X203428035Y-115771195D01*
X203429155Y-115768700D01*
X203430465Y-115766744D01*
X203443793Y-115742336D01*
X203443793Y-115742334D01*
X203443796Y-115742331D01*
X203494091Y-115607483D01*
X203500500Y-115547873D01*
X203500499Y-113452128D01*
X203494091Y-113392517D01*
X203443796Y-113257669D01*
X203357546Y-113142454D01*
X203242331Y-113056204D01*
X203215333Y-113046134D01*
X203107485Y-113005909D01*
X203107477Y-113005907D01*
X203047878Y-112999500D01*
X200952128Y-112999500D01*
X200892519Y-113005908D01*
X200757668Y-113056204D01*
X200642454Y-113142454D01*
X200556204Y-113257669D01*
X200536821Y-113309636D01*
X200505908Y-113392517D01*
X200505907Y-113392522D01*
X200499500Y-113452116D01*
X200499500Y-113452126D01*
X200499500Y-113452127D01*
X200499500Y-114466270D01*
X200499501Y-115250500D01*
X200479312Y-115423231D01*
X200419832Y-115586650D01*
X200324269Y-115731948D01*
X200197773Y-115851290D01*
X200047165Y-115938244D01*
X199880564Y-115988121D01*
X199750501Y-115999500D01*
X199401452Y-115999500D01*
X199208168Y-116037948D01*
X199208167Y-116037948D01*
X199026083Y-116113369D01*
X198862220Y-116222859D01*
X198862215Y-116222863D01*
X198722863Y-116362215D01*
X198722859Y-116362220D01*
X198613369Y-116526083D01*
X198537948Y-116708167D01*
X198537948Y-116708168D01*
X198499500Y-116901452D01*
X198499500Y-122580902D01*
X198498382Y-122590466D01*
X198499255Y-122600056D01*
X198488302Y-122676706D01*
X198479311Y-122753633D01*
X198476016Y-122762683D01*
X198474655Y-122772214D01*
X198447549Y-122854990D01*
X198398666Y-122979306D01*
X198355483Y-123022490D01*
X198216657Y-123213567D01*
X198109432Y-123424008D01*
X198036447Y-123648632D01*
X197999500Y-123881908D01*
X152829056Y-123881908D01*
X152823349Y-123879831D01*
X152678052Y-123784267D01*
X152558710Y-123657772D01*
X152471756Y-123507164D01*
X152421879Y-123340562D01*
X152410500Y-123210500D01*
X152410500Y-123069580D01*
X152410500Y-123069575D01*
X152379055Y-122790491D01*
X152316560Y-122516682D01*
X152261481Y-122359275D01*
X152223802Y-122251593D01*
X152101949Y-121998563D01*
X152101940Y-121998546D01*
X151952528Y-121760760D01*
X151952523Y-121760752D01*
X151777416Y-121541175D01*
X151578825Y-121342584D01*
X151359248Y-121167477D01*
X151359241Y-121167472D01*
X151359239Y-121167471D01*
X151121453Y-121018059D01*
X151121436Y-121018050D01*
X150868406Y-120896197D01*
X150653041Y-120820838D01*
X150603318Y-120803440D01*
X150603314Y-120803439D01*
X150603305Y-120803436D01*
X150329508Y-120740944D01*
X150171103Y-120723097D01*
X150050425Y-120709500D01*
X149769575Y-120709500D01*
X149657009Y-120722183D01*
X149490491Y-120740944D01*
X149216694Y-120803436D01*
X149216679Y-120803441D01*
X148951593Y-120896197D01*
X148698563Y-121018050D01*
X148698546Y-121018059D01*
X148460760Y-121167471D01*
X148460751Y-121167478D01*
X148241172Y-121342586D01*
X148042586Y-121541172D01*
X147867478Y-121760751D01*
X147867471Y-121760760D01*
X147718059Y-121998546D01*
X147718050Y-121998563D01*
X147596197Y-122251593D01*
X147503441Y-122516679D01*
X147503436Y-122516694D01*
X147440944Y-122790491D01*
X147420830Y-122969009D01*
X147409500Y-123069575D01*
X147409500Y-123069580D01*
X147409500Y-123210500D01*
X147389311Y-123383231D01*
X147329831Y-123546651D01*
X147234267Y-123691948D01*
X147107772Y-123811290D01*
X146957164Y-123898244D01*
X146790562Y-123948121D01*
X146660500Y-123959500D01*
X118159500Y-123959500D01*
X117986769Y-123939311D01*
X117823349Y-123879831D01*
X117678052Y-123784267D01*
X117558710Y-123657772D01*
X117471756Y-123507164D01*
X117421879Y-123340562D01*
X117410500Y-123210500D01*
X117410500Y-123069580D01*
X117410500Y-123069575D01*
X117379055Y-122790491D01*
X117316560Y-122516682D01*
X117261481Y-122359275D01*
X117223802Y-122251593D01*
X117101949Y-121998563D01*
X117101940Y-121998546D01*
X116952528Y-121760760D01*
X116952523Y-121760752D01*
X116777416Y-121541175D01*
X116578825Y-121342584D01*
X116359248Y-121167477D01*
X116359241Y-121167472D01*
X116359239Y-121167471D01*
X116121453Y-121018059D01*
X116121436Y-121018050D01*
X115868406Y-120896197D01*
X115653041Y-120820838D01*
X115603318Y-120803440D01*
X115603314Y-120803439D01*
X115603305Y-120803436D01*
X115329508Y-120740944D01*
X115171103Y-120723097D01*
X115050425Y-120709500D01*
X114769575Y-120709500D01*
X114657009Y-120722183D01*
X114490491Y-120740944D01*
X114216694Y-120803436D01*
X114216679Y-120803441D01*
X113951593Y-120896197D01*
X113698563Y-121018050D01*
X113698546Y-121018059D01*
X113460760Y-121167471D01*
X113460751Y-121167478D01*
X113241172Y-121342586D01*
X113042586Y-121541172D01*
X112867478Y-121760751D01*
X112867471Y-121760760D01*
X112718059Y-121998546D01*
X112718050Y-121998563D01*
X112596197Y-122251593D01*
X112503441Y-122516679D01*
X112503436Y-122516694D01*
X112440944Y-122790491D01*
X112420830Y-122969009D01*
X112409500Y-123069575D01*
X112409500Y-123069580D01*
X112409500Y-123210500D01*
X112389311Y-123383231D01*
X112329831Y-123546651D01*
X112234267Y-123691948D01*
X112107772Y-123811290D01*
X111957164Y-123898244D01*
X111790562Y-123948121D01*
X111660500Y-123959500D01*
X60159500Y-123959500D01*
X59986769Y-123939311D01*
X59823349Y-123879831D01*
X59678052Y-123784267D01*
X59558710Y-123657772D01*
X59471756Y-123507164D01*
X59421879Y-123340562D01*
X59410500Y-123210500D01*
X59410500Y-123069580D01*
X59410500Y-123069575D01*
X59379055Y-122790491D01*
X59316560Y-122516682D01*
X59261481Y-122359275D01*
X59223802Y-122251593D01*
X59101949Y-121998563D01*
X59101940Y-121998546D01*
X58952528Y-121760760D01*
X58952523Y-121760752D01*
X58777416Y-121541175D01*
X58578825Y-121342584D01*
X58359248Y-121167477D01*
X58359241Y-121167472D01*
X58359239Y-121167471D01*
X58121453Y-121018059D01*
X58121436Y-121018050D01*
X57868406Y-120896197D01*
X57653041Y-120820838D01*
X57603318Y-120803440D01*
X57603314Y-120803439D01*
X57603305Y-120803436D01*
X57329508Y-120740944D01*
X57171103Y-120723097D01*
X57050425Y-120709500D01*
X56769575Y-120709500D01*
X56657009Y-120722183D01*
X56490491Y-120740944D01*
X56216694Y-120803436D01*
X56216679Y-120803441D01*
X55951593Y-120896197D01*
X55698563Y-121018050D01*
X55698546Y-121018059D01*
X55460760Y-121167471D01*
X55460751Y-121167478D01*
X55241172Y-121342586D01*
X55042586Y-121541172D01*
X54867478Y-121760751D01*
X54867471Y-121760760D01*
X54718059Y-121998546D01*
X54718050Y-121998563D01*
X54596197Y-122251593D01*
X54503441Y-122516679D01*
X54503436Y-122516694D01*
X54440944Y-122790491D01*
X54420830Y-122969009D01*
X54409500Y-123069575D01*
X54409500Y-123069580D01*
X54409500Y-123210500D01*
X54389311Y-123383231D01*
X54329831Y-123546651D01*
X54234267Y-123691948D01*
X54107772Y-123811290D01*
X53957164Y-123898244D01*
X53790562Y-123948121D01*
X53660500Y-123959500D01*
X49642671Y-123959500D01*
X49357329Y-123959500D01*
X49242962Y-123972385D01*
X49073780Y-123991447D01*
X48795602Y-124054939D01*
X48795599Y-124054940D01*
X48526267Y-124149183D01*
X48526247Y-124149192D01*
X48269192Y-124272982D01*
X48269177Y-124272990D01*
X48027568Y-124424803D01*
X48027561Y-124424808D01*
X47804483Y-124602706D01*
X47602706Y-124804483D01*
X47424808Y-125027561D01*
X47424803Y-125027568D01*
X47272990Y-125269177D01*
X47272982Y-125269192D01*
X47149192Y-125526247D01*
X47149183Y-125526267D01*
X47054940Y-125795599D01*
X47054939Y-125795602D01*
X46991447Y-126073780D01*
X46971012Y-126255154D01*
X46959500Y-126357329D01*
X46959500Y-126357334D01*
X46959500Y-143210500D01*
X46939311Y-143383231D01*
X46879831Y-143546651D01*
X46784267Y-143691948D01*
X46657772Y-143811290D01*
X46507164Y-143898244D01*
X46340562Y-143948121D01*
X46210500Y-143959500D01*
X30289500Y-143959500D01*
X30116769Y-143939311D01*
X29953349Y-143879831D01*
X29808052Y-143784267D01*
X29688710Y-143657772D01*
X29601756Y-143507164D01*
X29551879Y-143340562D01*
X29540500Y-143210500D01*
X29540500Y-117868880D01*
X163999500Y-117868880D01*
X163999500Y-118131120D01*
X164033730Y-118391116D01*
X164033731Y-118391121D01*
X164033732Y-118391125D01*
X164101602Y-118644421D01*
X164201952Y-118886687D01*
X164201953Y-118886690D01*
X164333075Y-119113802D01*
X164492715Y-119321848D01*
X164678151Y-119507284D01*
X164886197Y-119666924D01*
X165113303Y-119798043D01*
X165113305Y-119798044D01*
X165113309Y-119798046D01*
X165113312Y-119798047D01*
X165355578Y-119898397D01*
X165355579Y-119898397D01*
X165355581Y-119898398D01*
X165608884Y-119966270D01*
X165868880Y-120000500D01*
X166131119Y-120000500D01*
X166131120Y-120000500D01*
X166391116Y-119966270D01*
X166644419Y-119898398D01*
X166886697Y-119798043D01*
X167113803Y-119666924D01*
X167321851Y-119507282D01*
X167507282Y-119321851D01*
X167655780Y-119128325D01*
X167776948Y-119003581D01*
X167923620Y-118910141D01*
X168087887Y-118853044D01*
X168260894Y-118835369D01*
X168433313Y-118858069D01*
X168595850Y-118919919D01*
X168739742Y-119017586D01*
X168844219Y-119128325D01*
X168869607Y-119161411D01*
X168992715Y-119321848D01*
X169178151Y-119507284D01*
X169386197Y-119666924D01*
X169613303Y-119798043D01*
X169613305Y-119798044D01*
X169613309Y-119798046D01*
X169613312Y-119798047D01*
X169855578Y-119898397D01*
X169855579Y-119898397D01*
X169855581Y-119898398D01*
X170108884Y-119966270D01*
X170368880Y-120000500D01*
X170631119Y-120000500D01*
X170631120Y-120000500D01*
X170891116Y-119966270D01*
X171144419Y-119898398D01*
X171386697Y-119798043D01*
X171613803Y-119666924D01*
X171821851Y-119507282D01*
X172007282Y-119321851D01*
X172166924Y-119113803D01*
X172298043Y-118886697D01*
X172398398Y-118644419D01*
X172466270Y-118391116D01*
X172500500Y-118131120D01*
X172500500Y-117868880D01*
X172466270Y-117608884D01*
X172466267Y-117608874D01*
X172446875Y-117536501D01*
X172402816Y-117372070D01*
X175374500Y-117372070D01*
X175374500Y-117627930D01*
X175414526Y-117880639D01*
X175493590Y-118123975D01*
X175606843Y-118346245D01*
X175627376Y-118441958D01*
X175643867Y-118615082D01*
X175619988Y-118787342D01*
X175557028Y-118949452D01*
X175494642Y-119047926D01*
X175431205Y-119132666D01*
X175380908Y-119267517D01*
X175380907Y-119267522D01*
X175374500Y-119327116D01*
X175374500Y-121672871D01*
X175380908Y-121732480D01*
X175380908Y-121732482D01*
X175380909Y-121732483D01*
X175431204Y-121867331D01*
X175517454Y-121982546D01*
X175632669Y-122068796D01*
X175767517Y-122119091D01*
X175767522Y-122119092D01*
X175801241Y-122122716D01*
X175827127Y-122125500D01*
X178172872Y-122125499D01*
X178232483Y-122119091D01*
X178367331Y-122068796D01*
X178482546Y-121982546D01*
X178568796Y-121867331D01*
X178619091Y-121732483D01*
X178625500Y-121672873D01*
X178625499Y-119327128D01*
X178619091Y-119267517D01*
X178568796Y-119132669D01*
X178505356Y-119047925D01*
X178418006Y-118897552D01*
X178367688Y-118731084D01*
X178357115Y-118557498D01*
X178386860Y-118386153D01*
X178437595Y-118259029D01*
X178506410Y-118123975D01*
X178585474Y-117880639D01*
X178587337Y-117868880D01*
X178625499Y-117627934D01*
X178625500Y-117627930D01*
X178625500Y-117372070D01*
X178625499Y-117372065D01*
X178613775Y-117298046D01*
X178597566Y-117195704D01*
X178585476Y-117119371D01*
X178585473Y-117119359D01*
X178583508Y-117113312D01*
X178506410Y-116876025D01*
X178390252Y-116648053D01*
X178239862Y-116441058D01*
X178058942Y-116260138D01*
X178007634Y-116222861D01*
X177851950Y-116109750D01*
X177851949Y-116109749D01*
X177851947Y-116109748D01*
X177623975Y-115993590D01*
X177623972Y-115993589D01*
X177623970Y-115993588D01*
X177380640Y-115914526D01*
X177380628Y-115914523D01*
X177127934Y-115874500D01*
X177127930Y-115874500D01*
X176872070Y-115874500D01*
X176872065Y-115874500D01*
X176619371Y-115914523D01*
X176619359Y-115914526D01*
X176376029Y-115993588D01*
X176148049Y-116109750D01*
X175941058Y-116260137D01*
X175760137Y-116441058D01*
X175609750Y-116648049D01*
X175609748Y-116648053D01*
X175495808Y-116871673D01*
X175493588Y-116876029D01*
X175414526Y-117119359D01*
X175414523Y-117119371D01*
X175384419Y-117309440D01*
X175384419Y-117309442D01*
X175374500Y-117372070D01*
X172402816Y-117372070D01*
X172398398Y-117355581D01*
X172309901Y-117141930D01*
X172298047Y-117113312D01*
X172298046Y-117113309D01*
X172284507Y-117089859D01*
X172166924Y-116886197D01*
X172030316Y-116708167D01*
X172007284Y-116678151D01*
X171821848Y-116492715D01*
X171613802Y-116333075D01*
X171386690Y-116201953D01*
X171386687Y-116201952D01*
X171144421Y-116101602D01*
X170891125Y-116033732D01*
X170891121Y-116033731D01*
X170891116Y-116033730D01*
X170631120Y-115999500D01*
X170368880Y-115999500D01*
X170108884Y-116033730D01*
X170108878Y-116033731D01*
X170108874Y-116033732D01*
X169855578Y-116101602D01*
X169613312Y-116201952D01*
X169613309Y-116201953D01*
X169386197Y-116333075D01*
X169178151Y-116492715D01*
X168992714Y-116678152D01*
X168844220Y-116871673D01*
X168723050Y-116996419D01*
X168576378Y-117089859D01*
X168412111Y-117146955D01*
X168239104Y-117164630D01*
X168066685Y-117141930D01*
X167904148Y-117080079D01*
X167760257Y-116982412D01*
X167655780Y-116871673D01*
X167507285Y-116678152D01*
X167321848Y-116492715D01*
X167113802Y-116333075D01*
X166886690Y-116201953D01*
X166886687Y-116201952D01*
X166644421Y-116101602D01*
X166391125Y-116033732D01*
X166391121Y-116033731D01*
X166391116Y-116033730D01*
X166131120Y-115999500D01*
X165868880Y-115999500D01*
X165608884Y-116033730D01*
X165608878Y-116033731D01*
X165608874Y-116033732D01*
X165355578Y-116101602D01*
X165113312Y-116201952D01*
X165113309Y-116201953D01*
X164886197Y-116333075D01*
X164678151Y-116492715D01*
X164492715Y-116678151D01*
X164333075Y-116886197D01*
X164201953Y-117113309D01*
X164201952Y-117113312D01*
X164101602Y-117355578D01*
X164033732Y-117608874D01*
X164033732Y-117608875D01*
X164033730Y-117608884D01*
X163999500Y-117868880D01*
X29540500Y-117868880D01*
X29540500Y-115368880D01*
X53999500Y-115368880D01*
X53999500Y-115631120D01*
X54033730Y-115891116D01*
X54033731Y-115891121D01*
X54033732Y-115891125D01*
X54101602Y-116144421D01*
X54201952Y-116386687D01*
X54201953Y-116386690D01*
X54333075Y-116613802D01*
X54492715Y-116821848D01*
X54678151Y-117007284D01*
X54824212Y-117119361D01*
X54886197Y-117166924D01*
X55113303Y-117298043D01*
X55113305Y-117298044D01*
X55113309Y-117298046D01*
X55113312Y-117298047D01*
X55355578Y-117398397D01*
X55355579Y-117398397D01*
X55355581Y-117398398D01*
X55608884Y-117466270D01*
X55868880Y-117500500D01*
X56131119Y-117500500D01*
X56131120Y-117500500D01*
X56391116Y-117466270D01*
X56644419Y-117398398D01*
X56886697Y-117298043D01*
X57113803Y-117166924D01*
X57321851Y-117007282D01*
X57507282Y-116821851D01*
X57666924Y-116613803D01*
X57798043Y-116386697D01*
X57898398Y-116144419D01*
X57966270Y-115891116D01*
X58000500Y-115631120D01*
X58000500Y-115368880D01*
X106999500Y-115368880D01*
X106999500Y-115631120D01*
X107033730Y-115891116D01*
X107033731Y-115891121D01*
X107033732Y-115891125D01*
X107101602Y-116144421D01*
X107201952Y-116386687D01*
X107201953Y-116386690D01*
X107333075Y-116613802D01*
X107492715Y-116821848D01*
X107678151Y-117007284D01*
X107824212Y-117119361D01*
X107886197Y-117166924D01*
X108113303Y-117298043D01*
X108113305Y-117298044D01*
X108113309Y-117298046D01*
X108113312Y-117298047D01*
X108355578Y-117398397D01*
X108355579Y-117398397D01*
X108355581Y-117398398D01*
X108608884Y-117466270D01*
X108868880Y-117500500D01*
X109131119Y-117500500D01*
X109131120Y-117500500D01*
X109391116Y-117466270D01*
X109644419Y-117398398D01*
X109886697Y-117298043D01*
X110113803Y-117166924D01*
X110321851Y-117007282D01*
X110507282Y-116821851D01*
X110666924Y-116613803D01*
X110798043Y-116386697D01*
X110898398Y-116144419D01*
X110966270Y-115891116D01*
X111000500Y-115631120D01*
X111000500Y-115368880D01*
X110966270Y-115108884D01*
X110898398Y-114855581D01*
X110798047Y-114613312D01*
X110798046Y-114613309D01*
X110732916Y-114500500D01*
X110666924Y-114386197D01*
X110507282Y-114178149D01*
X110321851Y-113992718D01*
X110321848Y-113992715D01*
X110113802Y-113833075D01*
X109886690Y-113701953D01*
X109886687Y-113701952D01*
X109644421Y-113601602D01*
X109391125Y-113533732D01*
X109391121Y-113533731D01*
X109391116Y-113533730D01*
X109131120Y-113499500D01*
X108868880Y-113499500D01*
X108608884Y-113533730D01*
X108608878Y-113533731D01*
X108608874Y-113533732D01*
X108355578Y-113601602D01*
X108113312Y-113701952D01*
X108113309Y-113701953D01*
X107886197Y-113833075D01*
X107678151Y-113992715D01*
X107492715Y-114178151D01*
X107333075Y-114386197D01*
X107201953Y-114613309D01*
X107201952Y-114613312D01*
X107101602Y-114855578D01*
X107033732Y-115108874D01*
X107033731Y-115108878D01*
X107033730Y-115108884D01*
X106999500Y-115368880D01*
X58000500Y-115368880D01*
X57966270Y-115108884D01*
X57898398Y-114855581D01*
X57798047Y-114613312D01*
X57798046Y-114613309D01*
X57732916Y-114500500D01*
X57666924Y-114386197D01*
X57507282Y-114178149D01*
X57321851Y-113992718D01*
X57321848Y-113992715D01*
X57113802Y-113833075D01*
X56886690Y-113701953D01*
X56886687Y-113701952D01*
X56644421Y-113601602D01*
X56391125Y-113533732D01*
X56391121Y-113533731D01*
X56391116Y-113533730D01*
X56131120Y-113499500D01*
X55868880Y-113499500D01*
X55608884Y-113533730D01*
X55608878Y-113533731D01*
X55608874Y-113533732D01*
X55355578Y-113601602D01*
X55113312Y-113701952D01*
X55113309Y-113701953D01*
X54886197Y-113833075D01*
X54678151Y-113992715D01*
X54492715Y-114178151D01*
X54333075Y-114386197D01*
X54201953Y-114613309D01*
X54201952Y-114613312D01*
X54101602Y-114855578D01*
X54033732Y-115108874D01*
X54033731Y-115108878D01*
X54033730Y-115108884D01*
X53999500Y-115368880D01*
X29540500Y-115368880D01*
X29540500Y-112368880D01*
X214499500Y-112368880D01*
X214499500Y-112631120D01*
X214533730Y-112891116D01*
X214533731Y-112891121D01*
X214533732Y-112891125D01*
X214601602Y-113144421D01*
X214701952Y-113386687D01*
X214701953Y-113386690D01*
X214833075Y-113613802D01*
X214992715Y-113821848D01*
X215178151Y-114007284D01*
X215386197Y-114166924D01*
X215613303Y-114298043D01*
X215613305Y-114298044D01*
X215613309Y-114298046D01*
X215613312Y-114298047D01*
X215855578Y-114398397D01*
X215855579Y-114398397D01*
X215855581Y-114398398D01*
X216108884Y-114466270D01*
X216368880Y-114500500D01*
X216631119Y-114500500D01*
X216631120Y-114500500D01*
X216891116Y-114466270D01*
X217144419Y-114398398D01*
X217386697Y-114298043D01*
X217613803Y-114166924D01*
X217821851Y-114007282D01*
X218007282Y-113821851D01*
X218166924Y-113613803D01*
X218298043Y-113386697D01*
X218398398Y-113144419D01*
X218466270Y-112891116D01*
X218500500Y-112631120D01*
X218500500Y-112368880D01*
X257499500Y-112368880D01*
X257499500Y-112631120D01*
X257533730Y-112891116D01*
X257533731Y-112891121D01*
X257533732Y-112891125D01*
X257601602Y-113144421D01*
X257701952Y-113386687D01*
X257701953Y-113386690D01*
X257833075Y-113613802D01*
X257992715Y-113821848D01*
X258178151Y-114007284D01*
X258386197Y-114166924D01*
X258613303Y-114298043D01*
X258613305Y-114298044D01*
X258613309Y-114298046D01*
X258613312Y-114298047D01*
X258855578Y-114398397D01*
X258855579Y-114398397D01*
X258855581Y-114398398D01*
X259108884Y-114466270D01*
X259368880Y-114500500D01*
X259631119Y-114500500D01*
X259631120Y-114500500D01*
X259891116Y-114466270D01*
X260144419Y-114398398D01*
X260386697Y-114298043D01*
X260613803Y-114166924D01*
X260821851Y-114007282D01*
X261007282Y-113821851D01*
X261166924Y-113613803D01*
X261298043Y-113386697D01*
X261398398Y-113144419D01*
X261466270Y-112891116D01*
X261500500Y-112631120D01*
X261500500Y-112368880D01*
X261466270Y-112108884D01*
X261398398Y-111855581D01*
X261298047Y-111613312D01*
X261298046Y-111613309D01*
X261166924Y-111386197D01*
X261007284Y-111178151D01*
X260821848Y-110992715D01*
X260613802Y-110833075D01*
X260386690Y-110701953D01*
X260386687Y-110701952D01*
X260144421Y-110601602D01*
X259891125Y-110533732D01*
X259891121Y-110533731D01*
X259891116Y-110533730D01*
X259631120Y-110499500D01*
X259368880Y-110499500D01*
X259108884Y-110533730D01*
X259108878Y-110533731D01*
X259108874Y-110533732D01*
X258855578Y-110601602D01*
X258613312Y-110701952D01*
X258613309Y-110701953D01*
X258386197Y-110833075D01*
X258178151Y-110992715D01*
X257992715Y-111178151D01*
X257833075Y-111386197D01*
X257701953Y-111613309D01*
X257701952Y-111613312D01*
X257601602Y-111855578D01*
X257533732Y-112108874D01*
X257533731Y-112108878D01*
X257533730Y-112108884D01*
X257499500Y-112368880D01*
X218500500Y-112368880D01*
X218466270Y-112108884D01*
X218398398Y-111855581D01*
X218298047Y-111613312D01*
X218298046Y-111613309D01*
X218166924Y-111386197D01*
X218007284Y-111178151D01*
X217821848Y-110992715D01*
X217613802Y-110833075D01*
X217386690Y-110701953D01*
X217386687Y-110701952D01*
X217144421Y-110601602D01*
X216891125Y-110533732D01*
X216891121Y-110533731D01*
X216891116Y-110533730D01*
X216631120Y-110499500D01*
X216368880Y-110499500D01*
X216108884Y-110533730D01*
X216108878Y-110533731D01*
X216108874Y-110533732D01*
X215855578Y-110601602D01*
X215613312Y-110701952D01*
X215613309Y-110701953D01*
X215386197Y-110833075D01*
X215178151Y-110992715D01*
X214992715Y-111178151D01*
X214833075Y-111386197D01*
X214701953Y-111613309D01*
X214701952Y-111613312D01*
X214601602Y-111855578D01*
X214533732Y-112108874D01*
X214533731Y-112108878D01*
X214533730Y-112108884D01*
X214499500Y-112368880D01*
X29540500Y-112368880D01*
X29540500Y-67385259D01*
X38749500Y-67385259D01*
X38749500Y-107614740D01*
X38779451Y-107842236D01*
X38838841Y-108063887D01*
X38905210Y-108224113D01*
X38926656Y-108275888D01*
X39041389Y-108474612D01*
X39181081Y-108656661D01*
X39343339Y-108818919D01*
X39525388Y-108958611D01*
X39724112Y-109073344D01*
X39838490Y-109120721D01*
X39936112Y-109161158D01*
X40046937Y-109190853D01*
X40157762Y-109220548D01*
X40385266Y-109250500D01*
X52849540Y-109250500D01*
X53022271Y-109270689D01*
X53136164Y-109307512D01*
X53355581Y-109398398D01*
X53608884Y-109466270D01*
X53868880Y-109500500D01*
X54131119Y-109500500D01*
X54131120Y-109500500D01*
X54391116Y-109466270D01*
X54644419Y-109398398D01*
X54886697Y-109298043D01*
X55113803Y-109166924D01*
X55321851Y-109007282D01*
X55507282Y-108821851D01*
X55666924Y-108613803D01*
X55798043Y-108386697D01*
X55898398Y-108144419D01*
X55966270Y-107891116D01*
X56000500Y-107631120D01*
X56000500Y-107368880D01*
X108999500Y-107368880D01*
X108999500Y-107631120D01*
X109033730Y-107891116D01*
X109033731Y-107891121D01*
X109033732Y-107891125D01*
X109101602Y-108144421D01*
X109201952Y-108386687D01*
X109201953Y-108386690D01*
X109333075Y-108613802D01*
X109492715Y-108821848D01*
X109678151Y-109007284D01*
X109818182Y-109114734D01*
X109886197Y-109166924D01*
X110113303Y-109298043D01*
X110113305Y-109298044D01*
X110113309Y-109298046D01*
X110113312Y-109298047D01*
X110355578Y-109398397D01*
X110355579Y-109398397D01*
X110355581Y-109398398D01*
X110608884Y-109466270D01*
X110868880Y-109500500D01*
X111131119Y-109500500D01*
X111131120Y-109500500D01*
X111391116Y-109466270D01*
X111644419Y-109398398D01*
X111886697Y-109298043D01*
X112113803Y-109166924D01*
X112321851Y-109007282D01*
X112507282Y-108821851D01*
X112663028Y-108618880D01*
X166499500Y-108618880D01*
X166499500Y-108881120D01*
X166533730Y-109141116D01*
X166533731Y-109141121D01*
X166533732Y-109141125D01*
X166601602Y-109394421D01*
X166701952Y-109636687D01*
X166701953Y-109636690D01*
X166833075Y-109863802D01*
X166992715Y-110071848D01*
X167178151Y-110257284D01*
X167258471Y-110318916D01*
X167386197Y-110416924D01*
X167613303Y-110548043D01*
X167613305Y-110548044D01*
X167613309Y-110548046D01*
X167613312Y-110548047D01*
X167855578Y-110648397D01*
X167855579Y-110648397D01*
X167855581Y-110648398D01*
X168108884Y-110716270D01*
X168368880Y-110750500D01*
X168631119Y-110750500D01*
X168631120Y-110750500D01*
X168891116Y-110716270D01*
X169144419Y-110648398D01*
X169386697Y-110548043D01*
X169613803Y-110416924D01*
X169821851Y-110257282D01*
X170007282Y-110071851D01*
X170166924Y-109863803D01*
X170298043Y-109636697D01*
X170398398Y-109394419D01*
X170466270Y-109141116D01*
X170500500Y-108881120D01*
X170500500Y-108618880D01*
X170466270Y-108358884D01*
X170398398Y-108105581D01*
X170365180Y-108025385D01*
X170298047Y-107863312D01*
X170298046Y-107863309D01*
X170286516Y-107843339D01*
X170166924Y-107636197D01*
X170007282Y-107428149D01*
X169821851Y-107242718D01*
X169821848Y-107242715D01*
X169613802Y-107083075D01*
X169386690Y-106951953D01*
X169386687Y-106951952D01*
X169144421Y-106851602D01*
X168891125Y-106783732D01*
X168891121Y-106783731D01*
X168891116Y-106783730D01*
X168631120Y-106749500D01*
X168368880Y-106749500D01*
X168108884Y-106783730D01*
X168108878Y-106783731D01*
X168108874Y-106783732D01*
X167855578Y-106851602D01*
X167613312Y-106951952D01*
X167613309Y-106951953D01*
X167386197Y-107083075D01*
X167178151Y-107242715D01*
X166992715Y-107428151D01*
X166833075Y-107636197D01*
X166701953Y-107863309D01*
X166701952Y-107863312D01*
X166601602Y-108105578D01*
X166533732Y-108358874D01*
X166533731Y-108358878D01*
X166533730Y-108358884D01*
X166499500Y-108618880D01*
X112663028Y-108618880D01*
X112666924Y-108613803D01*
X112798043Y-108386697D01*
X112898398Y-108144419D01*
X112966270Y-107891116D01*
X113000500Y-107631120D01*
X113000500Y-107368880D01*
X112966270Y-107108884D01*
X112898398Y-106855581D01*
X112868637Y-106783732D01*
X112798047Y-106613312D01*
X112798046Y-106613309D01*
X112666924Y-106386197D01*
X112507284Y-106178151D01*
X112321848Y-105992715D01*
X112113802Y-105833075D01*
X111886690Y-105701953D01*
X111886687Y-105701952D01*
X111644421Y-105601602D01*
X111391125Y-105533732D01*
X111391121Y-105533731D01*
X111391116Y-105533730D01*
X111131120Y-105499500D01*
X110868880Y-105499500D01*
X110608884Y-105533730D01*
X110608878Y-105533731D01*
X110608874Y-105533732D01*
X110355578Y-105601602D01*
X110113312Y-105701952D01*
X110113309Y-105701953D01*
X109886197Y-105833075D01*
X109678151Y-105992715D01*
X109492715Y-106178151D01*
X109333075Y-106386197D01*
X109201953Y-106613309D01*
X109201952Y-106613312D01*
X109101602Y-106855578D01*
X109033732Y-107108874D01*
X109033731Y-107108878D01*
X109033730Y-107108884D01*
X108999500Y-107368880D01*
X56000500Y-107368880D01*
X55966270Y-107108884D01*
X55898398Y-106855581D01*
X55868637Y-106783732D01*
X55798047Y-106613312D01*
X55798046Y-106613309D01*
X55666924Y-106386197D01*
X55507284Y-106178151D01*
X55321848Y-105992715D01*
X55113802Y-105833075D01*
X54886690Y-105701953D01*
X54886687Y-105701952D01*
X54644421Y-105601602D01*
X54391125Y-105533732D01*
X54391121Y-105533731D01*
X54391116Y-105533730D01*
X54131120Y-105499500D01*
X53868880Y-105499500D01*
X53608884Y-105533730D01*
X53608878Y-105533731D01*
X53608874Y-105533732D01*
X53355580Y-105601602D01*
X53271421Y-105636462D01*
X53136166Y-105692486D01*
X52968863Y-105739934D01*
X52849540Y-105749500D01*
X42999500Y-105749500D01*
X42826769Y-105729311D01*
X42663349Y-105669831D01*
X42518052Y-105574267D01*
X42398710Y-105447772D01*
X42311756Y-105297164D01*
X42261879Y-105130562D01*
X42250500Y-105000500D01*
X42250500Y-97368880D01*
X166499500Y-97368880D01*
X166499500Y-97631120D01*
X166533730Y-97891116D01*
X166533731Y-97891121D01*
X166533732Y-97891125D01*
X166601602Y-98144421D01*
X166701952Y-98386687D01*
X166701953Y-98386690D01*
X166833075Y-98613802D01*
X166992715Y-98821848D01*
X167178151Y-99007284D01*
X167386197Y-99166924D01*
X167613303Y-99298043D01*
X167613305Y-99298044D01*
X167613309Y-99298046D01*
X167613312Y-99298047D01*
X167855578Y-99398397D01*
X167855579Y-99398397D01*
X167855581Y-99398398D01*
X168108884Y-99466270D01*
X168368880Y-99500500D01*
X168631119Y-99500500D01*
X168631120Y-99500500D01*
X168891116Y-99466270D01*
X169144419Y-99398398D01*
X169386697Y-99298043D01*
X169613803Y-99166924D01*
X169821851Y-99007282D01*
X170007282Y-98821851D01*
X170166924Y-98613803D01*
X170298043Y-98386697D01*
X170398398Y-98144419D01*
X170466270Y-97891116D01*
X170500500Y-97631120D01*
X170500500Y-97368880D01*
X170466270Y-97108884D01*
X170398398Y-96855581D01*
X170298047Y-96613312D01*
X170298046Y-96613309D01*
X170166924Y-96386197D01*
X170007284Y-96178151D01*
X169821848Y-95992715D01*
X169613802Y-95833075D01*
X169386690Y-95701953D01*
X169386687Y-95701952D01*
X169144421Y-95601602D01*
X168891125Y-95533732D01*
X168891121Y-95533731D01*
X168891116Y-95533730D01*
X168631120Y-95499500D01*
X168368880Y-95499500D01*
X168108884Y-95533730D01*
X168108878Y-95533731D01*
X168108874Y-95533732D01*
X167855578Y-95601602D01*
X167613312Y-95701952D01*
X167613309Y-95701953D01*
X167386197Y-95833075D01*
X167178151Y-95992715D01*
X166992715Y-96178151D01*
X166833075Y-96386197D01*
X166701953Y-96613309D01*
X166701952Y-96613312D01*
X166601602Y-96855578D01*
X166533732Y-97108874D01*
X166533731Y-97108878D01*
X166533730Y-97108884D01*
X166499500Y-97368880D01*
X42250500Y-97368880D01*
X42250500Y-89249500D01*
X42270689Y-89076769D01*
X42330169Y-88913349D01*
X42425733Y-88768052D01*
X42552228Y-88648710D01*
X42702836Y-88561756D01*
X42869438Y-88511879D01*
X42999500Y-88500500D01*
X43368090Y-88500500D01*
X43368092Y-88500500D01*
X43601368Y-88463553D01*
X43825992Y-88390568D01*
X44036433Y-88283343D01*
X44227510Y-88144517D01*
X44394517Y-87977510D01*
X44533343Y-87786433D01*
X44640568Y-87575992D01*
X44713553Y-87351368D01*
X44750500Y-87118092D01*
X44750500Y-86881908D01*
X44713553Y-86648632D01*
X44640568Y-86424008D01*
X44621552Y-86386687D01*
X44533344Y-86213568D01*
X44394519Y-86022492D01*
X44227507Y-85855480D01*
X44036431Y-85716655D01*
X43825997Y-85609434D01*
X43825994Y-85609433D01*
X43825992Y-85609432D01*
X43601368Y-85536447D01*
X43368092Y-85499500D01*
X43368089Y-85499500D01*
X42999500Y-85499500D01*
X42826769Y-85479311D01*
X42663349Y-85419831D01*
X42585882Y-85368880D01*
X53999500Y-85368880D01*
X53999500Y-85631120D01*
X54033730Y-85891116D01*
X54033731Y-85891121D01*
X54033732Y-85891125D01*
X54101602Y-86144421D01*
X54201952Y-86386687D01*
X54201953Y-86386690D01*
X54333075Y-86613802D01*
X54492715Y-86821848D01*
X54678151Y-87007284D01*
X54846805Y-87136697D01*
X54886197Y-87166924D01*
X55113303Y-87298043D01*
X55113305Y-87298044D01*
X55113309Y-87298046D01*
X55113312Y-87298047D01*
X55355578Y-87398397D01*
X55355579Y-87398397D01*
X55355581Y-87398398D01*
X55608884Y-87466270D01*
X55868880Y-87500500D01*
X56131119Y-87500500D01*
X56131120Y-87500500D01*
X56391116Y-87466270D01*
X56644419Y-87398398D01*
X56886697Y-87298043D01*
X57113803Y-87166924D01*
X57321851Y-87007282D01*
X57507282Y-86821851D01*
X57666924Y-86613803D01*
X57798043Y-86386697D01*
X57898398Y-86144419D01*
X57966270Y-85891116D01*
X58000500Y-85631120D01*
X58000500Y-85368880D01*
X106999500Y-85368880D01*
X106999500Y-85631120D01*
X107033730Y-85891116D01*
X107033731Y-85891121D01*
X107033732Y-85891125D01*
X107101602Y-86144421D01*
X107201952Y-86386687D01*
X107201953Y-86386690D01*
X107333075Y-86613802D01*
X107492715Y-86821848D01*
X107678151Y-87007284D01*
X107846805Y-87136697D01*
X107886197Y-87166924D01*
X108113303Y-87298043D01*
X108113305Y-87298044D01*
X108113309Y-87298046D01*
X108113312Y-87298047D01*
X108355578Y-87398397D01*
X108355579Y-87398397D01*
X108355581Y-87398398D01*
X108608884Y-87466270D01*
X108868880Y-87500500D01*
X109131119Y-87500500D01*
X109131120Y-87500500D01*
X109391116Y-87466270D01*
X109644419Y-87398398D01*
X109886697Y-87298043D01*
X110113803Y-87166924D01*
X110321851Y-87007282D01*
X110507282Y-86821851D01*
X110666924Y-86613803D01*
X110798043Y-86386697D01*
X110898398Y-86144419D01*
X110905241Y-86118880D01*
X166499500Y-86118880D01*
X166499500Y-86381120D01*
X166533730Y-86641116D01*
X166533731Y-86641121D01*
X166533732Y-86641125D01*
X166601602Y-86894421D01*
X166701952Y-87136687D01*
X166701953Y-87136690D01*
X166833075Y-87363802D01*
X166992715Y-87571848D01*
X167178151Y-87757284D01*
X167216136Y-87786431D01*
X167386197Y-87916924D01*
X167613303Y-88048043D01*
X167613305Y-88048044D01*
X167613309Y-88048046D01*
X167613312Y-88048047D01*
X167855578Y-88148397D01*
X167855579Y-88148397D01*
X167855581Y-88148398D01*
X168108884Y-88216270D01*
X168368880Y-88250500D01*
X168631119Y-88250500D01*
X168631120Y-88250500D01*
X168891116Y-88216270D01*
X169144419Y-88148398D01*
X169386697Y-88048043D01*
X169613803Y-87916924D01*
X169821851Y-87757282D01*
X170007282Y-87571851D01*
X170166924Y-87363803D01*
X170298043Y-87136697D01*
X170398398Y-86894419D01*
X170466270Y-86641116D01*
X170500500Y-86381120D01*
X170500500Y-86118880D01*
X170466270Y-85858884D01*
X170398398Y-85605581D01*
X170298047Y-85363312D01*
X170298046Y-85363309D01*
X170275505Y-85324267D01*
X170166924Y-85136197D01*
X170007282Y-84928149D01*
X169821851Y-84742718D01*
X169821848Y-84742715D01*
X169613802Y-84583075D01*
X169386690Y-84451953D01*
X169386687Y-84451952D01*
X169144421Y-84351602D01*
X168891125Y-84283732D01*
X168891121Y-84283731D01*
X168891116Y-84283730D01*
X168631120Y-84249500D01*
X168368880Y-84249500D01*
X168108884Y-84283730D01*
X168108878Y-84283731D01*
X168108874Y-84283732D01*
X167855578Y-84351602D01*
X167613312Y-84451952D01*
X167613309Y-84451953D01*
X167386197Y-84583075D01*
X167178151Y-84742715D01*
X166992715Y-84928151D01*
X166833075Y-85136197D01*
X166701953Y-85363309D01*
X166701952Y-85363312D01*
X166601602Y-85605578D01*
X166533732Y-85858874D01*
X166533731Y-85858878D01*
X166533730Y-85858884D01*
X166499500Y-86118880D01*
X110905241Y-86118880D01*
X110966270Y-85891116D01*
X111000500Y-85631120D01*
X111000500Y-85368880D01*
X110966270Y-85108884D01*
X110898398Y-84855581D01*
X110851649Y-84742718D01*
X110798047Y-84613312D01*
X110798046Y-84613309D01*
X110780591Y-84583076D01*
X110666924Y-84386197D01*
X110640378Y-84351602D01*
X110507284Y-84178151D01*
X110321848Y-83992715D01*
X110113802Y-83833075D01*
X109886690Y-83701953D01*
X109886687Y-83701952D01*
X109644421Y-83601602D01*
X109391125Y-83533732D01*
X109391121Y-83533731D01*
X109391116Y-83533730D01*
X109131120Y-83499500D01*
X108868880Y-83499500D01*
X108608884Y-83533730D01*
X108608878Y-83533731D01*
X108608874Y-83533732D01*
X108355578Y-83601602D01*
X108113312Y-83701952D01*
X108113309Y-83701953D01*
X107886197Y-83833075D01*
X107678151Y-83992715D01*
X107492715Y-84178151D01*
X107333075Y-84386197D01*
X107201953Y-84613309D01*
X107201952Y-84613312D01*
X107101602Y-84855578D01*
X107033732Y-85108874D01*
X107033731Y-85108878D01*
X107033730Y-85108884D01*
X106999500Y-85368880D01*
X58000500Y-85368880D01*
X57966270Y-85108884D01*
X57898398Y-84855581D01*
X57851649Y-84742718D01*
X57798047Y-84613312D01*
X57798046Y-84613309D01*
X57780591Y-84583076D01*
X57666924Y-84386197D01*
X57640378Y-84351602D01*
X57507284Y-84178151D01*
X57321848Y-83992715D01*
X57113802Y-83833075D01*
X56886690Y-83701953D01*
X56886687Y-83701952D01*
X56644421Y-83601602D01*
X56391125Y-83533732D01*
X56391121Y-83533731D01*
X56391116Y-83533730D01*
X56131120Y-83499500D01*
X55868880Y-83499500D01*
X55608884Y-83533730D01*
X55608878Y-83533731D01*
X55608874Y-83533732D01*
X55355578Y-83601602D01*
X55113312Y-83701952D01*
X55113309Y-83701953D01*
X54886197Y-83833075D01*
X54678151Y-83992715D01*
X54492715Y-84178151D01*
X54333075Y-84386197D01*
X54201953Y-84613309D01*
X54201952Y-84613312D01*
X54101602Y-84855578D01*
X54033732Y-85108874D01*
X54033731Y-85108878D01*
X54033730Y-85108884D01*
X53999500Y-85368880D01*
X42585882Y-85368880D01*
X42518052Y-85324267D01*
X42398710Y-85197772D01*
X42311756Y-85047164D01*
X42261879Y-84880562D01*
X42250500Y-84750500D01*
X42250500Y-69999500D01*
X42270689Y-69826769D01*
X42330169Y-69663349D01*
X42425733Y-69518052D01*
X42552228Y-69398710D01*
X42702836Y-69311756D01*
X42869438Y-69261879D01*
X42999500Y-69250500D01*
X59650500Y-69250500D01*
X59823231Y-69270689D01*
X59986651Y-69330169D01*
X60131948Y-69425733D01*
X60251290Y-69552228D01*
X60338244Y-69702836D01*
X60388121Y-69869438D01*
X60399500Y-69999500D01*
X60399500Y-72295945D01*
X60390958Y-72369025D01*
X60385050Y-72442359D01*
X60380229Y-72460816D01*
X60379311Y-72468676D01*
X60363086Y-72526645D01*
X60336447Y-72608632D01*
X60336355Y-72609210D01*
X60327229Y-72637400D01*
X60302957Y-72690398D01*
X60282843Y-72745092D01*
X60266865Y-72769208D01*
X60254818Y-72795515D01*
X60218982Y-72841482D01*
X60186793Y-72890069D01*
X60165682Y-72909852D01*
X60147895Y-72932669D01*
X60102423Y-72969133D01*
X60059898Y-73008986D01*
X60034796Y-73023366D01*
X60012224Y-73041468D01*
X59959568Y-73066463D01*
X59909000Y-73095434D01*
X59881257Y-73103638D01*
X59855120Y-73116046D01*
X59798124Y-73128223D01*
X59742232Y-73144753D01*
X59713340Y-73146338D01*
X59685051Y-73152383D01*
X59626787Y-73151088D01*
X59568586Y-73154283D01*
X59540110Y-73149163D01*
X59511187Y-73148521D01*
X59454786Y-73133823D01*
X59397423Y-73123510D01*
X59370895Y-73111961D01*
X59342900Y-73104666D01*
X59291411Y-73077358D01*
X59237971Y-73054094D01*
X59214821Y-73036739D01*
X59189263Y-73023184D01*
X59145459Y-72984738D01*
X59098825Y-72949777D01*
X59080301Y-72927550D01*
X59058558Y-72908467D01*
X59024802Y-72860958D01*
X58987486Y-72816182D01*
X58980447Y-72805193D01*
X58952525Y-72760755D01*
X58952524Y-72760754D01*
X58952523Y-72760752D01*
X58777416Y-72541175D01*
X58578825Y-72342584D01*
X58359248Y-72167477D01*
X58359241Y-72167472D01*
X58359239Y-72167471D01*
X58121453Y-72018059D01*
X58121436Y-72018050D01*
X57868406Y-71896197D01*
X57637726Y-71815480D01*
X57603318Y-71803440D01*
X57603314Y-71803439D01*
X57603305Y-71803436D01*
X57329508Y-71740944D01*
X57171103Y-71723097D01*
X57050425Y-71709500D01*
X56769575Y-71709500D01*
X56657009Y-71722183D01*
X56490491Y-71740944D01*
X56216694Y-71803436D01*
X56216679Y-71803441D01*
X55951593Y-71896197D01*
X55698563Y-72018050D01*
X55698546Y-72018059D01*
X55460760Y-72167471D01*
X55460753Y-72167476D01*
X55460752Y-72167477D01*
X55434928Y-72188071D01*
X55241172Y-72342586D01*
X55042586Y-72541172D01*
X54988789Y-72608632D01*
X54879966Y-72745092D01*
X54867478Y-72760751D01*
X54867471Y-72760760D01*
X54718059Y-72998546D01*
X54718050Y-72998563D01*
X54596197Y-73251593D01*
X54503441Y-73516679D01*
X54503436Y-73516694D01*
X54440944Y-73790491D01*
X54427044Y-73913868D01*
X54409500Y-74069575D01*
X54409500Y-74350425D01*
X54419497Y-74439147D01*
X54440944Y-74629508D01*
X54503436Y-74903305D01*
X54503439Y-74903314D01*
X54503440Y-74903318D01*
X54510680Y-74924008D01*
X54596197Y-75168406D01*
X54718050Y-75421436D01*
X54718059Y-75421453D01*
X54857718Y-75643717D01*
X54867477Y-75659248D01*
X55042584Y-75878825D01*
X55241175Y-76077416D01*
X55460752Y-76252523D01*
X55460760Y-76252528D01*
X55698546Y-76401940D01*
X55698563Y-76401949D01*
X55951593Y-76523802D01*
X56059275Y-76561481D01*
X56216682Y-76616560D01*
X56216691Y-76616562D01*
X56216694Y-76616563D01*
X56443116Y-76668242D01*
X56490491Y-76679055D01*
X56769575Y-76710500D01*
X56769581Y-76710500D01*
X57050419Y-76710500D01*
X57050425Y-76710500D01*
X57329509Y-76679055D01*
X57603318Y-76616560D01*
X57818684Y-76541199D01*
X57868406Y-76523802D01*
X57964532Y-76477510D01*
X58121445Y-76401945D01*
X58359248Y-76252523D01*
X58578825Y-76077416D01*
X58777416Y-75878825D01*
X58952523Y-75659248D01*
X58952528Y-75659238D01*
X58964907Y-75643717D01*
X59088388Y-75521258D01*
X59236781Y-75430576D01*
X59402087Y-75376561D01*
X59575394Y-75362124D01*
X59747359Y-75388043D01*
X59908711Y-75452921D01*
X60050752Y-75553261D01*
X60165824Y-75683654D01*
X60247724Y-75837068D01*
X60292036Y-76005235D01*
X60299500Y-76110708D01*
X60299500Y-76547871D01*
X60305908Y-76607480D01*
X60305908Y-76607482D01*
X60305909Y-76607483D01*
X60356204Y-76742331D01*
X60442454Y-76857546D01*
X60557669Y-76943796D01*
X60689584Y-76992997D01*
X60692517Y-76994091D01*
X60692522Y-76994092D01*
X60726241Y-76997716D01*
X60752127Y-77000500D01*
X62847872Y-77000499D01*
X62907483Y-76994091D01*
X63042331Y-76943796D01*
X63042334Y-76943794D01*
X63089354Y-76918120D01*
X63091356Y-76921787D01*
X63154036Y-76885369D01*
X63320499Y-76835031D01*
X63494083Y-76824440D01*
X63665431Y-76854165D01*
X63739224Y-76880302D01*
X63764001Y-76890564D01*
X63764008Y-76890568D01*
X63988632Y-76963553D01*
X64221908Y-77000500D01*
X64221910Y-77000500D01*
X64458090Y-77000500D01*
X64458092Y-77000500D01*
X64691368Y-76963553D01*
X64915992Y-76890568D01*
X65045776Y-76824440D01*
X65126428Y-76783346D01*
X65126430Y-76783344D01*
X65126433Y-76783343D01*
X65169749Y-76751871D01*
X65321356Y-76666678D01*
X65488527Y-76618742D01*
X65662246Y-76610650D01*
X65833148Y-76642839D01*
X65992020Y-76713573D01*
X66050246Y-76751868D01*
X66085939Y-76777801D01*
X66093571Y-76783346D01*
X66275913Y-76876253D01*
X66304008Y-76890568D01*
X66528632Y-76963553D01*
X66761908Y-77000500D01*
X66761910Y-77000500D01*
X66998090Y-77000500D01*
X66998092Y-77000500D01*
X67231368Y-76963553D01*
X67455992Y-76890568D01*
X67585776Y-76824440D01*
X67666428Y-76783346D01*
X67666430Y-76783344D01*
X67666433Y-76783343D01*
X67709749Y-76751871D01*
X67861356Y-76666678D01*
X68028527Y-76618742D01*
X68202246Y-76610650D01*
X68373148Y-76642839D01*
X68532020Y-76713573D01*
X68590246Y-76751868D01*
X68625939Y-76777801D01*
X68633571Y-76783346D01*
X68815913Y-76876253D01*
X68844008Y-76890568D01*
X69068632Y-76963553D01*
X69301908Y-77000500D01*
X69301910Y-77000500D01*
X69538090Y-77000500D01*
X69538092Y-77000500D01*
X69771368Y-76963553D01*
X69995992Y-76890568D01*
X70206433Y-76783343D01*
X70397510Y-76644517D01*
X70564517Y-76477510D01*
X70703343Y-76286433D01*
X70810568Y-76075992D01*
X70883553Y-75851368D01*
X70920500Y-75618092D01*
X70920500Y-75381908D01*
X70908368Y-75305313D01*
X70901288Y-75131556D01*
X70934470Y-74960844D01*
X71006127Y-74802386D01*
X71112396Y-74664724D01*
X71247546Y-74555280D01*
X71404294Y-74479955D01*
X71574187Y-74442808D01*
X71648147Y-74439147D01*
X71707089Y-74439147D01*
X71841908Y-74460500D01*
X72078092Y-74460500D01*
X72212911Y-74439147D01*
X72271852Y-74439147D01*
X72300063Y-74442444D01*
X72328442Y-74441288D01*
X72386167Y-74452508D01*
X72444583Y-74459336D01*
X72471274Y-74469050D01*
X72499154Y-74474470D01*
X72552734Y-74498700D01*
X72608003Y-74518816D01*
X72631735Y-74534425D01*
X72657612Y-74546127D01*
X72704161Y-74582061D01*
X72753300Y-74614380D01*
X72772791Y-74635039D01*
X72795274Y-74652395D01*
X72832285Y-74698099D01*
X72872642Y-74740875D01*
X72886842Y-74765471D01*
X72904718Y-74787545D01*
X72930190Y-74840551D01*
X72959596Y-74891483D01*
X72967742Y-74918694D01*
X72980044Y-74944293D01*
X72992605Y-75001742D01*
X73009473Y-75058085D01*
X73011124Y-75086441D01*
X73017191Y-75114186D01*
X73016165Y-75172981D01*
X73019585Y-75231697D01*
X73014652Y-75259670D01*
X73014157Y-75288067D01*
X73011631Y-75305312D01*
X72999500Y-75381903D01*
X72999500Y-75381907D01*
X72999500Y-75381908D01*
X72999500Y-75618092D01*
X73036447Y-75851368D01*
X73109432Y-76075992D01*
X73109433Y-76075993D01*
X73109434Y-76075997D01*
X73216655Y-76286431D01*
X73355480Y-76477507D01*
X73522492Y-76644519D01*
X73713568Y-76783344D01*
X73895913Y-76876253D01*
X73924008Y-76890568D01*
X74148632Y-76963553D01*
X74381908Y-77000500D01*
X74381910Y-77000500D01*
X74618090Y-77000500D01*
X74618092Y-77000500D01*
X74851368Y-76963553D01*
X75075992Y-76890568D01*
X75205776Y-76824440D01*
X75286428Y-76783346D01*
X75286430Y-76783344D01*
X75286433Y-76783343D01*
X75329749Y-76751871D01*
X75481356Y-76666678D01*
X75648527Y-76618742D01*
X75822246Y-76610650D01*
X75993148Y-76642839D01*
X76152020Y-76713573D01*
X76210246Y-76751868D01*
X76245939Y-76777801D01*
X76253571Y-76783346D01*
X76435913Y-76876253D01*
X76464008Y-76890568D01*
X76688632Y-76963553D01*
X76921908Y-77000500D01*
X76921910Y-77000500D01*
X77158090Y-77000500D01*
X77158092Y-77000500D01*
X77391368Y-76963553D01*
X77615992Y-76890568D01*
X77745776Y-76824440D01*
X77826428Y-76783346D01*
X77826430Y-76783344D01*
X77826433Y-76783343D01*
X77869749Y-76751871D01*
X78021356Y-76666678D01*
X78188527Y-76618742D01*
X78362246Y-76610650D01*
X78533148Y-76642839D01*
X78692020Y-76713573D01*
X78750246Y-76751868D01*
X78785939Y-76777801D01*
X78793571Y-76783346D01*
X78975913Y-76876253D01*
X79004008Y-76890568D01*
X79228632Y-76963553D01*
X79461908Y-77000500D01*
X79461910Y-77000500D01*
X79698090Y-77000500D01*
X79698092Y-77000500D01*
X79931368Y-76963553D01*
X80155992Y-76890568D01*
X80285776Y-76824440D01*
X80366428Y-76783346D01*
X80366430Y-76783344D01*
X80366433Y-76783343D01*
X80409749Y-76751871D01*
X80561356Y-76666678D01*
X80728527Y-76618742D01*
X80902246Y-76610650D01*
X81073148Y-76642839D01*
X81232020Y-76713573D01*
X81290246Y-76751868D01*
X81325939Y-76777801D01*
X81333571Y-76783346D01*
X81515913Y-76876253D01*
X81544008Y-76890568D01*
X81768632Y-76963553D01*
X82001908Y-77000500D01*
X82001910Y-77000500D01*
X82238090Y-77000500D01*
X82238092Y-77000500D01*
X82471368Y-76963553D01*
X82695992Y-76890568D01*
X82906433Y-76783343D01*
X82965992Y-76740070D01*
X83117595Y-76654877D01*
X83284764Y-76606939D01*
X83458483Y-76598846D01*
X83629386Y-76631033D01*
X83788259Y-76701765D01*
X83846486Y-76740061D01*
X83925978Y-76797815D01*
X84122394Y-76897895D01*
X84332049Y-76966015D01*
X84549778Y-77000500D01*
X84549782Y-77000500D01*
X84770218Y-77000500D01*
X84770222Y-77000500D01*
X84987951Y-76966015D01*
X85197606Y-76897895D01*
X85394022Y-76797815D01*
X85473509Y-76740063D01*
X85625111Y-76654874D01*
X85792281Y-76606938D01*
X85966000Y-76598846D01*
X86136902Y-76631035D01*
X86295774Y-76701769D01*
X86354002Y-76740066D01*
X86413567Y-76783343D01*
X86413570Y-76783345D01*
X86595913Y-76876253D01*
X86624008Y-76890568D01*
X86848632Y-76963553D01*
X87081908Y-77000500D01*
X87081910Y-77000500D01*
X87318090Y-77000500D01*
X87318092Y-77000500D01*
X87551368Y-76963553D01*
X87775992Y-76890568D01*
X87905776Y-76824440D01*
X87986428Y-76783346D01*
X87986430Y-76783344D01*
X87986433Y-76783343D01*
X88029749Y-76751871D01*
X88181356Y-76666678D01*
X88348527Y-76618742D01*
X88522246Y-76610650D01*
X88693148Y-76642839D01*
X88852020Y-76713573D01*
X88910246Y-76751868D01*
X88945939Y-76777801D01*
X88953571Y-76783346D01*
X89135913Y-76876253D01*
X89164008Y-76890568D01*
X89388632Y-76963553D01*
X89621908Y-77000500D01*
X89621910Y-77000500D01*
X89858090Y-77000500D01*
X89858092Y-77000500D01*
X90091368Y-76963553D01*
X90315992Y-76890568D01*
X90526433Y-76783343D01*
X90717510Y-76644517D01*
X90884517Y-76477510D01*
X91023343Y-76286433D01*
X91130568Y-76075992D01*
X91203553Y-75851368D01*
X91240500Y-75618092D01*
X91240500Y-75381908D01*
X91228368Y-75305313D01*
X91221288Y-75131556D01*
X91254470Y-74960844D01*
X91326127Y-74802386D01*
X91432396Y-74664724D01*
X91567546Y-74555280D01*
X91724294Y-74479955D01*
X91894187Y-74442808D01*
X91968147Y-74439147D01*
X92027089Y-74439147D01*
X92161908Y-74460500D01*
X92398092Y-74460500D01*
X92532911Y-74439147D01*
X92591852Y-74439147D01*
X92620063Y-74442444D01*
X92648442Y-74441288D01*
X92706167Y-74452508D01*
X92764583Y-74459336D01*
X92791274Y-74469050D01*
X92819154Y-74474470D01*
X92872734Y-74498700D01*
X92928003Y-74518816D01*
X92951735Y-74534425D01*
X92977612Y-74546127D01*
X93024161Y-74582061D01*
X93073300Y-74614380D01*
X93092791Y-74635039D01*
X93115274Y-74652395D01*
X93152285Y-74698099D01*
X93192642Y-74740875D01*
X93206842Y-74765471D01*
X93224718Y-74787545D01*
X93250190Y-74840551D01*
X93279596Y-74891483D01*
X93287742Y-74918694D01*
X93300044Y-74944293D01*
X93312605Y-75001742D01*
X93329473Y-75058085D01*
X93331124Y-75086441D01*
X93337191Y-75114186D01*
X93336165Y-75172981D01*
X93339585Y-75231697D01*
X93334652Y-75259670D01*
X93334157Y-75288067D01*
X93331631Y-75305312D01*
X93319500Y-75381903D01*
X93319500Y-75381907D01*
X93319500Y-75381908D01*
X93319500Y-75618092D01*
X93356447Y-75851368D01*
X93429432Y-76075992D01*
X93429433Y-76075993D01*
X93429434Y-76075997D01*
X93536655Y-76286431D01*
X93675480Y-76477507D01*
X93842492Y-76644519D01*
X94033568Y-76783344D01*
X94215913Y-76876253D01*
X94244008Y-76890568D01*
X94468632Y-76963553D01*
X94701908Y-77000500D01*
X94701910Y-77000500D01*
X94938090Y-77000500D01*
X94938092Y-77000500D01*
X95171368Y-76963553D01*
X95395992Y-76890568D01*
X95525776Y-76824440D01*
X95606428Y-76783346D01*
X95606430Y-76783344D01*
X95606433Y-76783343D01*
X95649749Y-76751871D01*
X95801356Y-76666678D01*
X95968527Y-76618742D01*
X96142246Y-76610650D01*
X96313148Y-76642839D01*
X96472020Y-76713573D01*
X96530246Y-76751868D01*
X96565939Y-76777801D01*
X96573571Y-76783346D01*
X96755913Y-76876253D01*
X96784008Y-76890568D01*
X97008632Y-76963553D01*
X97241908Y-77000500D01*
X97241910Y-77000500D01*
X97478090Y-77000500D01*
X97478092Y-77000500D01*
X97711368Y-76963553D01*
X97935992Y-76890568D01*
X98065776Y-76824440D01*
X98146428Y-76783346D01*
X98146430Y-76783344D01*
X98146433Y-76783343D01*
X98189749Y-76751871D01*
X98341356Y-76666678D01*
X98508527Y-76618742D01*
X98682246Y-76610650D01*
X98853148Y-76642839D01*
X99012020Y-76713573D01*
X99070246Y-76751868D01*
X99105939Y-76777801D01*
X99113571Y-76783346D01*
X99295913Y-76876253D01*
X99324008Y-76890568D01*
X99548632Y-76963553D01*
X99781908Y-77000500D01*
X99781910Y-77000500D01*
X100018090Y-77000500D01*
X100018092Y-77000500D01*
X100251368Y-76963553D01*
X100414047Y-76910695D01*
X100584559Y-76876519D01*
X100758361Y-76882588D01*
X100926078Y-76928574D01*
X101078668Y-77011999D01*
X101207907Y-77128365D01*
X101306826Y-77271399D01*
X101370093Y-77433390D01*
X101394297Y-77605604D01*
X101394500Y-77623036D01*
X101394500Y-78493547D01*
X101432948Y-78686831D01*
X101432948Y-78686832D01*
X101508369Y-78868916D01*
X101617859Y-79032779D01*
X101617863Y-79032784D01*
X101799909Y-79214830D01*
X101799914Y-79214834D01*
X104222860Y-81637781D01*
X104222861Y-81637782D01*
X104362218Y-81777139D01*
X104526086Y-81886632D01*
X104632745Y-81930811D01*
X104708164Y-81962051D01*
X104901459Y-82000500D01*
X105098540Y-82000500D01*
X188775334Y-82000500D01*
X188948065Y-82020689D01*
X189111485Y-82080169D01*
X189256782Y-82175733D01*
X189304957Y-82219877D01*
X202280123Y-95195043D01*
X202387986Y-95331459D01*
X202461483Y-95489072D01*
X202496650Y-95659386D01*
X202499500Y-95724666D01*
X202499500Y-107214674D01*
X202479311Y-107387405D01*
X202419831Y-107550825D01*
X202324267Y-107696122D01*
X202280123Y-107744297D01*
X202181083Y-107843336D01*
X202181077Y-107843343D01*
X202041391Y-108025385D01*
X201926655Y-108224113D01*
X201926653Y-108224118D01*
X201838841Y-108436112D01*
X201779451Y-108657763D01*
X201749500Y-108885259D01*
X201749500Y-109114740D01*
X201779451Y-109342236D01*
X201838841Y-109563887D01*
X201926653Y-109775881D01*
X201926656Y-109775888D01*
X202041389Y-109974612D01*
X202181081Y-110156661D01*
X202343339Y-110318919D01*
X202525388Y-110458611D01*
X202724112Y-110573344D01*
X202792333Y-110601602D01*
X202936112Y-110661158D01*
X203046937Y-110690853D01*
X203157762Y-110720548D01*
X203385266Y-110750500D01*
X203385267Y-110750500D01*
X203614733Y-110750500D01*
X203614734Y-110750500D01*
X203842238Y-110720548D01*
X204063887Y-110661158D01*
X204275888Y-110573344D01*
X204474612Y-110458611D01*
X204656661Y-110318919D01*
X204818919Y-110156661D01*
X204958611Y-109974612D01*
X205073344Y-109775888D01*
X205161158Y-109563887D01*
X205220548Y-109342238D01*
X205250500Y-109114734D01*
X205250500Y-108885266D01*
X205220548Y-108657762D01*
X205161158Y-108436113D01*
X205129164Y-108358874D01*
X205094790Y-108275888D01*
X205073344Y-108224112D01*
X204958611Y-108025388D01*
X204818919Y-107843339D01*
X204719877Y-107744297D01*
X204612014Y-107607881D01*
X204538517Y-107450268D01*
X204503350Y-107279954D01*
X204500500Y-107214674D01*
X204500500Y-94901459D01*
X204500499Y-94901452D01*
X204485246Y-94824774D01*
X204462051Y-94708165D01*
X204386632Y-94526086D01*
X204277139Y-94362218D01*
X204137782Y-94222861D01*
X204118993Y-94204072D01*
X204118978Y-94204058D01*
X190303301Y-80388381D01*
X190303297Y-80388376D01*
X190137780Y-80222859D01*
X190056400Y-80168484D01*
X189973914Y-80113368D01*
X189973911Y-80113366D01*
X189973910Y-80113366D01*
X189845174Y-80060041D01*
X189791846Y-80037952D01*
X189791837Y-80037949D01*
X189791836Y-80037949D01*
X189791833Y-80037948D01*
X189791828Y-80037947D01*
X189695192Y-80018724D01*
X189695188Y-80018724D01*
X189662392Y-80012200D01*
X189598543Y-79999500D01*
X189598541Y-79999500D01*
X105724667Y-79999500D01*
X105551936Y-79979311D01*
X105388516Y-79919831D01*
X105243219Y-79824267D01*
X105195044Y-79780123D01*
X103614877Y-78199956D01*
X103567657Y-78140237D01*
X103518720Y-78081915D01*
X103513805Y-78072128D01*
X103507014Y-78063540D01*
X103474840Y-77994544D01*
X103440670Y-77926506D01*
X103438144Y-77915851D01*
X103433517Y-77905927D01*
X103418122Y-77831372D01*
X103400564Y-77757287D01*
X103399675Y-77742033D01*
X103398350Y-77735613D01*
X103395500Y-77670333D01*
X103395500Y-77593787D01*
X103415689Y-77421056D01*
X103475169Y-77257636D01*
X103570733Y-77112339D01*
X103697228Y-76992997D01*
X103847836Y-76906043D01*
X104014438Y-76856166D01*
X104188050Y-76846054D01*
X104359316Y-76876253D01*
X104375787Y-76882192D01*
X104376021Y-76881474D01*
X104404005Y-76890566D01*
X104404008Y-76890568D01*
X104628632Y-76963553D01*
X104861908Y-77000500D01*
X104861910Y-77000500D01*
X105098090Y-77000500D01*
X105098092Y-77000500D01*
X105331368Y-76963553D01*
X105555992Y-76890568D01*
X105685776Y-76824440D01*
X105766428Y-76783346D01*
X105766430Y-76783344D01*
X105766433Y-76783343D01*
X105809749Y-76751871D01*
X105961356Y-76666678D01*
X106128527Y-76618742D01*
X106302246Y-76610650D01*
X106473148Y-76642839D01*
X106632020Y-76713573D01*
X106690246Y-76751868D01*
X106725939Y-76777801D01*
X106733571Y-76783346D01*
X106915913Y-76876253D01*
X106944008Y-76890568D01*
X107168632Y-76963553D01*
X107401908Y-77000500D01*
X107401910Y-77000500D01*
X107638090Y-77000500D01*
X107638092Y-77000500D01*
X107871368Y-76963553D01*
X108095992Y-76890568D01*
X108306433Y-76783343D01*
X108497510Y-76644517D01*
X108664517Y-76477510D01*
X108803343Y-76286433D01*
X108910568Y-76075992D01*
X108983553Y-75851368D01*
X109020500Y-75618092D01*
X109020500Y-75381908D01*
X109008368Y-75305313D01*
X109001288Y-75131556D01*
X109034470Y-74960844D01*
X109106127Y-74802386D01*
X109212396Y-74664724D01*
X109347546Y-74555280D01*
X109504294Y-74479955D01*
X109674187Y-74442808D01*
X109848068Y-74445842D01*
X109865269Y-74448361D01*
X109941908Y-74460500D01*
X109941910Y-74460500D01*
X110178090Y-74460500D01*
X110178092Y-74460500D01*
X110411368Y-74423553D01*
X110635992Y-74350568D01*
X110846433Y-74243343D01*
X111037510Y-74104517D01*
X111145894Y-73996132D01*
X111282305Y-73888272D01*
X111439918Y-73814775D01*
X111610232Y-73779607D01*
X111784066Y-73784665D01*
X111952048Y-73829675D01*
X112105121Y-73912210D01*
X112235035Y-74027823D01*
X112334784Y-74170279D01*
X112398993Y-74331899D01*
X112419805Y-74441895D01*
X112440943Y-74629499D01*
X112440943Y-74629504D01*
X112503436Y-74903305D01*
X112503439Y-74903314D01*
X112503440Y-74903318D01*
X112510680Y-74924008D01*
X112596197Y-75168406D01*
X112718050Y-75421436D01*
X112718059Y-75421453D01*
X112857718Y-75643717D01*
X112867477Y-75659248D01*
X113042584Y-75878825D01*
X113241175Y-76077416D01*
X113460752Y-76252523D01*
X113460760Y-76252528D01*
X113698546Y-76401940D01*
X113698563Y-76401949D01*
X113951593Y-76523802D01*
X114059275Y-76561481D01*
X114216682Y-76616560D01*
X114216691Y-76616562D01*
X114216694Y-76616563D01*
X114443116Y-76668242D01*
X114490491Y-76679055D01*
X114769575Y-76710500D01*
X114769581Y-76710500D01*
X115050419Y-76710500D01*
X115050425Y-76710500D01*
X115329509Y-76679055D01*
X115603318Y-76616560D01*
X115818684Y-76541199D01*
X115868406Y-76523802D01*
X115964532Y-76477510D01*
X116121445Y-76401945D01*
X116359248Y-76252523D01*
X116578825Y-76077416D01*
X116777416Y-75878825D01*
X116952523Y-75659248D01*
X117101945Y-75421445D01*
X117223801Y-75168408D01*
X117316560Y-74903318D01*
X117379055Y-74629509D01*
X117410500Y-74350425D01*
X117410500Y-74069575D01*
X147409500Y-74069575D01*
X147409500Y-74350425D01*
X147419497Y-74439147D01*
X147440944Y-74629508D01*
X147503436Y-74903305D01*
X147503439Y-74903314D01*
X147503440Y-74903318D01*
X147510680Y-74924008D01*
X147596197Y-75168406D01*
X147718050Y-75421436D01*
X147718059Y-75421453D01*
X147857718Y-75643717D01*
X147867477Y-75659248D01*
X148042584Y-75878825D01*
X148241175Y-76077416D01*
X148460752Y-76252523D01*
X148460760Y-76252528D01*
X148698546Y-76401940D01*
X148698563Y-76401949D01*
X148951593Y-76523802D01*
X149059275Y-76561481D01*
X149216682Y-76616560D01*
X149216691Y-76616562D01*
X149216694Y-76616563D01*
X149443116Y-76668242D01*
X149490491Y-76679055D01*
X149769575Y-76710500D01*
X149769581Y-76710500D01*
X150050419Y-76710500D01*
X150050425Y-76710500D01*
X150329509Y-76679055D01*
X150603318Y-76616560D01*
X150818684Y-76541199D01*
X150868406Y-76523802D01*
X150964532Y-76477510D01*
X151121445Y-76401945D01*
X151359248Y-76252523D01*
X151578825Y-76077416D01*
X151777416Y-75878825D01*
X151952523Y-75659248D01*
X152101945Y-75421445D01*
X152223801Y-75168408D01*
X152316560Y-74903318D01*
X152379055Y-74629509D01*
X152410500Y-74350425D01*
X152410500Y-74069575D01*
X152379055Y-73790491D01*
X152340015Y-73619444D01*
X152316563Y-73516694D01*
X152316562Y-73516691D01*
X152316560Y-73516682D01*
X152251142Y-73329729D01*
X152223802Y-73251593D01*
X152101949Y-72998563D01*
X152101940Y-72998546D01*
X151952528Y-72760760D01*
X151952523Y-72760752D01*
X151777416Y-72541175D01*
X151578825Y-72342584D01*
X151385070Y-72188069D01*
X151359256Y-72167483D01*
X151359239Y-72167471D01*
X151121453Y-72018059D01*
X151121436Y-72018050D01*
X150868406Y-71896197D01*
X150637726Y-71815480D01*
X150603318Y-71803440D01*
X150603314Y-71803439D01*
X150603305Y-71803436D01*
X150329508Y-71740944D01*
X150171103Y-71723097D01*
X150050425Y-71709500D01*
X149769575Y-71709500D01*
X149657009Y-71722183D01*
X149490491Y-71740944D01*
X149216694Y-71803436D01*
X149216679Y-71803441D01*
X148951593Y-71896197D01*
X148698563Y-72018050D01*
X148698546Y-72018059D01*
X148460760Y-72167471D01*
X148460753Y-72167476D01*
X148460752Y-72167477D01*
X148434928Y-72188071D01*
X148241172Y-72342586D01*
X148042586Y-72541172D01*
X147988789Y-72608632D01*
X147879966Y-72745092D01*
X147867478Y-72760751D01*
X147867471Y-72760760D01*
X147718059Y-72998546D01*
X147718050Y-72998563D01*
X147596197Y-73251593D01*
X147503441Y-73516679D01*
X147503436Y-73516694D01*
X147440944Y-73790491D01*
X147427044Y-73913868D01*
X147409500Y-74069575D01*
X117410500Y-74069575D01*
X117379055Y-73790491D01*
X117340015Y-73619444D01*
X117316563Y-73516694D01*
X117316562Y-73516691D01*
X117316560Y-73516682D01*
X117251142Y-73329729D01*
X117223802Y-73251593D01*
X117101949Y-72998563D01*
X117101940Y-72998546D01*
X116952528Y-72760760D01*
X116952523Y-72760752D01*
X116777416Y-72541175D01*
X116578825Y-72342584D01*
X116359248Y-72167477D01*
X116359241Y-72167472D01*
X116359239Y-72167471D01*
X116121453Y-72018059D01*
X116121436Y-72018050D01*
X115868406Y-71896197D01*
X115637726Y-71815480D01*
X115603318Y-71803440D01*
X115603314Y-71803439D01*
X115603305Y-71803436D01*
X115329508Y-71740944D01*
X115171103Y-71723097D01*
X115050425Y-71709500D01*
X114769575Y-71709500D01*
X114657009Y-71722183D01*
X114490491Y-71740944D01*
X114216694Y-71803436D01*
X114216679Y-71803441D01*
X113951593Y-71896197D01*
X113698563Y-72018050D01*
X113698546Y-72018059D01*
X113460760Y-72167471D01*
X113460753Y-72167476D01*
X113460752Y-72167477D01*
X113434928Y-72188071D01*
X113241172Y-72342586D01*
X113042586Y-72541172D01*
X112988789Y-72608632D01*
X112879966Y-72745092D01*
X112867478Y-72760751D01*
X112867468Y-72760764D01*
X112865998Y-72763105D01*
X112864385Y-72765109D01*
X112855316Y-72777892D01*
X112854544Y-72777344D01*
X112757002Y-72898618D01*
X112619693Y-73005342D01*
X112461473Y-73077523D01*
X112290872Y-73111271D01*
X112117087Y-73104765D01*
X111949486Y-73058357D01*
X111797105Y-72974549D01*
X111668159Y-72857859D01*
X111569600Y-72714576D01*
X111519467Y-72596057D01*
X111478078Y-72468676D01*
X111450568Y-72384008D01*
X111442934Y-72369025D01*
X111343344Y-72173568D01*
X111204519Y-71982492D01*
X111037507Y-71815480D01*
X110846431Y-71676655D01*
X110758610Y-71631908D01*
X201249500Y-71631908D01*
X201249500Y-71868092D01*
X201286447Y-72101368D01*
X201359432Y-72325992D01*
X201359433Y-72325993D01*
X201359434Y-72325997D01*
X201466655Y-72536431D01*
X201605480Y-72727507D01*
X201772492Y-72894519D01*
X201963568Y-73033344D01*
X202160770Y-73133823D01*
X202174008Y-73140568D01*
X202398632Y-73213553D01*
X202631908Y-73250500D01*
X202631910Y-73250500D01*
X202868090Y-73250500D01*
X202868092Y-73250500D01*
X203101368Y-73213553D01*
X203325992Y-73140568D01*
X203536433Y-73033343D01*
X203727510Y-72894517D01*
X203894517Y-72727510D01*
X204033343Y-72536433D01*
X204140568Y-72325992D01*
X204213553Y-72101368D01*
X204250500Y-71868092D01*
X204250500Y-71631908D01*
X204213553Y-71398632D01*
X204140568Y-71174008D01*
X204136959Y-71166924D01*
X204033344Y-70963568D01*
X203894519Y-70772492D01*
X203727507Y-70605480D01*
X203536431Y-70466655D01*
X203325997Y-70359434D01*
X203325994Y-70359433D01*
X203325992Y-70359432D01*
X203101368Y-70286447D01*
X202868092Y-70249500D01*
X202631908Y-70249500D01*
X202476390Y-70274131D01*
X202398631Y-70286447D01*
X202290517Y-70321575D01*
X202174008Y-70359432D01*
X202174006Y-70359432D01*
X202174006Y-70359433D01*
X202174002Y-70359434D01*
X201963568Y-70466655D01*
X201772492Y-70605480D01*
X201605480Y-70772492D01*
X201466655Y-70963568D01*
X201359434Y-71174002D01*
X201359432Y-71174006D01*
X201359432Y-71174008D01*
X201345298Y-71217508D01*
X201286447Y-71398631D01*
X201276436Y-71461842D01*
X201249500Y-71631908D01*
X110758610Y-71631908D01*
X110635997Y-71569434D01*
X110635994Y-71569433D01*
X110635992Y-71569432D01*
X110411368Y-71496447D01*
X110178092Y-71459500D01*
X109941908Y-71459500D01*
X109838943Y-71475808D01*
X109708631Y-71496447D01*
X109600517Y-71531575D01*
X109484008Y-71569432D01*
X109484006Y-71569432D01*
X109484006Y-71569433D01*
X109484002Y-71569434D01*
X109273568Y-71676655D01*
X109230247Y-71708130D01*
X109078637Y-71793324D01*
X108911466Y-71841258D01*
X108737747Y-71849348D01*
X108566845Y-71817158D01*
X108407974Y-71746422D01*
X108349753Y-71708130D01*
X108306431Y-71676655D01*
X108095997Y-71569434D01*
X108095994Y-71569433D01*
X108095992Y-71569432D01*
X107871368Y-71496447D01*
X107638092Y-71459500D01*
X107401908Y-71459500D01*
X107298943Y-71475808D01*
X107168631Y-71496447D01*
X107060517Y-71531575D01*
X106944008Y-71569432D01*
X106944006Y-71569432D01*
X106944006Y-71569433D01*
X106944002Y-71569434D01*
X106733568Y-71676655D01*
X106690247Y-71708130D01*
X106538637Y-71793324D01*
X106371466Y-71841258D01*
X106197747Y-71849348D01*
X106026845Y-71817158D01*
X105867974Y-71746422D01*
X105809753Y-71708130D01*
X105766431Y-71676655D01*
X105555997Y-71569434D01*
X105555994Y-71569433D01*
X105555992Y-71569432D01*
X105331368Y-71496447D01*
X105098092Y-71459500D01*
X104861908Y-71459500D01*
X104758943Y-71475808D01*
X104628631Y-71496447D01*
X104520517Y-71531575D01*
X104404008Y-71569432D01*
X104404006Y-71569432D01*
X104404006Y-71569433D01*
X104404002Y-71569434D01*
X104193568Y-71676655D01*
X104002492Y-71815480D01*
X103835480Y-71982492D01*
X103696655Y-72173568D01*
X103589434Y-72384002D01*
X103589432Y-72384006D01*
X103589432Y-72384008D01*
X103561922Y-72468676D01*
X103539907Y-72536431D01*
X103516447Y-72608632D01*
X103479568Y-72841482D01*
X103479500Y-72841910D01*
X103479500Y-73078092D01*
X103491631Y-73154685D01*
X103498711Y-73328449D01*
X103465527Y-73499160D01*
X103393869Y-73657618D01*
X103287599Y-73795279D01*
X103152448Y-73904722D01*
X102995700Y-73980046D01*
X102825806Y-74017192D01*
X102751852Y-74020852D01*
X102692904Y-74020852D01*
X102558092Y-73999500D01*
X102321908Y-73999500D01*
X102187096Y-74020852D01*
X102128147Y-74020852D01*
X102099934Y-74017554D01*
X102071549Y-74018711D01*
X102013821Y-74007489D01*
X101955416Y-74000663D01*
X101928722Y-73990947D01*
X101900838Y-73985527D01*
X101847258Y-73961296D01*
X101791996Y-73941183D01*
X101768260Y-73925571D01*
X101742380Y-73913868D01*
X101695830Y-73877933D01*
X101646699Y-73845619D01*
X101627207Y-73824959D01*
X101604719Y-73807599D01*
X101567708Y-73761894D01*
X101527357Y-73719124D01*
X101513153Y-73694523D01*
X101495277Y-73672447D01*
X101469806Y-73619444D01*
X101440403Y-73568516D01*
X101432256Y-73541303D01*
X101419952Y-73515699D01*
X101407391Y-73458247D01*
X101390526Y-73401914D01*
X101388874Y-73373555D01*
X101382807Y-73345805D01*
X101383833Y-73287011D01*
X101380414Y-73228302D01*
X101385347Y-73200325D01*
X101385843Y-73171924D01*
X101388357Y-73154755D01*
X101400500Y-73078092D01*
X101400500Y-72841908D01*
X101363553Y-72608632D01*
X101290568Y-72384008D01*
X101282934Y-72369025D01*
X101183344Y-72173568D01*
X101044520Y-71982493D01*
X101034954Y-71971293D01*
X100938127Y-71826834D01*
X100877224Y-71663940D01*
X100855528Y-71491392D01*
X100855500Y-71484858D01*
X100855500Y-69869666D01*
X100864339Y-69794038D01*
X100870974Y-69718205D01*
X100874417Y-69707812D01*
X100875689Y-69696935D01*
X100901729Y-69625390D01*
X100925675Y-69553125D01*
X100931423Y-69543804D01*
X100935169Y-69533515D01*
X100977009Y-69469900D01*
X101016973Y-69405110D01*
X101027128Y-69393697D01*
X101030733Y-69388218D01*
X101048453Y-69368880D01*
X214499500Y-69368880D01*
X214499500Y-69631120D01*
X214533730Y-69891116D01*
X214533731Y-69891121D01*
X214533732Y-69891125D01*
X214601602Y-70144421D01*
X214701952Y-70386687D01*
X214701953Y-70386690D01*
X214833075Y-70613802D01*
X214992715Y-70821848D01*
X215178151Y-71007284D01*
X215205451Y-71028232D01*
X215386197Y-71166924D01*
X215613303Y-71298043D01*
X215613305Y-71298044D01*
X215613309Y-71298046D01*
X215613312Y-71298047D01*
X215855578Y-71398397D01*
X215855579Y-71398397D01*
X215855581Y-71398398D01*
X216108884Y-71466270D01*
X216368880Y-71500500D01*
X216631119Y-71500500D01*
X216631120Y-71500500D01*
X216891116Y-71466270D01*
X217144419Y-71398398D01*
X217386697Y-71298043D01*
X217613803Y-71166924D01*
X217821851Y-71007282D01*
X218007282Y-70821851D01*
X218166924Y-70613803D01*
X218298043Y-70386697D01*
X218398398Y-70144419D01*
X218466270Y-69891116D01*
X218500500Y-69631120D01*
X218500500Y-69368880D01*
X257499500Y-69368880D01*
X257499500Y-69631120D01*
X257533730Y-69891116D01*
X257533731Y-69891121D01*
X257533732Y-69891125D01*
X257601602Y-70144421D01*
X257701952Y-70386687D01*
X257701953Y-70386690D01*
X257833075Y-70613802D01*
X257992715Y-70821848D01*
X258178151Y-71007284D01*
X258205451Y-71028232D01*
X258386197Y-71166924D01*
X258613303Y-71298043D01*
X258613305Y-71298044D01*
X258613309Y-71298046D01*
X258613312Y-71298047D01*
X258855578Y-71398397D01*
X258855579Y-71398397D01*
X258855581Y-71398398D01*
X259108884Y-71466270D01*
X259368880Y-71500500D01*
X259631119Y-71500500D01*
X259631120Y-71500500D01*
X259891116Y-71466270D01*
X260144419Y-71398398D01*
X260386697Y-71298043D01*
X260613803Y-71166924D01*
X260821851Y-71007282D01*
X261007282Y-70821851D01*
X261166924Y-70613803D01*
X261298043Y-70386697D01*
X261398398Y-70144419D01*
X261466270Y-69891116D01*
X261500500Y-69631120D01*
X261500500Y-69368880D01*
X261466270Y-69108884D01*
X261398398Y-68855581D01*
X261397398Y-68853167D01*
X261298047Y-68613312D01*
X261298046Y-68613309D01*
X261166924Y-68386197D01*
X261007284Y-68178151D01*
X260821848Y-67992715D01*
X260613802Y-67833075D01*
X260386690Y-67701953D01*
X260386687Y-67701952D01*
X260144421Y-67601602D01*
X259891125Y-67533732D01*
X259891121Y-67533731D01*
X259891116Y-67533730D01*
X259631120Y-67499500D01*
X259368880Y-67499500D01*
X259108884Y-67533730D01*
X259108878Y-67533731D01*
X259108874Y-67533732D01*
X258855578Y-67601602D01*
X258613312Y-67701952D01*
X258613309Y-67701953D01*
X258386197Y-67833075D01*
X258178151Y-67992715D01*
X257992715Y-68178151D01*
X257833075Y-68386197D01*
X257701953Y-68613309D01*
X257701952Y-68613312D01*
X257601602Y-68855578D01*
X257533732Y-69108874D01*
X257533731Y-69108878D01*
X257533730Y-69108884D01*
X257499500Y-69368880D01*
X218500500Y-69368880D01*
X218466270Y-69108884D01*
X218398398Y-68855581D01*
X218397398Y-68853167D01*
X218298047Y-68613312D01*
X218298046Y-68613309D01*
X218166924Y-68386197D01*
X218007284Y-68178151D01*
X217821848Y-67992715D01*
X217613802Y-67833075D01*
X217386690Y-67701953D01*
X217386687Y-67701952D01*
X217144421Y-67601602D01*
X216891125Y-67533732D01*
X216891121Y-67533731D01*
X216891116Y-67533730D01*
X216631120Y-67499500D01*
X216368880Y-67499500D01*
X216108884Y-67533730D01*
X216108878Y-67533731D01*
X216108874Y-67533732D01*
X215855578Y-67601602D01*
X215613312Y-67701952D01*
X215613309Y-67701953D01*
X215386197Y-67833075D01*
X215178151Y-67992715D01*
X214992715Y-68178151D01*
X214833075Y-68386197D01*
X214701953Y-68613309D01*
X214701952Y-68613312D01*
X214601602Y-68855578D01*
X214533732Y-69108874D01*
X214533731Y-69108878D01*
X214533730Y-69108884D01*
X214499500Y-69368880D01*
X101048453Y-69368880D01*
X101074877Y-69340043D01*
X102695043Y-67719877D01*
X102831459Y-67612014D01*
X102989072Y-67538517D01*
X103159386Y-67503350D01*
X103224666Y-67500500D01*
X189714674Y-67500500D01*
X189887405Y-67520689D01*
X190050825Y-67580169D01*
X190196122Y-67675733D01*
X190244297Y-67719877D01*
X190343339Y-67818919D01*
X190525388Y-67958611D01*
X190724112Y-68073344D01*
X190838490Y-68120721D01*
X190936112Y-68161158D01*
X190999525Y-68178149D01*
X191157762Y-68220548D01*
X191385266Y-68250500D01*
X191385267Y-68250500D01*
X191614733Y-68250500D01*
X191614734Y-68250500D01*
X191842238Y-68220548D01*
X192063887Y-68161158D01*
X192275888Y-68073344D01*
X192474612Y-67958611D01*
X192656661Y-67818919D01*
X192818919Y-67656661D01*
X192958611Y-67474612D01*
X193073344Y-67275888D01*
X193161158Y-67063887D01*
X193220548Y-66842238D01*
X193250500Y-66614734D01*
X193250500Y-66385266D01*
X193220548Y-66157762D01*
X193161158Y-65936113D01*
X193157240Y-65926655D01*
X193120721Y-65838490D01*
X193073344Y-65724112D01*
X192958611Y-65525388D01*
X192818919Y-65343339D01*
X192656661Y-65181081D01*
X192474612Y-65041389D01*
X192275888Y-64926656D01*
X192227061Y-64906431D01*
X192063887Y-64838841D01*
X191842236Y-64779451D01*
X191614740Y-64749500D01*
X191614734Y-64749500D01*
X191385266Y-64749500D01*
X191385259Y-64749500D01*
X191157763Y-64779451D01*
X190936112Y-64838841D01*
X190724118Y-64926653D01*
X190724113Y-64926655D01*
X190705312Y-64937510D01*
X190592116Y-65002864D01*
X190525385Y-65041391D01*
X190343343Y-65181077D01*
X190343336Y-65181083D01*
X190244297Y-65280123D01*
X190107881Y-65387986D01*
X189950268Y-65461483D01*
X189779954Y-65496650D01*
X189714674Y-65499500D01*
X102401452Y-65499500D01*
X102345820Y-65510567D01*
X102345817Y-65510568D01*
X102208161Y-65537949D01*
X102154840Y-65560035D01*
X102154834Y-65560038D01*
X102026086Y-65613368D01*
X102026084Y-65613369D01*
X101862219Y-65722859D01*
X99077863Y-68507215D01*
X99077859Y-68507220D01*
X98968369Y-68671083D01*
X98892948Y-68853167D01*
X98892948Y-68853168D01*
X98854500Y-69046452D01*
X98854500Y-71602839D01*
X98834311Y-71775570D01*
X98774831Y-71938990D01*
X98711454Y-72043090D01*
X98616655Y-72173569D01*
X98509434Y-72384002D01*
X98509432Y-72384006D01*
X98509432Y-72384008D01*
X98481922Y-72468676D01*
X98459907Y-72536431D01*
X98436447Y-72608632D01*
X98399568Y-72841482D01*
X98399500Y-72841910D01*
X98399500Y-73078092D01*
X98411631Y-73154685D01*
X98418711Y-73328449D01*
X98385527Y-73499160D01*
X98313869Y-73657618D01*
X98207599Y-73795279D01*
X98072448Y-73904722D01*
X97915700Y-73980046D01*
X97745806Y-74017192D01*
X97671852Y-74020852D01*
X97612904Y-74020852D01*
X97478092Y-73999500D01*
X97241908Y-73999500D01*
X97107096Y-74020852D01*
X97048147Y-74020852D01*
X97019934Y-74017554D01*
X96991549Y-74018711D01*
X96933821Y-74007489D01*
X96875416Y-74000663D01*
X96848722Y-73990947D01*
X96820838Y-73985527D01*
X96767258Y-73961296D01*
X96711996Y-73941183D01*
X96688260Y-73925571D01*
X96662380Y-73913868D01*
X96615830Y-73877933D01*
X96566699Y-73845619D01*
X96547207Y-73824959D01*
X96524719Y-73807599D01*
X96487708Y-73761894D01*
X96447357Y-73719124D01*
X96433153Y-73694523D01*
X96415277Y-73672447D01*
X96389806Y-73619444D01*
X96360403Y-73568516D01*
X96352256Y-73541303D01*
X96339952Y-73515699D01*
X96327391Y-73458247D01*
X96310526Y-73401914D01*
X96308874Y-73373555D01*
X96302807Y-73345805D01*
X96303833Y-73287011D01*
X96300414Y-73228302D01*
X96305347Y-73200325D01*
X96305843Y-73171924D01*
X96308357Y-73154755D01*
X96320500Y-73078092D01*
X96320500Y-72841908D01*
X96283553Y-72608632D01*
X96210568Y-72384008D01*
X96202934Y-72369025D01*
X96103344Y-72173568D01*
X95964519Y-71982492D01*
X95797507Y-71815480D01*
X95606431Y-71676655D01*
X95395997Y-71569434D01*
X95395994Y-71569433D01*
X95395992Y-71569432D01*
X95171368Y-71496447D01*
X94938092Y-71459500D01*
X94701908Y-71459500D01*
X94598943Y-71475808D01*
X94468631Y-71496447D01*
X94360517Y-71531575D01*
X94244008Y-71569432D01*
X94244006Y-71569432D01*
X94244006Y-71569433D01*
X94244002Y-71569434D01*
X94033568Y-71676655D01*
X93990247Y-71708130D01*
X93838637Y-71793324D01*
X93671466Y-71841258D01*
X93497747Y-71849348D01*
X93326845Y-71817158D01*
X93167974Y-71746422D01*
X93109753Y-71708130D01*
X93066431Y-71676655D01*
X92855997Y-71569434D01*
X92855994Y-71569433D01*
X92855992Y-71569432D01*
X92631368Y-71496447D01*
X92398092Y-71459500D01*
X92161908Y-71459500D01*
X92058943Y-71475808D01*
X91928631Y-71496447D01*
X91820517Y-71531575D01*
X91704008Y-71569432D01*
X91704006Y-71569432D01*
X91704006Y-71569433D01*
X91704002Y-71569434D01*
X91493568Y-71676655D01*
X91450247Y-71708130D01*
X91298637Y-71793324D01*
X91131466Y-71841258D01*
X90957747Y-71849348D01*
X90786845Y-71817158D01*
X90627974Y-71746422D01*
X90569753Y-71708130D01*
X90526431Y-71676655D01*
X90315997Y-71569434D01*
X90315994Y-71569433D01*
X90315992Y-71569432D01*
X90091368Y-71496447D01*
X89858092Y-71459500D01*
X89621908Y-71459500D01*
X89518943Y-71475808D01*
X89388631Y-71496447D01*
X89280517Y-71531575D01*
X89164008Y-71569432D01*
X89164006Y-71569432D01*
X89164006Y-71569433D01*
X89164002Y-71569434D01*
X88953568Y-71676655D01*
X88910247Y-71708130D01*
X88758637Y-71793324D01*
X88591466Y-71841258D01*
X88417747Y-71849348D01*
X88246845Y-71817158D01*
X88087974Y-71746422D01*
X88029753Y-71708130D01*
X87986431Y-71676655D01*
X87775997Y-71569434D01*
X87775994Y-71569433D01*
X87775992Y-71569432D01*
X87551368Y-71496447D01*
X87318092Y-71459500D01*
X87081908Y-71459500D01*
X86978943Y-71475808D01*
X86848631Y-71496447D01*
X86740517Y-71531575D01*
X86624008Y-71569432D01*
X86624006Y-71569432D01*
X86624006Y-71569433D01*
X86624002Y-71569434D01*
X86413568Y-71676655D01*
X86222492Y-71815480D01*
X86055480Y-71982492D01*
X85916655Y-72173568D01*
X85809434Y-72384002D01*
X85809432Y-72384006D01*
X85809432Y-72384008D01*
X85781922Y-72468676D01*
X85759907Y-72536431D01*
X85736447Y-72608632D01*
X85699568Y-72841482D01*
X85699500Y-72841910D01*
X85699500Y-73078099D01*
X85711833Y-73155966D01*
X85718912Y-73329729D01*
X85685728Y-73500441D01*
X85614069Y-73658898D01*
X85507799Y-73796559D01*
X85372647Y-73906001D01*
X85215899Y-73981325D01*
X85046005Y-74018470D01*
X84972054Y-74022130D01*
X84913102Y-74022130D01*
X84770222Y-73999500D01*
X84549778Y-73999500D01*
X84406898Y-74022130D01*
X84347945Y-74022130D01*
X84319726Y-74018831D01*
X84291346Y-74019988D01*
X84233628Y-74008768D01*
X84175214Y-74001941D01*
X84148516Y-73992224D01*
X84120634Y-73986804D01*
X84067059Y-73962575D01*
X84011794Y-73942461D01*
X83988056Y-73926848D01*
X83962177Y-73915145D01*
X83915632Y-73879214D01*
X83866497Y-73846897D01*
X83847001Y-73826233D01*
X83824516Y-73808875D01*
X83787510Y-73763176D01*
X83747155Y-73720402D01*
X83732950Y-73695798D01*
X83715074Y-73673723D01*
X83689606Y-73620725D01*
X83660201Y-73569794D01*
X83652052Y-73542576D01*
X83639750Y-73516975D01*
X83627190Y-73459530D01*
X83610324Y-73403192D01*
X83608672Y-73374830D01*
X83602605Y-73347081D01*
X83603631Y-73288289D01*
X83600212Y-73229580D01*
X83605145Y-73201603D01*
X83605641Y-73173200D01*
X83608167Y-73155960D01*
X83612560Y-73128223D01*
X83620500Y-73078092D01*
X83620500Y-72841908D01*
X83583553Y-72608632D01*
X83510568Y-72384008D01*
X83502934Y-72369025D01*
X83403344Y-72173568D01*
X83264519Y-71982492D01*
X83097507Y-71815480D01*
X82906431Y-71676655D01*
X82695997Y-71569434D01*
X82695994Y-71569433D01*
X82695992Y-71569432D01*
X82471368Y-71496447D01*
X82238092Y-71459500D01*
X82001908Y-71459500D01*
X81898943Y-71475808D01*
X81768631Y-71496447D01*
X81660517Y-71531575D01*
X81544008Y-71569432D01*
X81544006Y-71569432D01*
X81544006Y-71569433D01*
X81544002Y-71569434D01*
X81333568Y-71676655D01*
X81290247Y-71708130D01*
X81138637Y-71793324D01*
X80971466Y-71841258D01*
X80797747Y-71849348D01*
X80626845Y-71817158D01*
X80467974Y-71746422D01*
X80409753Y-71708130D01*
X80366431Y-71676655D01*
X80155997Y-71569434D01*
X80155994Y-71569433D01*
X80155992Y-71569432D01*
X79931368Y-71496447D01*
X79698092Y-71459500D01*
X79461908Y-71459500D01*
X79358943Y-71475808D01*
X79228631Y-71496447D01*
X79120517Y-71531575D01*
X79004008Y-71569432D01*
X79004006Y-71569432D01*
X79004006Y-71569433D01*
X79004002Y-71569434D01*
X78793568Y-71676655D01*
X78602492Y-71815480D01*
X78435480Y-71982492D01*
X78296655Y-72173568D01*
X78189434Y-72384002D01*
X78189432Y-72384006D01*
X78189432Y-72384008D01*
X78161922Y-72468676D01*
X78139907Y-72536431D01*
X78116447Y-72608632D01*
X78079568Y-72841482D01*
X78079500Y-72841910D01*
X78079500Y-73078092D01*
X78091631Y-73154685D01*
X78098711Y-73328449D01*
X78065527Y-73499160D01*
X77993869Y-73657618D01*
X77887599Y-73795279D01*
X77752448Y-73904722D01*
X77595700Y-73980046D01*
X77425806Y-74017192D01*
X77351852Y-74020852D01*
X77292904Y-74020852D01*
X77158092Y-73999500D01*
X76921908Y-73999500D01*
X76787096Y-74020852D01*
X76728147Y-74020852D01*
X76699934Y-74017554D01*
X76671549Y-74018711D01*
X76613821Y-74007489D01*
X76555416Y-74000663D01*
X76528722Y-73990947D01*
X76500838Y-73985527D01*
X76447258Y-73961296D01*
X76391996Y-73941183D01*
X76368260Y-73925571D01*
X76342380Y-73913868D01*
X76295830Y-73877933D01*
X76246699Y-73845619D01*
X76227207Y-73824959D01*
X76204719Y-73807599D01*
X76167708Y-73761894D01*
X76127357Y-73719124D01*
X76113153Y-73694523D01*
X76095277Y-73672447D01*
X76069806Y-73619444D01*
X76040403Y-73568516D01*
X76032256Y-73541303D01*
X76019952Y-73515699D01*
X76007391Y-73458247D01*
X75990526Y-73401914D01*
X75988874Y-73373555D01*
X75982807Y-73345805D01*
X75983833Y-73287011D01*
X75980414Y-73228302D01*
X75985347Y-73200325D01*
X75985843Y-73171924D01*
X75988357Y-73154755D01*
X76000500Y-73078092D01*
X76000500Y-72841908D01*
X75963553Y-72608632D01*
X75890568Y-72384008D01*
X75882934Y-72369025D01*
X75783344Y-72173568D01*
X75644519Y-71982492D01*
X75477507Y-71815480D01*
X75286431Y-71676655D01*
X75075997Y-71569434D01*
X75075994Y-71569433D01*
X75075992Y-71569432D01*
X74851368Y-71496447D01*
X74618092Y-71459500D01*
X74381908Y-71459500D01*
X74278943Y-71475808D01*
X74148631Y-71496447D01*
X74055855Y-71526592D01*
X73980952Y-71550929D01*
X73810439Y-71585105D01*
X73636637Y-71579036D01*
X73468921Y-71533049D01*
X73316330Y-71449624D01*
X73187091Y-71333257D01*
X73088173Y-71190223D01*
X73024906Y-71028232D01*
X73000703Y-70856017D01*
X73000500Y-70838588D01*
X73000500Y-64001908D01*
X77499500Y-64001908D01*
X77499500Y-64238092D01*
X77536447Y-64471368D01*
X77609432Y-64695992D01*
X77609433Y-64695993D01*
X77609434Y-64695997D01*
X77716655Y-64906431D01*
X77855480Y-65097507D01*
X78022492Y-65264519D01*
X78213568Y-65403344D01*
X78327673Y-65461483D01*
X78424008Y-65510568D01*
X78648632Y-65583553D01*
X78881908Y-65620500D01*
X78881910Y-65620500D01*
X79118090Y-65620500D01*
X79118092Y-65620500D01*
X79351368Y-65583553D01*
X79575992Y-65510568D01*
X79786433Y-65403343D01*
X79977510Y-65264517D01*
X80144517Y-65097510D01*
X80283343Y-64906433D01*
X80390568Y-64695992D01*
X80463553Y-64471368D01*
X80500500Y-64238092D01*
X80500500Y-64001908D01*
X80475159Y-63841908D01*
X199999500Y-63841908D01*
X199999500Y-64078092D01*
X200036447Y-64311368D01*
X200109432Y-64535992D01*
X200146868Y-64609466D01*
X200165965Y-64720989D01*
X200175217Y-64894650D01*
X200144171Y-65065763D01*
X200081026Y-65210180D01*
X200081880Y-65210646D01*
X200076575Y-65220361D01*
X200074501Y-65225105D01*
X200071576Y-65229515D01*
X200056206Y-65257663D01*
X200005908Y-65392517D01*
X200005907Y-65392522D01*
X199999500Y-65452116D01*
X199999500Y-67547871D01*
X200005908Y-67607480D01*
X200005908Y-67607482D01*
X200005909Y-67607483D01*
X200056204Y-67742331D01*
X200142454Y-67857546D01*
X200257669Y-67943796D01*
X200388828Y-67992715D01*
X200392517Y-67994091D01*
X200392522Y-67994092D01*
X200426241Y-67997716D01*
X200452127Y-68000500D01*
X202547872Y-68000499D01*
X202607483Y-67994091D01*
X202742331Y-67943796D01*
X202857546Y-67857546D01*
X202943796Y-67742331D01*
X202994091Y-67607483D01*
X202994724Y-67601602D01*
X203000499Y-67547883D01*
X203000499Y-67547882D01*
X203000500Y-67547873D01*
X203000499Y-65452128D01*
X202994091Y-65392517D01*
X202943796Y-65257669D01*
X202943794Y-65257667D01*
X202943794Y-65257665D01*
X202918120Y-65210646D01*
X202921789Y-65208642D01*
X202885335Y-65145886D01*
X202835016Y-64979418D01*
X202824444Y-64805832D01*
X202854189Y-64634488D01*
X202880304Y-64560770D01*
X202890561Y-64536005D01*
X202890568Y-64535992D01*
X202963553Y-64311368D01*
X203000500Y-64078092D01*
X203000500Y-63841908D01*
X202963553Y-63608632D01*
X202890568Y-63384008D01*
X202783343Y-63173567D01*
X202760764Y-63142490D01*
X202644519Y-62982492D01*
X202477507Y-62815480D01*
X202286431Y-62676655D01*
X202075997Y-62569434D01*
X202075994Y-62569433D01*
X202075992Y-62569432D01*
X201851368Y-62496447D01*
X201618092Y-62459500D01*
X201381908Y-62459500D01*
X201226390Y-62484131D01*
X201148631Y-62496447D01*
X201040517Y-62531575D01*
X200924008Y-62569432D01*
X200924006Y-62569432D01*
X200924006Y-62569433D01*
X200924002Y-62569434D01*
X200713568Y-62676655D01*
X200522492Y-62815480D01*
X200355480Y-62982492D01*
X200216655Y-63173568D01*
X200109434Y-63384002D01*
X200109433Y-63384006D01*
X200036447Y-63608631D01*
X200011106Y-63768632D01*
X199999500Y-63841908D01*
X80475159Y-63841908D01*
X80463553Y-63768632D01*
X80390568Y-63544008D01*
X80283343Y-63333567D01*
X80167096Y-63173567D01*
X80144519Y-63142492D01*
X79977507Y-62975480D01*
X79786431Y-62836655D01*
X79575997Y-62729434D01*
X79575994Y-62729433D01*
X79575992Y-62729432D01*
X79351368Y-62656447D01*
X79118092Y-62619500D01*
X78881908Y-62619500D01*
X78726390Y-62644131D01*
X78648631Y-62656447D01*
X78586438Y-62676655D01*
X78424008Y-62729432D01*
X78424006Y-62729432D01*
X78424006Y-62729433D01*
X78424002Y-62729434D01*
X78213568Y-62836655D01*
X78022492Y-62975480D01*
X77855480Y-63142492D01*
X77716655Y-63333568D01*
X77609434Y-63544002D01*
X77609433Y-63544006D01*
X77536448Y-63768630D01*
X77536447Y-63768632D01*
X77499500Y-64001908D01*
X73000500Y-64001908D01*
X73000500Y-58285326D01*
X73020689Y-58112595D01*
X73080169Y-57949175D01*
X73175733Y-57803878D01*
X73219877Y-57755703D01*
X73257826Y-57717754D01*
X73318919Y-57656661D01*
X73458611Y-57474612D01*
X73573344Y-57275888D01*
X73661158Y-57063887D01*
X73720548Y-56842238D01*
X73750500Y-56614734D01*
X73750500Y-56385266D01*
X73720548Y-56157762D01*
X73661158Y-55936113D01*
X73645873Y-55899213D01*
X73573346Y-55724118D01*
X73573344Y-55724113D01*
X73573344Y-55724112D01*
X73458611Y-55525388D01*
X73318919Y-55343339D01*
X73156661Y-55181081D01*
X72974612Y-55041389D01*
X72775888Y-54926656D01*
X72775881Y-54926653D01*
X72563887Y-54838841D01*
X72342236Y-54779451D01*
X72114740Y-54749500D01*
X72114734Y-54749500D01*
X71885266Y-54749500D01*
X71885259Y-54749500D01*
X71657763Y-54779451D01*
X71436112Y-54838841D01*
X71224118Y-54926653D01*
X71224113Y-54926655D01*
X71025385Y-55041391D01*
X70843343Y-55181077D01*
X70843336Y-55181083D01*
X70681083Y-55343336D01*
X70681077Y-55343343D01*
X70541391Y-55525385D01*
X70426655Y-55724113D01*
X70426653Y-55724118D01*
X70338841Y-55936112D01*
X70279451Y-56157763D01*
X70249500Y-56385259D01*
X70249500Y-56614740D01*
X70279450Y-56842233D01*
X70282302Y-56856566D01*
X70296199Y-57029917D01*
X70269744Y-57201800D01*
X70204364Y-57362949D01*
X70103582Y-57504677D01*
X69972832Y-57619342D01*
X69819163Y-57700764D01*
X69650858Y-57744552D01*
X69498724Y-57750088D01*
X69489750Y-57749500D01*
X69489734Y-57749500D01*
X69260266Y-57749500D01*
X69260259Y-57749500D01*
X69032763Y-57779451D01*
X68811112Y-57838841D01*
X68599118Y-57926653D01*
X68599113Y-57926655D01*
X68400385Y-58041391D01*
X68218343Y-58181077D01*
X68218336Y-58181083D01*
X68056083Y-58343336D01*
X68056077Y-58343343D01*
X67916391Y-58525385D01*
X67801655Y-58724113D01*
X67801653Y-58724118D01*
X67713841Y-58936112D01*
X67654451Y-59157763D01*
X67624500Y-59385259D01*
X67624500Y-59614740D01*
X67654451Y-59842236D01*
X67713841Y-60063887D01*
X67801653Y-60275881D01*
X67801656Y-60275888D01*
X67916389Y-60474612D01*
X67966946Y-60540499D01*
X68056077Y-60656656D01*
X68056083Y-60656663D01*
X68155123Y-60755703D01*
X68199987Y-60812444D01*
X68247048Y-60867380D01*
X68253818Y-60880524D01*
X68262986Y-60892119D01*
X68293554Y-60957672D01*
X68326679Y-61021984D01*
X68330234Y-61036332D01*
X68336483Y-61049732D01*
X68351110Y-61120574D01*
X68368510Y-61190786D01*
X68369794Y-61211060D01*
X68371650Y-61220046D01*
X68371245Y-61233956D01*
X68374500Y-61285326D01*
X68374500Y-71602839D01*
X68354311Y-71775570D01*
X68294831Y-71938990D01*
X68231454Y-72043090D01*
X68136655Y-72173569D01*
X68029434Y-72384002D01*
X68029432Y-72384006D01*
X68029432Y-72384008D01*
X68001922Y-72468676D01*
X67979907Y-72536431D01*
X67956447Y-72608632D01*
X67919568Y-72841482D01*
X67919500Y-72841910D01*
X67919500Y-73078092D01*
X67931631Y-73154685D01*
X67938711Y-73328449D01*
X67905527Y-73499160D01*
X67833869Y-73657618D01*
X67727599Y-73795279D01*
X67592448Y-73904722D01*
X67435700Y-73980046D01*
X67265806Y-74017192D01*
X67191852Y-74020852D01*
X67132904Y-74020852D01*
X66998092Y-73999500D01*
X66761908Y-73999500D01*
X66627096Y-74020852D01*
X66568147Y-74020852D01*
X66539934Y-74017554D01*
X66511549Y-74018711D01*
X66453821Y-74007489D01*
X66395416Y-74000663D01*
X66368722Y-73990947D01*
X66340838Y-73985527D01*
X66287258Y-73961296D01*
X66231996Y-73941183D01*
X66208260Y-73925571D01*
X66182380Y-73913868D01*
X66135830Y-73877933D01*
X66086699Y-73845619D01*
X66067207Y-73824959D01*
X66044719Y-73807599D01*
X66007708Y-73761894D01*
X65967357Y-73719124D01*
X65953153Y-73694523D01*
X65935277Y-73672447D01*
X65909806Y-73619444D01*
X65880403Y-73568516D01*
X65872256Y-73541303D01*
X65859952Y-73515699D01*
X65847391Y-73458247D01*
X65830526Y-73401914D01*
X65828874Y-73373555D01*
X65822807Y-73345805D01*
X65823833Y-73287011D01*
X65820414Y-73228302D01*
X65825347Y-73200325D01*
X65825843Y-73171924D01*
X65828357Y-73154755D01*
X65840500Y-73078092D01*
X65840500Y-72841908D01*
X65803553Y-72608632D01*
X65730568Y-72384008D01*
X65722934Y-72369025D01*
X65623344Y-72173568D01*
X65484519Y-71982492D01*
X65317507Y-71815480D01*
X65126431Y-71676655D01*
X64915997Y-71569434D01*
X64915994Y-71569433D01*
X64915992Y-71569432D01*
X64691368Y-71496447D01*
X64458092Y-71459500D01*
X64221908Y-71459500D01*
X64221903Y-71459500D01*
X64066665Y-71484087D01*
X63986273Y-71487362D01*
X63905950Y-71492041D01*
X63899474Y-71490899D01*
X63892902Y-71491167D01*
X63813893Y-71475808D01*
X63734684Y-71461842D01*
X63728648Y-71459238D01*
X63722190Y-71457983D01*
X63648866Y-71424823D01*
X63575000Y-71392961D01*
X63569724Y-71389033D01*
X63563733Y-71386324D01*
X63500039Y-71337155D01*
X63435505Y-71289111D01*
X63431278Y-71284074D01*
X63426072Y-71280055D01*
X63375423Y-71217508D01*
X63323720Y-71155890D01*
X63320769Y-71150014D01*
X63316630Y-71144903D01*
X63281775Y-71072372D01*
X63245670Y-71000481D01*
X63244153Y-70994082D01*
X63241305Y-70988155D01*
X63224122Y-70909567D01*
X63205564Y-70831262D01*
X63205041Y-70822293D01*
X63204160Y-70818261D01*
X63200500Y-70744308D01*
X63200500Y-69999500D01*
X63220689Y-69826769D01*
X63280169Y-69663349D01*
X63375733Y-69518052D01*
X63502228Y-69398710D01*
X63652836Y-69311756D01*
X63819438Y-69261879D01*
X63949500Y-69250500D01*
X64114733Y-69250500D01*
X64114734Y-69250500D01*
X64342238Y-69220548D01*
X64563887Y-69161158D01*
X64775888Y-69073344D01*
X64974612Y-68958611D01*
X65156661Y-68818919D01*
X65318919Y-68656661D01*
X65458611Y-68474612D01*
X65573344Y-68275888D01*
X65661158Y-68063887D01*
X65720548Y-67842238D01*
X65750500Y-67614734D01*
X65750500Y-60650460D01*
X65755122Y-60610914D01*
X65754716Y-60571102D01*
X65765182Y-60524842D01*
X65770689Y-60477729D01*
X65787853Y-60424640D01*
X65793093Y-60401482D01*
X65799714Y-60387955D01*
X65807512Y-60363835D01*
X65898398Y-60144419D01*
X65966270Y-59891116D01*
X66000500Y-59631120D01*
X66000500Y-59368880D01*
X65966270Y-59108884D01*
X65898398Y-58855581D01*
X65898397Y-58855578D01*
X65798047Y-58613312D01*
X65798046Y-58613309D01*
X65795808Y-58609433D01*
X65666924Y-58386197D01*
X65634035Y-58343336D01*
X65507284Y-58178151D01*
X65321848Y-57992715D01*
X65113802Y-57833075D01*
X64886690Y-57701953D01*
X64886687Y-57701952D01*
X64644421Y-57601602D01*
X64391125Y-57533732D01*
X64391121Y-57533731D01*
X64391116Y-57533730D01*
X64131120Y-57499500D01*
X63868880Y-57499500D01*
X63608884Y-57533730D01*
X63608878Y-57533731D01*
X63608874Y-57533732D01*
X63355578Y-57601602D01*
X63113312Y-57701952D01*
X63113309Y-57701953D01*
X62886197Y-57833075D01*
X62678151Y-57992715D01*
X62492715Y-58178151D01*
X62333075Y-58386197D01*
X62201953Y-58613309D01*
X62201952Y-58613312D01*
X62101602Y-58855578D01*
X62033732Y-59108874D01*
X62033731Y-59108878D01*
X62033730Y-59108884D01*
X61999500Y-59368880D01*
X61999500Y-59631120D01*
X62033730Y-59891116D01*
X62033731Y-59891121D01*
X62033732Y-59891125D01*
X62094547Y-60118089D01*
X62101602Y-60144419D01*
X62192486Y-60363833D01*
X62239934Y-60531137D01*
X62249500Y-60650460D01*
X62249500Y-65000500D01*
X62229311Y-65173231D01*
X62169831Y-65336651D01*
X62074267Y-65481948D01*
X61947772Y-65601290D01*
X61797164Y-65688244D01*
X61630562Y-65738121D01*
X61500500Y-65749500D01*
X40385259Y-65749500D01*
X40157763Y-65779451D01*
X39936112Y-65838841D01*
X39724118Y-65926653D01*
X39724113Y-65926655D01*
X39525385Y-66041391D01*
X39343343Y-66181077D01*
X39343336Y-66181083D01*
X39181083Y-66343336D01*
X39181077Y-66343343D01*
X39041391Y-66525385D01*
X38926655Y-66724113D01*
X38926653Y-66724118D01*
X38838841Y-66936112D01*
X38779451Y-67157763D01*
X38749500Y-67385259D01*
X29540500Y-67385259D01*
X29540500Y-59881908D01*
X56999500Y-59881908D01*
X56999500Y-60118092D01*
X57036447Y-60351368D01*
X57109432Y-60575992D01*
X57109433Y-60575993D01*
X57109434Y-60575997D01*
X57216655Y-60786431D01*
X57355480Y-60977507D01*
X57522492Y-61144519D01*
X57713568Y-61283344D01*
X57924002Y-61390565D01*
X57924008Y-61390568D01*
X58148632Y-61463553D01*
X58381908Y-61500500D01*
X58381910Y-61500500D01*
X58618090Y-61500500D01*
X58618092Y-61500500D01*
X58851368Y-61463553D01*
X59075992Y-61390568D01*
X59286433Y-61283343D01*
X59477510Y-61144517D01*
X59644517Y-60977510D01*
X59783343Y-60786433D01*
X59890568Y-60575992D01*
X59963553Y-60351368D01*
X60000500Y-60118092D01*
X60000500Y-59881908D01*
X59963553Y-59648632D01*
X59890568Y-59424008D01*
X59870828Y-59385266D01*
X59783344Y-59213568D01*
X59644519Y-59022492D01*
X59477507Y-58855480D01*
X59286431Y-58716655D01*
X59075997Y-58609434D01*
X59075994Y-58609433D01*
X59075992Y-58609432D01*
X58851368Y-58536447D01*
X58618092Y-58499500D01*
X58381908Y-58499500D01*
X58226390Y-58524131D01*
X58148631Y-58536447D01*
X58040517Y-58571575D01*
X57924008Y-58609432D01*
X57924006Y-58609432D01*
X57924006Y-58609433D01*
X57924002Y-58609434D01*
X57713568Y-58716655D01*
X57522492Y-58855480D01*
X57355480Y-59022492D01*
X57216655Y-59213568D01*
X57109434Y-59424002D01*
X57109432Y-59424006D01*
X57109432Y-59424008D01*
X57036447Y-59648632D01*
X56999500Y-59881908D01*
X29540500Y-59881908D01*
X29540500Y-52912116D01*
X77499500Y-52912116D01*
X77499500Y-55007871D01*
X77505908Y-55067480D01*
X77556205Y-55202334D01*
X77581880Y-55249354D01*
X77578209Y-55251358D01*
X77614675Y-55314138D01*
X77664987Y-55480609D01*
X77675553Y-55654195D01*
X77645802Y-55825538D01*
X77619702Y-55899213D01*
X77609432Y-55924006D01*
X77536447Y-56148631D01*
X77536447Y-56148632D01*
X77499500Y-56381908D01*
X77499500Y-56618092D01*
X77536447Y-56851368D01*
X77609432Y-57075992D01*
X77609433Y-57075993D01*
X77609434Y-57075997D01*
X77716655Y-57286431D01*
X77748130Y-57329753D01*
X77833324Y-57481363D01*
X77881258Y-57648534D01*
X77889348Y-57822253D01*
X77857158Y-57993155D01*
X77786422Y-58152026D01*
X77748130Y-58210247D01*
X77716655Y-58253568D01*
X77609434Y-58464002D01*
X77609432Y-58464006D01*
X77609432Y-58464008D01*
X77585895Y-58536447D01*
X77536447Y-58688631D01*
X77530827Y-58724113D01*
X77499500Y-58921908D01*
X77499500Y-59158092D01*
X77536447Y-59391368D01*
X77609432Y-59615992D01*
X77609433Y-59615993D01*
X77609434Y-59615997D01*
X77716655Y-59826431D01*
X77855480Y-60017507D01*
X78022492Y-60184519D01*
X78213568Y-60323344D01*
X78424002Y-60430565D01*
X78424008Y-60430568D01*
X78648632Y-60503553D01*
X78881908Y-60540500D01*
X78881910Y-60540500D01*
X79118090Y-60540500D01*
X79118092Y-60540500D01*
X79351368Y-60503553D01*
X79575992Y-60430568D01*
X79786433Y-60323343D01*
X79977510Y-60184517D01*
X80144517Y-60017510D01*
X80283343Y-59826433D01*
X80390568Y-59615992D01*
X80463553Y-59391368D01*
X80500500Y-59158092D01*
X80500500Y-58921908D01*
X80463553Y-58688632D01*
X80390568Y-58464008D01*
X80390565Y-58464002D01*
X80283346Y-58253571D01*
X80251873Y-58210253D01*
X80166678Y-58058644D01*
X80118742Y-57891473D01*
X80110650Y-57717754D01*
X80142839Y-57546852D01*
X80213573Y-57387980D01*
X80251873Y-57329747D01*
X80283343Y-57286433D01*
X80390568Y-57075992D01*
X80463553Y-56851368D01*
X80500500Y-56618092D01*
X80500500Y-56381908D01*
X80463553Y-56148632D01*
X80390568Y-55924008D01*
X80390564Y-55924001D01*
X80380302Y-55899224D01*
X80332855Y-55731915D01*
X80325270Y-55558173D01*
X80357958Y-55387365D01*
X80419539Y-55250128D01*
X80418120Y-55249354D01*
X80428035Y-55231195D01*
X80429155Y-55228700D01*
X80430465Y-55226744D01*
X80443793Y-55202336D01*
X80443793Y-55202334D01*
X80443796Y-55202331D01*
X80494091Y-55067483D01*
X80496897Y-55041391D01*
X80500499Y-55007883D01*
X80500499Y-55007882D01*
X80500500Y-55007873D01*
X80500499Y-52912128D01*
X80494091Y-52852517D01*
X80443796Y-52717669D01*
X80357546Y-52602454D01*
X80242331Y-52516204D01*
X80159450Y-52485291D01*
X80107482Y-52465908D01*
X80107477Y-52465907D01*
X80047878Y-52459500D01*
X77952128Y-52459500D01*
X77892519Y-52465908D01*
X77757668Y-52516204D01*
X77642454Y-52602454D01*
X77556204Y-52717669D01*
X77536821Y-52769636D01*
X77505908Y-52852517D01*
X77505907Y-52852522D01*
X77499500Y-52912116D01*
X29540500Y-52912116D01*
X29540500Y-46881908D01*
X75249500Y-46881908D01*
X75249500Y-47118092D01*
X75286447Y-47351368D01*
X75359432Y-47575992D01*
X75359433Y-47575993D01*
X75359434Y-47575997D01*
X75466655Y-47786431D01*
X75605480Y-47977507D01*
X75772492Y-48144519D01*
X75963568Y-48283344D01*
X76174002Y-48390565D01*
X76174008Y-48390568D01*
X76398632Y-48463553D01*
X76631908Y-48500500D01*
X76631910Y-48500500D01*
X76868090Y-48500500D01*
X76868092Y-48500500D01*
X77101368Y-48463553D01*
X77325992Y-48390568D01*
X77536433Y-48283343D01*
X77727510Y-48144517D01*
X77894517Y-47977510D01*
X78033343Y-47786433D01*
X78140568Y-47575992D01*
X78213553Y-47351368D01*
X78250500Y-47118092D01*
X78250500Y-46881908D01*
X78213553Y-46648632D01*
X78140568Y-46424008D01*
X78033343Y-46213567D01*
X77894519Y-46022492D01*
X77727507Y-45855480D01*
X77536431Y-45716655D01*
X77325997Y-45609434D01*
X77325994Y-45609433D01*
X77325992Y-45609432D01*
X77101368Y-45536447D01*
X76868092Y-45499500D01*
X76631908Y-45499500D01*
X76476390Y-45524131D01*
X76398631Y-45536447D01*
X76290517Y-45571575D01*
X76174008Y-45609432D01*
X76174006Y-45609432D01*
X76174006Y-45609433D01*
X76174002Y-45609434D01*
X75963568Y-45716655D01*
X75772492Y-45855480D01*
X75605480Y-46022492D01*
X75466655Y-46213568D01*
X75359434Y-46424002D01*
X75359432Y-46424006D01*
X75359432Y-46424008D01*
X75286447Y-46648632D01*
X75249500Y-46881908D01*
X29540500Y-46881908D01*
X29540500Y-39289500D01*
X29560689Y-39116769D01*
X29620169Y-38953349D01*
X29715733Y-38808052D01*
X29842228Y-38688710D01*
X29992836Y-38601756D01*
X30159438Y-38551879D01*
X30289500Y-38540500D01*
X258691932Y-38540500D01*
X258864663Y-38560689D01*
G37*
G04 #@! TD.AperFunction*
G04 #@! TD*
D33*
X27000000Y-36000000D02*
X268500000Y-36000000D01*
X27000000Y-146500000D02*
X27000000Y-36000000D01*
X49500000Y-126500000D02*
X156000000Y-126500000D01*
X49500000Y-146500000D02*
X27000000Y-146500000D01*
X49500000Y-146500000D02*
X49500000Y-126500000D01*
X156000000Y-126500000D02*
X156000000Y-146500000D01*
X268500000Y-36000000D02*
X268500000Y-146500000D01*
X268500000Y-146500000D02*
X156000000Y-146500000D01*
M02*
