M48
; DRILL file {KiCad 9.0.8-9.0.8~ubuntu24.04.1} date 2026-04-07T15:59:33+0100
; FORMAT={-:-/ absolute / metric / decimal}
; #@! TF.CreationDate,2026-04-07T15:59:33+01:00
; #@! TF.GenerationSoftware,Kicad,Pcbnew,9.0.8-9.0.8~ubuntu24.04.1
; #@! TF.FileFunction,Plated,1,2,PTH
FMAT,2
METRIC
; #@! TA.AperFunction,Plated,PTH,ComponentDrill
T1C0.800
; #@! TA.AperFunction,Plated,PTH,ViaDrill
T2C1.000
; #@! TA.AperFunction,Plated,PTH,ComponentDrill
T3C1.000
; #@! TA.AperFunction,Plated,PTH,ComponentDrill
T4C1.200
; #@! TA.AperFunction,Plated,PTH,ComponentDrill
T5C1.250
; #@! TA.AperFunction,Plated,PTH,ComponentDrill
T6C1.300
; #@! TA.AperFunction,Plated,PTH,ComponentDrill
T7C2.500
%
G90
G05
T1
X43.25Y-87.0
X45.75Y-87.0
X56.0Y-60.0
X58.5Y-60.0
X76.75Y-47.0
X79.25Y-47.0
X199.5Y-124.0
X200.25Y-71.75
X202.0Y-124.0
X202.75Y-71.75
T2
X64.0Y-59.5
X69.375Y-59.5
X72.0Y-56.5
X72.0Y-78.5
X77.0Y-69.5
X82.0Y-47.0
X84.5Y-69.5
X92.5Y-78.5
X110.0Y-78.5
X156.0Y-114.5
X156.0Y-119.0
X191.5Y-66.5
X194.5Y-60.0
X196.0Y-71.5
X197.5Y-60.0
X202.0Y-129.0
X203.5Y-109.0
X205.5Y-120.0
X206.0Y-112.5
X217.0Y-135.5
X240.5Y-58.0
T3
X61.8Y-72.96
X61.8Y-75.5
X64.34Y-72.96
X64.34Y-75.5
X66.88Y-72.96
X66.88Y-75.5
X69.42Y-72.96
X69.42Y-75.5
X71.96Y-72.96
X71.96Y-75.5
X74.5Y-72.96
X74.5Y-75.5
X77.04Y-72.96
X77.04Y-75.5
X79.0Y-53.96
X79.0Y-56.5
X79.0Y-59.04
X79.0Y-61.58
X79.0Y-64.12
X79.58Y-72.96
X79.58Y-75.5
X82.12Y-72.96
X82.12Y-75.5
X84.66Y-72.96
X84.66Y-75.5
X87.2Y-72.96
X87.2Y-75.5
X89.74Y-72.96
X89.74Y-75.5
X92.28Y-72.96
X92.28Y-75.5
X94.82Y-72.96
X94.82Y-75.5
X97.36Y-72.96
X97.36Y-75.5
X99.9Y-72.96
X99.9Y-75.5
X102.44Y-72.96
X102.44Y-75.5
X104.98Y-72.96
X104.98Y-75.5
X107.52Y-72.96
X107.52Y-75.5
X110.06Y-72.96
X110.06Y-75.5
X201.5Y-61.42
X201.5Y-63.96
X201.5Y-66.5
X202.0Y-114.5
X202.0Y-117.04
X202.0Y-119.58
T4
X40.5Y-99.5
X45.5Y-99.5
T5
X54.0Y-93.5
X54.0Y-107.5
X111.0Y-93.5
X111.0Y-107.5
X159.5Y-117.5
X159.5Y-120.5
X177.0Y-117.5
X177.0Y-120.5
T6
X168.5Y-86.25
X168.5Y-108.75
T7
X190.0Y-138.0
X194.699Y-138.0
X199.398Y-138.0
M30
